<svg viewBox="0 0 1024 1024" xmlns="http://www.w3.org/2000/svg"><path d="m0 0h1024v1024h-1024z" fill="#003854"></path><g fill="#fff"><path d="m666.47 326.7c0-31-20.3-49.88-52.17-49.88h-101.87v31.81h94.2c14 0 22.32 5.82 22.32 16.6.26 11.1-7.4 18.82-19.07 21.74l-67.7 15.45c-31.37 6.49-45.68 25.27-45.68 54.94v48.64h167v-8.54a23.45 23.45 0 0 0 -1.88-9.35 24.48 24.48 0 0 0 -5.11-7.66 23.11 23.11 0 0 0 -7.66-5.18 23.88 23.88 0 0 0 -9.41-1.87h-38.1v-.13h-67.61v-15.9a21 21 0 0 1 17.55-22.6l65.59-15.52c29.67-6.17 49.6-22.79 49.6-52.55"></path><path d="m165.07 465.98h86.41v-31.39h-23.82v-157.74h-29.32l-34.14 17.83v23.17h26.12v116.74h-25.25z"></path><path d="m430.78 398.35v22.65a12.54 12.54 0 0 1 -11 13.92 12.74 12.74 0 0 1 -3 0h-88.6a12.47 12.47 0 0 1 -13.84-10.92 13.17 13.17 0 0 1 0-3v-22.6a12.49 12.49 0 0 1 10.88-13.92 12 12 0 0 1 3 0h88.66a12.46 12.46 0 0 1 13.85 10.91 12.13 12.13 0 0 1 0 3zm-5.06-76.35v17.46a12.5 12.5 0 0 1 -10.87 13.92 12.88 12.88 0 0 1 -3 0h-78.51a12.49 12.49 0 0 1 -13.91-10.88 11.9 11.9 0 0 1 0-3v-17.5a12.48 12.48 0 0 1 10.87-14 11.9 11.9 0 0 1 3 0h78.47a12.49 12.49 0 0 1 13.91 10.88 12.88 12.88 0 0 1 0 3m-98.2-45.11c-28.72 0-44.14 15.45-44.14 44.14v19.42a28.17 28.17 0 0 0 11.16 25.18 29.58 29.58 0 0 0 -16.89 28.9v27.28c0 28.7 15.45 44.13 44.14 44.13h101.49c28.71 0 44.13-15.44 44.13-44.13v-27.2a29.57 29.57 0 0 0 -16.88-28.9 28.11 28.11 0 0 0 11.17-25.18v-19.41c0-28.71-15.45-44.14-44.14-44.14z"></path><path d="m861.87 326.7c0-31-20.3-49.88-52.17-49.88h-101.87v31.81h94.17c14 0 22.32 5.82 22.32 16.6.26 11.1-7.41 18.82-19.07 21.74l-67.7 15.45c-31.38 6.49-45.69 25.27-45.69 54.94v48.64h167.14v-8.54a23.45 23.45 0 0 0 -1.88-9.35 24.48 24.48 0 0 0 -5.11-7.66 23.11 23.11 0 0 0 -7.66-5.18 23.93 23.93 0 0 0 -9.42-1.87h-38.14v-.13h-67.66v-15.9a21 21 0 0 1 17.55-22.6l65.59-15.52c29.67-6.17 49.6-22.79 49.6-52.55"></path><path d="m348.39 541.22a16.76 16.76 0 1 0 -16.8-16.76 16.79 16.79 0 0 0 16.8 16.76"></path><path d="m334.32 559.53v93.21h27.79v-76.46a17.86 17.86 0 0 0 -1.27-5.59 19.08 19.08 0 0 0 -3.88-5.81 17.5 17.5 0 0 0 -5.82-3.93 18.27 18.27 0 0 0 -7.14-1.42z"></path><path d="m421.92 581.76v71h-27.63v-71.38c0-21.77 11.71-33.48 33.48-33.48h42.23v23.3h-37.52a9.48 9.48 0 0 0 -10.56 8.25 8.93 8.93 0 0 0 0 2.31"></path><path d="m818 571.2h40.75v-23.3h-40.75v-21.63h-27.52v93c0 21.77 11.72 33.49 33.42 33.49h37.56v-5.46a18 18 0 0 0 -1.38-6.72 19.08 19.08 0 0 0 -3.88-5.81 17.65 17.65 0 0 0 -5.82-3.93 18 18 0 0 0 -6.78-1.38h-15.08a9.92 9.92 0 0 1 -2.31 0 9.48 9.48 0 0 1 -8.21-10.58z"></path><path d="m577 570h-56.5a9.47 9.47 0 0 0 -10.5 8.28 9.92 9.92 0 0 0 0 2.31v9.69h77.6v-9.69a9.47 9.47 0 0 0 -10.53-10.59zm-67 50a9.41 9.41 0 0 0 8.2 10.5 9.24 9.24 0 0 0 2.35 0h93v22.14h-97.19c-21.78 0-33.48-11.71-33.48-33.48v-37.85c0-21.78 11.72-33.49 33.48-33.49h64.82c21.78 0 33.48 11.73 33.48 33.49v31.11h-104.66z"></path><path d="m780.68 652.74h-37.83l-44.13-50.07-30.39 23.01v27.06h-27.21v-143.47h27.21v87.61l62.65-48.98h40.23l-51.08 38.63z"></path><path d="m275 571.29-74.69-.08a9.49 9.49 0 0 0 -10.56 8.26 9.83 9.83 0 0 0 0 2.3v37.12a9.48 9.48 0 0 0 8.25 10.56 9.92 9.92 0 0 0 2.31 0h74.69zm-112.82 48v-37.89c0-21.78 11.72-33.48 33.48-33.48h79.32v-38.65h27.13v143.47h-106.5c-21.7 0-33.48-11.72-33.48-33.49"></path></g><path d="m832.34 714.52c33.49 0 29 32.66 29 32.66h-670c-33.49 0-29-32.66-29-32.66z" fill="#e00"></path></svg>