<svg version="1.1" id="Layer_1" xmlns:x="ns_extend;" xmlns:i="ns_ai;" xmlns:graph="ns_graphs;" xmlns="http://www.w3.org/2000/svg" xmlns:xlink="http://www.w3.org/1999/xlink" x="0px" y="0px" viewBox="0 0 78.7 88" style="enable-background:new 0 0 78.7 88;" xml:space="preserve">
 <style type="text/css">
  .st0{fill:#FFFFFF;}
	.st1{fill-rule:evenodd;clip-rule:evenodd;fill:#464646;}
	.st2{fill-rule:evenodd;clip-rule:evenodd;fill:url(#SVGID_1_);}
 </style>
 <metadata>
  <sfw xmlns="ns_sfw;">
   <slices>
   </slices>
   <sliceSourceBounds bottomLeftOrigin="true" height="88" width="78.7" x="300.1" y="0.7">
   </sliceSourceBounds>
  </sfw>
 </metadata>
 <g>
  <path class="st0" d="M2.5,16.1h73.5v42.9H2.5L2.5,16.1z">
  </path>
  <g>
   <path class="st1" d="M42.7,81.1c0.1,0,0.2,0.1,0.2,0.2v3.7c0,0.1-0.1,0.2-0.2,0.2h0c-0.1,0-0.2-0.1-0.2-0.1l-2.5-3.3v3.2
			c0,0.1-0.1,0.2-0.2,0.2c-0.1,0-0.2-0.1-0.2-0.2v-3.7c0-0.1,0.1-0.2,0.2-0.2h0.1c0.1,0,0.2,0.1,0.2,0.1l2.5,3.2v-3.1
			C42.5,81.2,42.6,81.1,42.7,81.1L42.7,81.1z M61.3,81.2c0.5,0,0.9,0.2,1.2,0.4c0.2,0.2,0.3,0.5,0.3,0.8v0c0,0.7-0.5,1.1-1.1,1.2
			l1,1.3c0,0.1,0.1,0.1,0.1,0.2c0,0.1-0.1,0.2-0.2,0.2c-0.1,0-0.2-0.1-0.2-0.1l-1.1-1.5H60V85c0,0.1-0.1,0.2-0.2,0.2
			c-0.1,0-0.2-0.1-0.2-0.2v-3.7c0-0.1,0.1-0.2,0.2-0.2L61.3,81.2L61.3,81.2z M56.7,81.3l1.7,3.6c0,0,0,0.1,0,0.1
			c0,0.1-0.1,0.2-0.2,0.2c-0.1,0-0.2-0.1-0.2-0.2l-0.4-0.9h-2.2l-0.4,1c0,0.1-0.1,0.2-0.2,0.2c-0.1,0-0.2-0.1-0.2-0.2
			c0,0,0-0.1,0-0.1l1.7-3.6c0.1-0.1,0.1-0.2,0.3-0.2h0C56.5,81.1,56.6,81.2,56.7,81.3L56.7,81.3z M52.3,81.2c0.9,0,1.5,0.5,1.5,1.3
			v0c0,0.9-0.7,1.3-1.6,1.3h-1V85c0,0.1-0.1,0.2-0.2,0.2c-0.1,0-0.2-0.1-0.2-0.2v-3.7c0-0.1,0.1-0.2,0.2-0.2L52.3,81.2L52.3,81.2z
			 M68.6,83.1c0.5,0.1,0.9,0.4,0.9,1v0c0,0.7-0.6,1.1-1.5,1.1h-1.6c-0.1,0-0.2-0.1-0.2-0.2v-3.6c0-0.1,0.1-0.2,0.2-0.2h1.5
			c0.5,0,0.8,0.1,1.1,0.4c0.2,0.2,0.3,0.4,0.3,0.7v0C69.2,82.7,68.9,83,68.6,83.1L68.6,83.1z M72.7,81.3l1.7,3.6c0,0,0,0.1,0,0.1
			c0,0.1-0.1,0.2-0.2,0.2c-0.1,0-0.2-0.1-0.2-0.2l-0.4-0.9h-2.2l-0.4,1c0,0.1-0.1,0.2-0.2,0.2c-0.1,0-0.2-0.1-0.2-0.2
			c0,0,0-0.1,0-0.1l1.7-3.6c0.1-0.1,0.1-0.2,0.3-0.2h0C72.6,81.1,72.7,81.2,72.7,81.3z M64.4,81.1c0.1,0,0.2,0.1,0.2,0.2v3.7
			c0,0.1-0.1,0.2-0.2,0.2c-0.1,0-0.2-0.1-0.2-0.2v-3.7C64.2,81.2,64.3,81.1,64.4,81.1L64.4,81.1z M46,81.2c0.9,0,1.5,0.5,1.5,1.3v0
			c0,0.9-0.7,1.3-1.6,1.3h-1V85c0,0.1-0.1,0.2-0.2,0.2c-0.1,0-0.2-0.1-0.2-0.2v-3.7c0-0.1,0.1-0.2,0.2-0.2L46,81.2L46,81.2z
			 M77.1,83c0.9,0.2,1.3,0.5,1.3,1.2v0c0,0.7-0.6,1.2-1.4,1.2c-0.6,0-1.1-0.2-1.5-0.6c-0.1,0-0.1-0.1-0.1-0.2c0-0.1,0.1-0.2,0.2-0.2
			c0.1,0,0.1,0,0.1,0.1c0.4,0.3,0.8,0.5,1.3,0.5c0.5,0,0.9-0.3,0.9-0.7v0c0-0.4-0.2-0.6-1.1-0.8c-0.9-0.2-1.4-0.5-1.4-1.2v0
			c0-0.6,0.6-1.1,1.3-1.1c0.5,0,0.9,0.1,1.3,0.4c0,0,0.1,0.1,0.1,0.2c0,0.1-0.1,0.2-0.2,0.2c-0.1,0-0.1,0-0.1,0
			c-0.3-0.3-0.7-0.4-1.1-0.4c-0.5,0-0.9,0.3-0.9,0.7v0C76,82.6,76.2,82.8,77.1,83L77.1,83z M37.3,83.1c0.5,0.1,0.9,0.4,0.9,1v0
			c0,0.7-0.6,1.1-1.5,1.1h-1.6c-0.1,0-0.2-0.1-0.2-0.2v-3.6c0-0.1,0.1-0.2,0.2-0.2h1.5c0.5,0,0.8,0.1,1.1,0.4
			c0.2,0.2,0.3,0.4,0.3,0.7v0C38,82.7,37.7,83,37.3,83.1L37.3,83.1z M26.5,82.2c0.7,0,1.4,0.6,1.4,1.6v0c0,1-0.7,1.6-1.4,1.6
			c-0.6,0-0.9-0.3-1.2-0.6v0.4c0,0.1-0.1,0.2-0.2,0.2c-0.1,0-0.2-0.1-0.2-0.2v-3.9c0-0.1,0.1-0.2,0.2-0.2c0.1,0,0.2,0.1,0.2,0.2v1.7
			C25.6,82.5,25.9,82.2,26.5,82.2L26.5,82.2z M31.4,82.2c0.1,0,0.2,0.1,0.2,0.2c0,0,0,0.1,0,0.1l-1.2,2.8c-0.3,0.6-0.6,0.9-1,0.9
			c-0.2,0-0.3,0-0.5-0.1c-0.1,0-0.1-0.1-0.1-0.2c0-0.1,0.1-0.2,0.2-0.2c0,0,0.1,0,0.1,0c0.1,0,0.2,0.1,0.3,0.1
			c0.3,0,0.4-0.2,0.6-0.5l0,0l-1.3-2.7c0,0,0-0.1,0-0.1c0-0.1,0.1-0.2,0.2-0.2c0.1,0,0.2,0.1,0.2,0.2l1,2.4l0.9-2.4
			C31.2,82.3,31.3,82.2,31.4,82.2L31.4,82.2z M62.3,82.4L62.3,82.4c0-0.5-0.4-0.8-1-0.8H60v1.7h1.2C61.9,83.2,62.3,82.9,62.3,82.4
			L62.3,82.4z M55.4,83.7h1.9l-0.9-2.1L55.4,83.7z M53.4,82.5L53.4,82.5c0-0.6-0.4-0.9-1.1-0.9h-1v1.8h1
			C52.9,83.4,53.4,83,53.4,82.5L53.4,82.5z M69,84.1L69,84.1c0-0.5-0.4-0.7-1.1-0.7h-1.3v1.4H68C68.6,84.8,69,84.6,69,84.1L69,84.1z
			 M66.6,81.6V83h1.2c0.6,0,0.9-0.3,0.9-0.7v0c0-0.4-0.3-0.7-0.9-0.7H66.6L66.6,81.6z M71.5,83.7h1.9l-0.9-2.1L71.5,83.7z M47,82.5
			L47,82.5c0-0.6-0.4-0.9-1.1-0.9h-1v1.8h1C46.6,83.4,47,83,47,82.5L47,82.5z M37.7,84.1L37.7,84.1c0-0.5-0.4-0.7-1.1-0.7h-1.3v1.4
			h1.4C37.4,84.8,37.8,84.6,37.7,84.1L37.7,84.1z M35.4,81.6V83h1.2c0.6,0,0.9-0.3,0.9-0.7v0c0-0.4-0.3-0.7-0.9-0.7L35.4,81.6
			L35.4,81.6z M27.5,83.7L27.5,83.7c0-0.7-0.5-1.2-1.1-1.2c-0.6,0-1.1,0.5-1.1,1.2v0c0,0.7,0.5,1.2,1.1,1.2
			C27,84.9,27.5,84.5,27.5,83.7L27.5,83.7z">
   </path>
   <linearGradient id="SVGID_1_" gradientUnits="userSpaceOnUse" x1="-185.2304" y1="-5.4667" x2="-185.2304" y2="-32.0905" gradientTransform="matrix(2.9545 0 0 -3.3053 586.5931 -18.0692)">
    <stop offset="0" style="stop-color:#4DBED3">
    </stop>
    <stop offset="1" style="stop-color:#007EA5">
    </stop>
   </linearGradient>
   <path class="st2" d="M22.6,49.8c-1.5,0-2.7,0.9-2.7,2c0,1.2,1.1,1.8,2.2,1.8c0.7,0,2.9-0.2,2.9-2.5v-0.8l0,0
			C24.3,50,23.5,49.8,22.6,49.8L22.6,49.8z M24.1,28.2L24.1,28.2c0-2-1.3-3.7-3.1-3.7c-1.8,0-3,1.6-3,3.6v0c0,2,1.3,3.6,3,3.6
			C22.9,31.7,24.1,30.1,24.1,28.2z M70.4,34.1c-1.5,0-3.1-0.6-4.3-1.7l1-1.7c1.1,0.9,2.3,1.4,3.3,1.4c1,0,1.6-0.5,1.6-1.3
			c0-0.9-1.1-1.2-2.3-1.6c-1.5-0.5-3.2-1.2-3.2-3.3c0-2.1,1.6-3.4,3.6-3.4c1.3,0,2.7,0.5,3.8,1.3l-0.9,1.8c-1-0.7-2-1.1-2.9-1.1
			c-0.9,0-1.4,0.5-1.4,1.1c0,0.8,1.1,1.2,2.3,1.6c1.5,0.5,3.2,1.3,3.2,3.3C74.2,32.9,72.6,34.1,70.4,34.1L70.4,34.1z M65.7,25.1
			c-0.3-0.2-0.7-0.2-1.2-0.2c-1.6,0-2.6,1.8-2.6,4.2v4.8h-2.2V22.7h2.2v2.1l0.3-0.4c0.9-1.3,1.9-2,3.3-2c0.1,0,0.2,0,0.3,0V25.1
			L65.7,25.1z M59.7,51.5h2.2V39.9h-2.2L59.7,51.5L59.7,51.5z M59.7,55.2h2.2v-2h-2.2L59.7,55.2L59.7,55.2z M58.3,28.1
			c0,3.2-2.3,5.8-5.4,5.8c-3,0-5.3-2.6-5.3-5.8v0c0-3.2,2.3-5.9,5.3-5.9C56.1,22.2,58.3,24.9,58.3,28.1L58.3,28.1L58.3,28.1z
			 M49.8,55.2l-3.4-4.9L44.8,52v3.2h-2.3V39.9h2.3v9.2l4.7-5.1h3l-4.5,4.8l4.6,6.4L49.8,55.2L49.8,55.2z M39.6,55.2h-2.2v-6.4
			c0-2-1-3.1-2.6-3.1c-1.7,0-2.7,1.2-2.7,3.1v6.4h-2.2V44h2.2v2.3l0.4-0.6c0.9-1.3,2-2,3.4-2c2.4,0,3.8,1.6,3.8,4.3L39.6,55.2
			L39.6,55.2z M29.9,33.9h-2.2V22.7h2.2v2.3l0.4-0.6c0.9-1.3,2-2,3.4-2c2.4,0,3.8,1.6,3.8,4.3v7.2h-2.2v-6.4c0-2-1-3.1-2.6-3.1
			c-1.7,0-2.7,1.2-2.7,3.1L29.9,33.9L29.9,33.9z M27.3,51.3c0,0.9-0.3,2.3-1.8,3.3c-1,0.7-2.4,0.8-3.8,0.8l0,0h-0.2l0.2,0
			c-2,0-3.8-1.2-3.8-3.4c0-2.4,1.6-3.9,4.2-3.9c1.3,0,2.1,0.2,2.9,0.5v-0.3c0-1.6-0.9-2.4-2.6-2.4c-1.2,0-2.2,0.4-3,0.7l-0.6-1.9
			c1.1-0.5,2.3-0.9,4-0.9c2.8,0,4.5,1.8,4.5,4.7L27.3,51.3L27.3,51.3z M15.8,28.2L15.8,28.2c0-3.2,2.3-5.9,5.3-5.9s5.3,2.6,5.3,5.8
			v0c0,3.2-2.3,5.8-5.4,5.8C18,34,15.8,31.3,15.8,28.2L15.8,28.2z M10.9,55.4c-2.7,0-4.4-1-5.8-3V39.9h2.2V45l0.2-0.1
			c0.4-0.2,1.7-1,3.4-1c3.2,0,5.4,2.3,5.4,5.8C16.3,53.6,13.6,55.4,10.9,55.4L10.9,55.4z M11.3,18.6c1.3,0,2.1,0,4.2,1l-1,2.4
			c-0.8-0.5-1.7-0.9-3-0.9c-2.9,0-5.3,2.3-5.3,5.2c0,3.6,2.7,5.5,5.3,5.5c1.3,0,2.2-0.3,3-0.8l0.9,2.3c-1.2,0.6-1.9,0.9-4,0.9
			c-3.1,0-7.6-2.4-7.6-8C3.8,21.6,8,18.6,11.3,18.6L11.3,18.6z M42.2,29.3C40.7,28.8,39,28.1,39,26c0-2.1,1.6-3.4,3.6-3.4
			c1.3,0,2.7,0.5,3.8,1.3l-0.9,1.8c-1-0.7-2-1.1-2.9-1.1c-0.9,0-1.4,0.5-1.4,1.1c0,0.8,1.1,1.2,2.3,1.6c1.5,0.5,3.2,1.3,3.2,3.3
			c0,2.4-1.7,3.6-3.8,3.6c-1.5,0-3.1-0.6-4.3-1.7l1-1.7c1.1,0.9,2.3,1.4,3.3,1.4c1,0,1.6-0.5,1.6-1.3C44.5,30,43.4,29.7,42.2,29.3
			L42.2,29.3z M75,0H3.3C1.2,0,0,1.6,0,3.4v68.7c0,1.8,1.2,3.4,3.3,3.4h5.5c0.3,0.3,10.6,11.9,10.8,12.3c0.3,0.4,0.9,0.3,0.9-0.2
			V75.5H75c2.1,0,3.7-1.5,3.7-3.4V3.4C78.7,1.5,77.1,0,75,0L75,0z M10.7,45.9c-1.8,0-3,1.2-3.4,1.5V52c1,0.9,1.9,1.4,3.3,1.4
			c2.1,0,3.5-1.4,3.5-3.7C14.1,47.4,12.8,45.9,10.7,45.9L10.7,45.9z M53,24.5c-1.8,0-3,1.6-3,3.6v0c0,2,1.3,3.6,3,3.6
			c1.9,0,3-1.6,3-3.6v0C56,26.1,54.8,24.5,53,24.5L53,24.5z">
   </path>
  </g>
 </g>
</svg>