<svg id="ekfYgtB4vAM1" xmlns="http://www.w3.org/2000/svg" xmlns:xlink="http://www.w3.org/1999/xlink" viewBox="0 0 300 300" shape-rendering="geometricPrecision" text-rendering="geometricPrecision" project-id="169a27414de84e7fac98fb26309ce006" export-id="81036c6a6f444f90ba6f5a6b629433d2" cached="false"><rect width="300" height="300" rx="0" ry="0" fill="#fff" stroke-width="0"/><rect width="100.422195" height="300" rx="0" ry="0" transform="translate(.000001 0)" stroke-width="0"/><rect width="100.422195" height="300" rx="0" ry="0" transform="translate(99.788903 0)" fill="#bf000f" stroke-width="0"/><rect width="100.422195" height="300" rx="0" ry="0" transform="translate(199.577805 0)" fill="#0c7834" stroke-width="0"/><ellipse rx="34.740652" ry="48.854041" transform="matrix(.739585 0 0 0.674074 150 137.153197)" fill="#fff" fill-opacity="0.55" stroke-width="0"/><polygon points="-12.534177, 28.129215 -11.532817, 33.776138 -16.510652, 46.161116 -22.171859, 54.481399 -30.034253, 62.783689 -38.140783, 67.552235 -39.89996, 62.589331 -38.874532, 55.835795 -34.000167, 48.152404 -31.241317, 43.049007 -28.409228, 37.960948 -26.258701, 31.561739 -23.839167, 25.813406 -16.807306, 22.837198 -12.534177, 28.129215" transform="matrix(-.50702 0.861934 -.861934 -.50702 143.52223 205.79468)" fill="#d2dbed" fill-opacity="0.7" stroke-width="0"/><polygon points="-12.534177, 28.129215 -11.532817, 33.776138 -16.510652, 46.161116 -22.171859, 54.481399 -30.034253, 62.783689 -38.140783, 67.552235 -39.89996, 62.589331 -38.874532, 55.835795 -34.000167, 48.152404 -31.241317, 43.049007 -28.409228, 37.960948 -26.258701, 31.561739 -24.317044, 24.03986 -16.807306, 22.837198 -12.534177, 28.129215" transform="matrix(.522387 0.914896 0.767458 -.438203 159.666199 204.866343)" fill="#d2dbed" fill-opacity="0.7" stroke-width="0"/></svg>
