<svg id="eqijHUcOP9e1" xmlns="http://www.w3.org/2000/svg" xmlns:xlink="http://www.w3.org/1999/xlink" viewBox="0 0 300 300" shape-rendering="geometricPrecision" text-rendering="geometricPrecision" project-id="169a27414de84e7fac98fb26309ce006" export-id="5c6340dcfd7e48839058330525a97997" cached="false"><rect width="300" height="300" rx="0" ry="0" fill="#fff" stroke-width="0"/><rect width="100.422195" height="300" rx="0" ry="0" transform="matrix(2.987387 0 0 1 0.000022 0)" fill="#e60012" stroke-width="0"/><polygon points="69.221055,43.569576 94.550626,52.197517 81.502059,52.197517 89.177686,73.689274 75.361557,58.845928 69.221055,73.689274 69.177535,52.197517 49.979856,36.607235 15.491663,36.607235 20.066572,58.845928 -0.000002,87.505404 -0.000002,89.040529 -0.000002,87.505404 -0.000001,87.505404 -0.000001,89.808092 -0.000001,87.505404 -0.000002,-14.580441 -0.000002,-38.374886 9.313029,-64.472019 9.313029,-95.717192 44.429911,-101.505689 27.83622,-88.266464 37.750983,-88.266464 27.83622,-81.3584 49.979855,-81.3584 27.83622,-72.949103 20.066572,-52.958578 20.066572,-33.001947 32.378043,-46.818076 49.979856,-52.958578 101.45869,-64.472019 49.979855,-38.374886 101.45869,-38.374886 49.979855,-20.720943 101.45869,-20.720943 49.979856,-1.902805 101.45869,-1.902805 49.979855,12.284255 49.979855,24.429577 69.221055,43.569576" transform="translate(150.000002 157.067815)" stroke-width="0"/><polygon points="69.221055,43.569576 94.550626,52.197517 81.502059,52.197517 89.177686,73.689274 75.361557,58.845928 69.221055,73.689274 69.177535,52.197517 49.979856,36.607235 15.491663,36.607235 20.066572,58.845928 -0.000002,87.505404 -0.000002,89.040529 -0.000002,87.505404 -0.000001,87.505404 -0.000001,89.808092 -0.000001,87.505404 -0.000002,-14.580441 -0.000002,-38.374886 9.313029,-64.472019 9.313029,-95.717192 44.429911,-101.505689 27.83622,-88.266464 37.750983,-88.266464 27.83622,-81.3584 49.979855,-81.3584 27.83622,-72.949103 20.066572,-52.958578 20.066572,-33.001947 32.378043,-46.818076 49.979856,-52.958578 101.45869,-64.472019 49.979855,-38.374886 101.45869,-38.374886 49.979855,-20.720943 101.45869,-20.720943 49.979856,-1.902805 101.45869,-1.902805 49.979855,12.284255 49.979855,24.429577 69.221055,43.569576" transform="matrix(-.989128 0 0 1 150.000002 157.067815)" stroke-width="0"/></svg>
