<svg id="eV8M5TjtOBJ1" xmlns="http://www.w3.org/2000/svg" xmlns:xlink="http://www.w3.org/1999/xlink" viewBox="0 0 300 300" shape-rendering="geometricPrecision" text-rendering="geometricPrecision" project-id="169a27414de84e7fac98fb26309ce006" export-id="432d5d934951459ebe6023a0f7aaf2b1" cached="false"><rect width="300" height="150" rx="0" ry="0" fill="#ca0000" stroke-width="0"/><rect width="300" height="150" rx="0" ry="0" transform="translate(0 150)" stroke-width="0"/><polygon points="0,-23.171741 6.810004,-9.373166 22.037635,-7.160462 11.018817,3.580231 13.620007,18.746332 0,11.58587 -13.620007,18.746332 -11.018817,3.580231 -22.037635,-7.160462 -6.810004,-9.373166 0,-23.171741" transform="translate(152.648975 113.205066)" fill="#f1f300" stroke-width="0"/><polygon points="17.94229,-15.6147 86.734116,15.880575 110.04059,68.624756 83.834562,59.982594 71.876801,30.755107 18.50714,7.41412 -32.988278,49.439981 -39.033868,91.254284 -60.856975,107.387018 -48.2776,34.268498 17.94229,-15.6147" transform="matrix(-.70635 0.703216-.705533-.708678 202.080264 163.467699)" fill="#f1f300" stroke-width="0"/><polygon points="-30.300201,-42.152505 2.958267,-39.931316 -6.859943,-2.194076 4.534292,-3.395417 -5.901907,93.080454 -14.794122,120.048896 -33.240556,131.171917 -31.30206,-0.380222 -19.445138,-4.225134 -19.445138,-4.225133 -30.300201,-42.152505" transform="matrix(-.668467 0.743741-.743741-.668467 184.282553 231.357934)" fill="#f1f300" stroke="#000"/></svg>
