<svg id="eqbnCtpO7ST1" xmlns="http://www.w3.org/2000/svg" xmlns:xlink="http://www.w3.org/1999/xlink" viewBox="0 0 300 300" shape-rendering="geometricPrecision" text-rendering="geometricPrecision" project-id="169a27414de84e7fac98fb26309ce006" export-id="ca2b0465cbd1434e849d083dfe4cb4ce" cached="false"><rect width="300" height="99.502488" rx="0" ry="0" fill="#729aec" stroke="#729aec"/><path d="M0,300v-100h300v100h-300Z" fill="#729aec" stroke="#729aec"/><rect width="300" height="100" rx="0" ry="0" transform="translate(0 100)" fill="#efeff4" stroke="#f2f2f6"/><polygon points="0,-31.032329 9.120173,-12.552841 29.513499,-9.589517 14.756749,4.794759 18.240345,25.105681 0,15.516164 -18.240345,25.105681 -14.756749,4.794759 -29.513499,-9.589517 -9.120173,-12.552841 0,-31.032329" transform="matrix(.997323 0.073117 -.073117 0.997323 149.78333 152.955392)" fill="#e7ef00" stroke-width="0"/><polygon points="0,-31.032329 9.120173,-12.552841 29.513499,-9.589517 14.756749,4.794759 18.240345,25.105681 0,15.516164 -18.240345,25.105681 -14.756749,4.794759 -29.513499,-9.589517 -9.120173,-12.552841 0,-31.032329" transform="matrix(.762738 0.646708 -.646708 0.762738 148.083596 152.26024)" fill="#e7ef00" stroke-width="0"/></svg>
