<svg id="eupdBekF63x1" xmlns="http://www.w3.org/2000/svg" xmlns:xlink="http://www.w3.org/1999/xlink" viewBox="0 0 300 300" shape-rendering="geometricPrecision" text-rendering="geometricPrecision" project-id="169a27414de84e7fac98fb26309ce006" export-id="ef748b433758442a95cecfc22520eb98" cached="false"><rect width="150" height="150" rx="0" ry="0" fill="#0011b6" stroke-width="0"/><rect width="150" height="30.342454" rx="0" ry="0" transform="matrix(1 0.997048 -.706061 0.708151 10.711808 -10.589908)" fill="#fff" stroke-width="0"/><rect width="150" height="29.280648" rx="0" ry="0" transform="matrix(.424211 0.422959 -.192909 0.19348 94.238364 82.901749)" fill="#d10000" stroke-width="0"/><rect width="150" height="29.280648" rx="0" ry="0" transform="matrix(.449311 0.447984 -.192909 0.19348 -2.065584 -2.288152)" fill="#d10000" stroke-width="0"/><rect width="150" height="30.342454" rx="0" ry="0" transform="matrix(1 -1.016272 0.71279 0.701377 -10.813905 140.511877)" fill="#fff" stroke-width="0"/><rect width="150" height="26.054134" rx="0" ry="0" transform="matrix(.47444 -.48216 0.218864 0.21536 -1.846876 152.010765)" fill="#d10000" stroke-width="0"/><rect width="150" height="14.298149" rx="0" ry="0" transform="matrix(.39495 -.401376 0.398815 0.39243 85.711809 54.149994)" fill="#d10000" stroke-width="0"/><rect width="149.999996" height="301.288153" rx="0" ry="0" transform="translate(150.000004 -1.288152)" fill="#0011b6" stroke-width="0"/><rect width="262.171723" height="150.000001" rx="0" ry="0" transform="translate(-.000005 150.000001)" fill="#0011b6" stroke-width="0"/><rect width="150" height="30.342454" rx="0" ry="0" transform="translate(0 59.761013)" fill="#fff" stroke-width="0"/><rect width="30.342454" height="150" rx="0" ry="0" transform="translate(59.850177 0)" fill="#fff" stroke-width="0"/><rect width="30.342454" height="150" rx="0" ry="0" transform="matrix(.70465 0 0 1 64.330999 0)" fill="#d10000" stroke-width="0"/><rect width="150" height="30.342454" rx="0" ry="0" transform="matrix(1 0 0 0.701378 0 64.291475)" fill="#d10000" stroke-width="0"/><g transform="translate(.000001 -3)"><polygon points="0, -34.874515 10.249363, -14.107038 33.167635, -10.776818 16.583818,5.388409 20.498726,28.214076 0,17.437258 -20.498726,28.214076 -16.583818,5.388409 -33.167635, -10.776818 -10.249363, -14.107038 0, -34.874515" transform="translate(75.021404 228.330221)" fill="#fff" stroke-width="0"/><polygon points="0, -34.874515 10.249363, -14.107038 33.167635, -10.776818 16.583818,5.388409 20.498726,28.214076 0,17.437258 -20.498726,28.214076 -16.583818,5.388409 -33.167635, -10.776818 -10.249363, -14.107038 0, -34.874515" transform="matrix(.793205 0.608955 -.608955 0.793205 75.021404 228.330221)" fill="#fff" stroke-width="0"/></g><g transform="matrix(.339942 0 0 0.332457 198.807691 -20.881781)"><polygon points="0, -34.874515 10.249363, -14.107038 33.167635, -10.776818 16.583818,5.388409 20.498726,28.214076 0,17.437258 -20.498726,28.214076 -16.583818,5.388409 -33.167635, -10.776818 -10.249363, -14.107038 0, -34.874515" transform="translate(75.021404 228.330221)" fill="#fff" stroke-width="0"/><polygon points="0, -34.874515 10.249363, -14.107038 33.167635, -10.776818 16.583818,5.388409 20.498726,28.214076 0,17.437258 -20.498726,28.214076 -16.583818,5.388409 -33.167635, -10.776818 -10.249363, -14.107038 0, -34.874515" transform="matrix(.793205 0.608955 -.608955 0.793205 75.021404 228.330221)" fill="#fff" stroke-width="0"/></g><g transform="matrix(.339942 0 0 0.332457 152.812094 31.394759)"><polygon points="0, -34.874515 10.249363, -14.107038 33.167635, -10.776818 16.583818,5.388409 20.498726,28.214076 0,17.437258 -20.498726,28.214076 -16.583818,5.388409 -33.167635, -10.776818 -10.249363, -14.107038 0, -34.874515" transform="translate(75.021404 228.330221)" fill="#fff" stroke-width="0"/><polygon points="0, -34.874515 10.249363, -14.107038 33.167635, -10.776818 16.583818,5.388409 20.498726,28.214076 0,17.437258 -20.498726,28.214076 -16.583818,5.388409 -33.167635, -10.776818 -10.249363, -14.107038 0, -34.874515" transform="matrix(.793205 0.608955 -.608955 0.793205 75.021404 228.330221)" fill="#fff" stroke-width="0"/></g><g transform="matrix(.339942 0 0 0.332457 251.452816 13.535183)"><polygon points="0, -34.874515 10.249363, -14.107038 33.167635, -10.776818 16.583818,5.388409 20.498726,28.214076 0,17.437258 -20.498726,28.214076 -16.583818,5.388409 -33.167635, -10.776818 -10.249363, -14.107038 0, -34.874515" transform="translate(75.021404 228.330221)" fill="#fff" stroke-width="0"/><polygon points="0, -34.874515 10.249363, -14.107038 33.167635, -10.776818 16.583818,5.388409 20.498726,28.214076 0,17.437258 -20.498726,28.214076 -16.583818,5.388409 -33.167635, -10.776818 -10.249363, -14.107038 0, -34.874515" transform="matrix(.793205 0.608955 -.608955 0.793205 75.021404 228.330221)" fill="#fff" stroke-width="0"/></g><g transform="matrix(.339942 0 0 0.332457 205.337659 110.602539)"><polygon points="0, -34.874515 10.249363, -14.107038 33.167635, -10.776818 16.583818,5.388409 20.498726,28.214076 0,17.437258 -20.498726,28.214076 -16.583818,5.388409 -33.167635, -10.776818 -10.249363, -14.107038 0, -34.874515" transform="translate(75.021404 228.330221)" fill="#fff" stroke-width="0"/><polygon points="0, -34.874515 10.249363, -14.107038 33.167635, -10.776818 16.583818,5.388409 20.498726,28.214076 0,17.437258 -20.498726,28.214076 -16.583818,5.388409 -33.167635, -10.776818 -10.249363, -14.107038 0, -34.874515" transform="matrix(.793205 0.608955 -.608955 0.793205 75.021404 228.330221)" fill="#fff" stroke-width="0"/></g><polygon points="-1.521271, -10.536988 1.105373, -4.940934 6.978729, -4.043565 2.728729,0.312354 3.732018,6.463012 -1.521271,3.559066 -6.77456,6.463012 -5.771271,0.312354 -10.021271, -4.043565 -4.147915, -4.940934 -1.521271, -10.536988" transform="translate(248.081206 126.385772)" fill="#fff" stroke-width="0"/></svg>
