<svg id="eFrCSg9upPD1" xmlns="http://www.w3.org/2000/svg" xmlns:xlink="http://www.w3.org/1999/xlink" viewBox="0 0 300 300" shape-rendering="geometricPrecision" text-rendering="geometricPrecision" project-id="169a27414de84e7fac98fb26309ce006" export-id="59f30225ec764377af0c3e1471420b71" cached="false"><rect width="300" height="99.502488" rx="0" ry="0" fill="#219bfb" stroke="#219bfb"/><path d="M0, 300v-100h300v100h-300Z" fill="#00871b" stroke="#00871b"/><rect width="300" height="100" rx="0" ry="0" transform="translate(0 100)" fill="#fa3737" stroke="#ff4545"/><ellipse rx="49.926006" ry="46.148788" transform="translate(150 150)" fill="#fff" stroke-width="0"/><ellipse rx="49.926006" ry="46.148788" transform="matrix(.814763 0 0 0.801661 161.4874 150)" fill="#fa3737" stroke-width="0"/><g transform="translate(3.000001 0)"><polygon points="0, -17.506726 5.145098, -7.081619 16.649886, -5.409876 8.324943, 2.704938 10.290195, 14.163239 0, 8.753363 -10.290195, 14.163239 -8.324943, 2.704938 -16.649886, -5.409876 -5.145098, -7.081619 0, -17.506726" transform="translate(195.035836 151.671744)" fill="#fff" stroke-width="0"/><polygon points="0, -17.506726 5.145098, -7.081619 16.649886, -5.409876 8.324943, 2.704938 10.290195, 14.163239 0, 8.753363 -10.290195, 14.163239 -8.324943, 2.704938 -16.649886, -5.409876 -5.145098, -7.081619 0, -17.506726" transform="matrix(.846546 0.532315 -.532315 0.846546 195.035836 151.671744)" fill="#fff" stroke-width="0"/></g></svg>
