<svg id="eJFweV4HOdN1" xmlns="http://www.w3.org/2000/svg" xmlns:xlink="http://www.w3.org/1999/xlink" viewBox="0 0 300 300" shape-rendering="geometricPrecision" text-rendering="geometricPrecision" project-id="169a27414de84e7fac98fb26309ce006" export-id="c1f756faa26d456884c8f8f21c05ebd1" cached="false"><rect width="300" height="300" rx="0" ry="0" transform="matrix(1.002424 0 0 1.002858 -.727174 -.857436)" fill="#171880" stroke-width="0"/><polygon points="0, -17.204911 5.056396, -6.959533 16.362842, -5.31661 8.181421, 2.658305 10.112793, 13.919065 0, 8.602455 -10.112793, 13.919065 -8.181421, 2.658305 -16.362842, -5.31661 -5.056396, -6.959533 0, -17.204911" transform="matrix(-.740724 0.671809 -.671809 -.740724 37.029175 63.122887)" fill="#fff" stroke-width="0"/><polygon points="0, -17.204911 5.056396, -6.959533 16.362842, -5.31661 8.181421, 2.658305 10.112793, 13.919065 0, 8.602455 -10.112793, 13.919065 -8.181421, 2.658305 -16.362842, -5.31661 -5.056396, -6.959533 0, -17.204911" transform="matrix(-.740724 0.671809 -.671809 -.740724 57.938555 86.177164)" fill="#fff" stroke-width="0"/><polygon points="0, -17.204911 5.056396, -6.959533 16.362842, -5.31661 8.181421, 2.658305 10.112793, 13.919065 0, 8.602455 -10.112793, 13.919065 -8.181421, 2.658305 -16.362842, -5.31661 -5.056396, -6.959533 0, -17.204911" transform="matrix(-.740724 0.671809 -.671809 -.740724 80.513596 109.231441)" fill="#fff" stroke-width="0"/><polygon points="0, -17.204911 5.056396, -6.959533 16.362842, -5.31661 8.181421, 2.658305 10.112793, 13.919065 0, 8.602455 -10.112793, 13.919065 -8.181421, 2.658305 -16.362842, -5.31661 -5.056396, -6.959533 0, -17.204911" transform="matrix(-.740724 0.671809 -.671809 -.740724 101.422976 132.285718)" fill="#fff" stroke-width="0"/><polygon points="0, -17.204911 5.056396, -6.959533 16.362842, -5.31661 8.181421, 2.658305 10.112793, 13.919065 0, 8.602455 -10.112793, 13.919065 -8.181421, 2.658305 -16.362842, -5.31661 -5.056396, -6.959533 0, -17.204911" transform="matrix(-.740724 0.671809 -.671809 -.740724 122.332356 155.339995)" fill="#fff" stroke-width="0"/><polygon points="0, -17.204911 5.056396, -6.959533 16.362842, -5.31661 8.181421, 2.658305 10.112793, 13.919065 0, 8.602455 -10.112793, 13.919065 -8.181421, 2.658305 -16.362842, -5.31661 -5.056396, -6.959533 0, -17.204911" transform="matrix(-.740724 0.671809 -.671809 -.740724 143.241736 178.394272)" fill="#fff" stroke-width="0"/><polygon points="0, -17.204911 5.056396, -6.959533 16.362842, -5.31661 8.181421, 2.658305 10.112793, 13.919065 0, 8.602455 -10.112793, 13.919065 -8.181421, 2.658305 -16.362842, -5.31661 -5.056396, -6.959533 0, -17.204911" transform="matrix(-.740724 0.671809 -.671809 -.740724 164.151116 201.448549)" fill="#fff" stroke-width="0"/><polygon points="0, -17.204911 5.056396, -6.959533 16.362842, -5.31661 8.181421, 2.658305 10.112793, 13.919065 0, 8.602455 -10.112793, 13.919065 -8.181421, 2.658305 -16.362842, -5.31661 -5.056396, -6.959533 0, -17.204911" transform="matrix(-.740724 0.671809 -.671809 -.740724 185.060496 224.502826)" fill="#fff" stroke-width="0"/><polygon points="0, -17.204911 5.056396, -6.959533 16.362842, -5.31661 8.181421, 2.658305 10.112793, 13.919065 0, 8.602455 -10.112793, 13.919065 -8.181421, 2.658305 -16.362842, -5.31661 -5.056396, -6.959533 0, -17.204911" transform="matrix(-.740724 0.671809 -.671809 -.740724 205.969876 247.557103)" fill="#fff" stroke-width="0"/><polygon points="0, -17.204911 5.056396, -6.959533 16.362842, -5.31661 8.181421, 2.658305 10.112793, 13.919065 0, 8.602455 -10.112793, 13.919065 -8.181421, 2.658305 -16.362842, -5.31661 -5.056396, -6.959533 0, -17.204911" transform="matrix(-.740724 0.671809 -.671809 -.740724 226.879256 270.61138)" fill="#fff" stroke-width="0"/><polygon points="0, -17.204911 5.056396, -6.959533 16.362842, -5.31661 8.181421, 2.658305 10.112793, 13.919065 0, 8.602455 -10.112793, 13.919065 -8.181421, 2.658305 -16.362842, -5.31661 -5.056396, -6.959533 0, -17.204911" transform="matrix(-.740724 0.671809 -.671809 -.740724 247.788636 293.665657)" fill="#fff" stroke-width="0"/><polygon points="0, -17.204911 5.056396, -6.959533 16.362842, -5.31661 8.181421, 2.658305 10.112793, 13.919065 0, 8.602455 -10.112793, 13.919065 -8.181421, 2.658305 -16.362842, -5.31661 -5.056396, -6.959533 0, -17.204911" transform="matrix(-.740724 0.671809 -.671809 -.740724 16.119795 40.068609)" fill="#fff" stroke-width="0"/><polygon points="-79.195494, -160.844731 202.408881, -262.48071 202.988114, -262.689765 12.670305, 93.689203 12.670304, 93.689205 0, 77.803417 -91.463402, 125.888573 -73.995447, 24.042578 -147.990894, -48.085156 -45.731701, -62.944287 -79.195494, -160.844731" transform="matrix(-.339483 0.940612 -.940612 -.339483 100.861047 19.888111)" fill="#cad10a" stroke-width="0"/></svg>
