<svg id="eD5WXkqUyo21" xmlns="http://www.w3.org/2000/svg" xmlns:xlink="http://www.w3.org/1999/xlink" viewBox="0 0 300 300" shape-rendering="geometricPrecision" text-rendering="geometricPrecision" project-id="169a27414de84e7fac98fb26309ce006" export-id="a193c148d67f40b8a81795daaca26258" cached="false"><rect width="100.422195" height="300" rx="0" ry="0" transform="translate(.000001 0)" fill="#171880" stroke-width="0"/><rect width="100.422195" height="300" rx="0" ry="0" transform="translate(199.577806 0)" fill="#171880" stroke-width="0"/><rect width="99.15561" height="300" rx="0" ry="0" transform="translate(100.422196 0)" fill="#ffda01" stroke-width="0"/><polygon points="0,-82.585331 22.524732,-3.582547 49.473433,-82.654424 39.271659,12.760135 5.40807,12.697732 0,41.292666 -5.649597,12.713179 -39.271659,12.760135 -49.682085,-82.515941 -20.600148,-3.522316 0,-82.585331" transform="matrix(.999999 0.001397-.001397 0.999999 149.988986 171.324896)" fill="#010102" stroke-width="0"/><rect width="38.148964" height="60.264306" rx="0" ry="0" transform="matrix(.991789-.127886 0.127886 0.991789 108.557537 116.27802)" fill="#ffda01" stroke-width="0"/><rect width="38.148964" height="60.264306" rx="0" ry="0" transform="matrix(.974023 0.113449-.115693 0.993285 154.73282 111.81708)" fill="#ffda01" stroke-width="0"/><rect width="7.33957" height="57.562682" rx="0" ry="0" transform="matrix(.899882 0 0 1.16951 147.128075 111.399295)" stroke-width="0"/></svg>
