<svg id="eBS4KQJ8DoW1" xmlns="http://www.w3.org/2000/svg" xmlns:xlink="http://www.w3.org/1999/xlink" viewBox="0 0 300 300" shape-rendering="geometricPrecision" text-rendering="geometricPrecision" project-id="169a27414de84e7fac98fb26309ce006" export-id="233561dd6ca743bf9160e8b5ddd3ddac" cached="false"><rect width="300" height="299.430232" rx="0" ry="0" transform="translate(0 0.569768)" fill="#fff" stroke-width="0"/><rect width="219.475877" height="300" rx="0" ry="0" transform="matrix(.938171 0 0 1 94.094139 0.099222)" fill="#c80d0d" stroke-width="0"/><polygon points="82.331872, -22.29589 82.331865, -22.295898 87.923671,31.096423 49.156498,0.869907 53.508411,53.443997 12.489804,24.679449 20.770292,74.702516 -24.521026,47.089092 219.898412, -111.624824 82.331867, -22.295904 82.331872, -22.29589" transform="matrix(-.544605 0.838692 -.838692 -.544605 121.233169 217.293591)" fill="#c80d0d" stroke-width="0"/><polygon points="82.331872, -22.29589 82.331865, -22.295898 87.923671,31.096423 49.156498,0.869907 53.508411,53.443997 12.489804,24.679449 20.770292,74.702516 -24.521026,47.089092 219.898412, -111.624824 82.331867, -22.295904 82.331872, -22.29589" transform="matrix(-.544605 0.838692 -.838692 -.544605 121.233169 89.601802)" fill="#c80d0d" stroke-width="0"/><polygon points="86.477932, -23.36479 86.477932, -23.364789 94.758419,26.658278 49.156498,0.869907 53.508411,53.443997 12.489804,24.679449 20.770292,74.702516 -24.521026,47.089092 219.898412, -111.624824 87.162181, -23.809107 86.477932, -23.36479" transform="matrix(-.544605 0.838692 -.838692 -.544605 120.233175 -40.677598)" fill="#c80d0d" stroke-width="0"/></svg>
