<svg id="ew3pu6O9mAQ1" xmlns="http://www.w3.org/2000/svg" xmlns:xlink="http://www.w3.org/1999/xlink" viewBox="0 0 300 300" shape-rendering="geometricPrecision" text-rendering="geometricPrecision" project-id="169a27414de84e7fac98fb26309ce006" export-id="637d82a0cd1f4053a4adf0a7beb1bd6a" cached="false"><rect width="300.00004" height="300.000005" rx="0" ry="0" transform="translate(-.000001 -.000004)" fill="#fff" stroke-width="0"/><polygon points="98.496395, -107.040194 44.109686, -19.549619 44.109689, -19.54962 44.109686, -19.549619 44.109689, -19.549617 44.109682, -19.549621 -33.678018,105.585577 -74.153171, -66.589719 -74.153171, -66.589719 98.496395, -107.040194 98.496395, -107.040194" transform="matrix(-.849282 0.527939 -.527939 -.849282 27.14058 131.422783)" fill="#39b312" stroke-width="0"/><polygon points="73.916779, -7.186366 73.916772, -7.18636 73.916776, -7.18636 73.916771, -7.18636 -97.830793,54.656298 -97.830788,54.656301 -97.830833,54.656276 11.830121, -178.373124 11.840984, -178.396317 73.916772, -7.186362 73.916779, -7.186366" transform="matrix(-.904819 0.425797 -.425797 -.904819 234.753363 110.852018)" fill="#39b312" stroke-width="0"/><polygon points="-99.272026, -142.937051 -99.272028, -142.937045 68.920049, -83.335893 68.920047, -83.335894 9.426933,85.373877 9.426933,85.373877 9.426928,85.37388 9.426925,85.373881 -99.272033, -142.937048 -99.27203, -142.937046 -99.272026, -142.937051" transform="matrix(-.429867 0.902892 -.902892 -.429867 102.615321 28.187945)" fill="#e62a32" stroke-width="0"/><polygon points="-98.510147, -146.524511 -98.510146, -146.524517 72.377995, -84.95741 72.377996, -84.957412 10.723192,86.419816 10.723189,86.419814 10.723189,86.419814 10.628858,86.464046 -98.604481, -146.480277 -98.628579, -146.531663 -98.510147, -146.524511" transform="matrix(.424564 -.905398 0.905398 0.424564 194.44175 272.913867)" fill="#e62a32" stroke-width="0"/><ellipse rx="80.6608" ry="80.094996" transform="translate(148.866534 148.661006)" fill="#fff" stroke-width="0"/><polygon points="0, -19.567319 5.750691, -7.915147 18.609626, -6.046634 9.304813,3.023317 11.501381,15.830294 0,9.783659 -11.501381,15.830294 -9.304813,3.023317 -18.609626, -6.046634 -5.750691, -7.915147 0, -19.567319" transform="translate(149.599588 107.572325)" fill="#e62a32" stroke-width="0"/><polygon points="0, -19.567319 5.750691, -7.915147 18.609626, -6.046634 9.304813,3.023317 11.501381,15.830294 0,9.783659 -11.501381,15.830294 -9.304813,3.023317 -18.609626, -6.046634 -5.750691, -7.915147 0, -19.567319" transform="matrix(.80672 0.590934 -.590934 0.80672 149.599588 107.572325)" fill="#e62a32" stroke-width="0"/><polygon points="0, -19.567319 5.750691, -7.915147 18.609626, -6.046634 9.304813,3.023317 11.501381,15.830294 0,9.783659 -11.501381,15.830294 -9.304813,3.023317 -18.609626, -6.046634 -5.750691, -7.915147 0, -19.567319" transform="translate(112.380336 169.567319)" fill="#e62a32" stroke-width="0"/><polygon points="0, -19.567319 5.750691, -7.915147 18.609626, -6.046634 9.304813,3.023317 11.501381,15.830294 0,9.783659 -11.501381,15.830294 -9.304813,3.023317 -18.609626, -6.046634 -5.750691, -7.915147 0, -19.567319" transform="matrix(.821194 0.570649 -.570649 0.821194 112.380336 169.567319)" fill="#e62a32" stroke-width="0"/><polygon points="0, -19.567319 5.750691, -7.915147 18.609626, -6.046634 9.304813,3.023317 11.501381,15.830294 0,9.783659 -11.501381,15.830294 -9.304813,3.023317 -18.609626, -6.046634 -5.750691, -7.915147 0, -19.567319" transform="translate(186.81884 169.567319)" fill="#e62a32" stroke-width="0"/><polygon points="0, -19.567319 5.750691, -7.915147 18.609626, -6.046634 9.304813,3.023317 11.501381,15.830294 0,9.783659 -11.501381,15.830294 -9.304813,3.023317 -18.609626, -6.046634 -5.750691, -7.915147 0, -19.567319" transform="matrix(.822257 0.569116 -.569116 0.822257 186.81884 169.567319)" fill="#e62a32" stroke-width="0"/></svg>
