<svg id="eeuk4rht0Ea1" xmlns="http://www.w3.org/2000/svg" xmlns:xlink="http://www.w3.org/1999/xlink" viewBox="0 0 300 300" shape-rendering="geometricPrecision" text-rendering="geometricPrecision" project-id="169a27414de84e7fac98fb26309ce006" export-id="98a812e5c8594b0b95a36c782df4bea0" cached="false"><g transform="matrix(1.001225 0 0 1.014827 0.000006 -3.707694)"><rect width="262.172" height="150" rx="0" ry="0" transform="matrix(.990134 0 0 -.995138 -.000005 150)" fill="#0011b6" stroke-width="0"/><rect width="150" height="301.288" rx="0" ry="0" transform="matrix(1.997552 0 0 0.987632 0.000003 1.708785)" fill="#df0000" stroke-width="0"/><g transform="translate(-6.51386 -31.7219)"><ellipse rx="37.9976" ry="29.9635" transform="translate(232.747 198.309)" fill="#fcfdff" stroke-width="0"/><rect width="75.9952" height="61.6854" rx="0" ry="0" transform="translate(194.749 136.624)" fill="#fcfdff" stroke-width="0"/></g><g transform="matrix(1.02037 0 0 0.980658 2.025547 2.55881)"><rect width="150" height="150" rx="0" ry="0" transform="matrix(1.006592 0 0 1.002777 -2.027289 -.931215)" fill="#0011b6" stroke-width="0"/><rect width="150" height="30.3425" rx="0" ry="0" transform="matrix(.846004 0.843506 -.706061 0.708151 19.396363 -1.93099)" fill="#fff" stroke-width="0"/><polygon points="-2.920263, -13.50851 16.208058, -5.631541 23.761265,12.778298 -5.066385,22.170693 -11.452248,7.210075 -2.920263, -13.50851" transform="matrix(-.924667 0.380778 -.380778 -.924667 141.117532 138.106369)" fill="#fff" stroke-width="0"/><polygon points="-7.504041, -2.37761 -3.697633, -11.620794 -3.213792, -12.795704 3.382062,2.895637 -4.560389,4.74044 -7.504041, -2.37761" transform="matrix(-.924667 0.380778 -.380778 -.924667 141.117532 138.106369)" fill="#d10000" stroke-width="0"/><rect width="150" height="29.2806" rx="0" ry="0" transform="matrix(.366263 0.365182 -.192909 0.19348 94.2384 82.9017)" fill="#d10000" stroke-width="0"/><rect width="150" height="30.3425" rx="0" ry="0" transform="matrix(.848442 -.862246 0.71279 0.701377 0.237339 129.280959)" fill="#fff" stroke-width="0"/><polygon points="0, -14.859997 25.777455, -4.399204 34.853063,17.70242 18.883937,24.286913 15.304842,23.288951 0, -14.859997" transform="matrix(-.380171 0.924916 -.924916 -.380171 27.596123 123.979045)" fill="#fff" stroke-width="0"/><rect width="150" height="26.0541" rx="0" ry="0" transform="matrix(.466171 -.473757 0.218864 0.21536 -.81363 150.960932)" fill="#d10000" stroke-width="0"/><polygon points="14.836981,4.788689 14.929843,5.406486 14.787083,6.683958 -1.980828,18.799212 -14.861526,0.971783 14.836981,4.788689" transform="matrix(-.810562 -.585653 0.585653 -.810562 136.346219 13.14664)" fill="#fff" stroke-width="0"/><polygon points="-15.657749,2.10188 -15.71718,2.145852 13.494757,7.182072 -2.985886,19.352456 -15.714699,2.144016 -15.657749,2.10188" transform="matrix(-.594795 0.803877 -.803877 -.594795 11.753761 12.979812)" fill="#fff" stroke-width="0"/><rect width="150" height="14.2981" rx="0" ry="0" transform="matrix(.415842 -.438587 0.406024 0.384967 82.595704 57.436532)" fill="#d10000" stroke-width="0"/><rect width="150" height="29.2806" rx="0" ry="0" transform="matrix(.383862 0.382729 -.192909 0.19348 5.095203 4.149576)" fill="#d10000" stroke-width="0"/><polygon points="0, -5.9085 5.897477, -1.648628 5.809812,8.449854 -0.877285,15.013566 -2.272657,13.590411 -2.231007, -5.350518 0, -5.9085" transform="matrix(-.699035 0.715087 -.715087 -.699035 8.076393 10.194108)" fill="#d10000" stroke-width="0"/><rect width="150" height="30.3425" rx="0" ry="0" transform="matrix(1.00652 0 0 1 -2.016502 59.761)" fill="#fff" stroke-width="0"/><rect width="30.3425" height="150" rx="0" ry="0" transform="matrix(1 0 0 1.002756 59.8502 -.928135)" fill="#fff" stroke-width="0"/><rect width="30.3425" height="150" rx="0" ry="0" transform="matrix(.70465 0 0 1.00279 64.330985 -.928188)" fill="#d10000" stroke-width="0"/><rect width="150" height="30.3425" rx="0" ry="0" transform="matrix(1.006592 0 0 0.701378 -2.027252 64.291496)" fill="#d10000" stroke-width="0"/></g><rect width="75.9952" height="18.4251" rx="0" ry="0" transform="translate(188.235 104.902101)" fill="#fcfdff" stroke-width="0"/><polygon points="4.298105, -53.876332 11.143213, -56.718042 4.584249, -41.946784 4.285437, -31.58595 4.478648, -19.304164 6.422565, -11.209055 7.798285, -4.340865 2.013042, -6.300896 -2.318952, -10.762278 -0.474257, -49.613211 4.298105, -53.876332" transform="matrix(.047975 0.998849 -.998849 0.047975 199.381125 132.193119)" fill="#df0000" stroke-width="0"/><polygon points="6.263456, -21.38961 12.718972, -21.079552 11.918895, -13.821313 12.006879, -8.551478 12.735549,1.568931 6.593172,1.273912 0.363141,0.974685 -4.246368, -1.239873 -8.281862, -9.852366 -1.299663, -21.752869 6.263456, -21.38961" transform="matrix(.047975 0.998849 -.998849 0.047975 217.114941 118.097123)" fill="#df0000" stroke-width="0"/><polygon points="-7.436187, -63.19608 2.833673, -60.641756 11.931343, -51.424428 16.469286, -43.207047 27.175043, -24.542043 12.402392,0.387234 12.40239,0.387239 2.423962,8.701761 -7.562084,12.37495 -10.099199, -7.75163 -5.658592, -27.256031 -7.436187, -63.19608" transform="matrix(.047975 0.998849 -.998849 0.047975 201.464 178.182)" fill="#0a8702" stroke-width="0"/><polygon points="-7.231802, -61.48856 0.057126, -61.138466 6.159029, -54.153666 15.45669, -31.35956 15.381266, -29.787681 4.454055, -11.303603 -0.050866, -6.694816 -7.736306, -7.063948 -5.651524, -30.797895 -5.622417, -51.075509 -7.231802, -61.48856" transform="matrix(.047975 0.998849 -.998849 0.047975 195.741293 164.168631)" fill="#fff" stroke="#000"/><polygon points="-10.526942, -59.191608 10.577345, -59.410978 12.118656, -47.580615 12.376466, -33.276667 11.753434, -20.304988 10.051079, -4.533231 3.78365, -4.834257 -11.399014, -7.663078 -9.930863, -22.075588 -9.763533, -41.714146 -10.526942, -59.191608" transform="matrix(.047975 0.998849 -.998849 0.047975 197.304188 146.280318)" fill="#1b79dc" stroke-width="0"/></g><rect width="92.383419" height="29.037062" rx="0" ry="0" transform="translate(-.043088 147.999028)" fill="#df0000" stroke-width="0"/><polygon points="0, -6.954609 6.614226, -2.149092 4.087817,5.626397 -4.087817,5.626397 -6.614226, -2.149092 0, -6.954609" transform="matrix(.411536 0.911394 -.911394 0.411536 209.468996 174.56922)" fill="#df0000" stroke-width="0"/><polygon points="-1.197893, -8.094044 5.302107, -3.128486 2.819328,4.905956 -5.215114,4.905956 -7.697893, -3.128486 -1.197893, -8.094044" transform="matrix(.996636 0.081957 -.081957 0.996636 246.811616 175.982775)" fill="#df0000" stroke-width="0"/><polygon points="-1.197893, -8.094044 5.302107, -3.128486 2.819328,4.905956 -5.215114,4.905956 -7.697893, -3.128486 -1.197893, -8.094044" transform="matrix(.996636 0.081957 -.081957 0.996636 258.4787 146.593145)" fill="#df0000" stroke-width="0"/><polygon points="-1.197893, -8.094044 5.302107, -3.128486 2.819328,4.905956 -5.215114,4.905956 -7.697893, -3.128486 -1.197893, -8.094044" transform="matrix(.996636 0.081957 -.081957 0.996636 198.71435 149.013062)" fill="#df0000" stroke-width="0"/><polygon points="-6.739802, -19.346874 11.350782, -3.688093 7.136379,13.055116 2.267649,3.750747 -5.199803,7.881793 -9.673185,5.479799 -10.022875, -0.836595 -0.66274, -6.014685 -6.739802, -19.346874" transform="matrix(-.484072 0.875028 -.875028 -.484072 229.027771 150.926777)" fill="#7a3b00" stroke-width="0"/></svg>
