<svg id="er8lUK9f7Jg1" xmlns="http://www.w3.org/2000/svg" xmlns:xlink="http://www.w3.org/1999/xlink" viewBox="0 0 300 300" shape-rendering="geometricPrecision" text-rendering="geometricPrecision" project-id="169a27414de84e7fac98fb26309ce006" export-id="aaffb939a27f4efa9234529faab9a70e" cached="false"><rect width="100.422195" height="300" rx="0" ry="0" transform="matrix(2.987387 0 0 1 0.000022 0)" fill="#f3c902" stroke-width="0"/><rect width="299.999981" height="40.511079" rx="0" ry="0" transform="matrix(.912968 0.613659 -.557851 0.829941 24.354331 20.140329)" fill="#fff" stroke-width="0"/><rect width="299.999981" height="35" rx="0" ry="0" transform="matrix(.930726 0.625594 -.557851 0.829941 21.690718 66.349956)" fill="#040202" stroke-width="0"/><polygon points="31.055371, 18.361868 31.038006, 21.040312 -1.507675, 44.397902 -3.278788, 45.669 -3.928128, 19.436317 31.055371, 18.361868" transform="matrix(-.583066 0.812425 -.812425 -.583066 35.190899 80.873924)" fill="#040202"/><polygon points="31.055371, 18.361868 31.038006, 21.040312 -1.507675, 44.397902 -8.622675, 49.504244 -8.666778, 19.64813 31.055371, 18.361868" transform="matrix(-.583066 0.812425 -.812425 -.583066 35.263652 38.637593)" fill="#fff" stroke-width="0"/><polygon points="19.491752, -1.833162 11.515229, 25.915507 -26.73958, 14.948764 -26.739581, 14.948765 -26.327646, 12.971169 19.491752, -1.833162" transform="matrix(-.307452 0.951564 -.951564 -.307452 304.248385 234.278313)" fill="#fff" stroke-width="0"/><polygon points="13.059662, 0.245032 7.54376, 21.591196 -26.428562, 13.003775 -26.327647, 12.971169 -26.327646, 12.971169 13.059662, 0.245032" transform="matrix(-.307452 0.951564 -.951564 -.307452 304.248385 282.536058)" fill="#040202" stroke-width="0"/><polygon points="-4.750745, -30 4.105454, -14.189097 5.559224, -24.716638 7.559224, -9.000006 13.295909, 15.713059 -12.539687, 15.713059 -4.750745, -9.000006 -14.789943, -30 -12.852441, -31.000006 -10.227441, -30.000006 -9.414941, -31.000006 -8.352441, -30 -7.352441, -31.000006 -4.750745, -30.000006 -4.750745, -30" transform="translate(89.762337 200.000012)" fill="#bd030a" stroke-width="0"/><polygon points="-4.750745, -30 4.105454, -14.189097 5.559224, -24.716638 7.559224, -9.000006 13.295909, 15.713059 -12.539687, 15.713059 -4.750745, -9.000006 -14.789943, -30 -12.852441, -31.000006 -10.227441, -30.000006 -9.414941, -31.000006 -8.352441, -30 -7.352441, -31.000006 -4.750745, -30.000006 -4.750745, -30" transform="matrix(-.898983 0 0 1 206.295179 207.83257)" fill="#bd030a" stroke-width="0"/><polygon points="1.44184, -50.057281 38.667007, -49.673963 58.455572, -18.993367 58.08276, 21.525805 36.12753, 49.72528 0.395696, 51.536657 27.117625, 39.646109 46.123652, 19.709271 46.52345, -19.116236 31.016594, -37.780092 1.44184, -50.057281" transform="matrix(.010297 0.999947 -.999947 0.010297 149.973842 152.308855)" fill="#bd030a" stroke-width="0"/><polygon points="43.330005, -66.553844 52.104415, -48.393953 58.515363, -24.800028 50.167572, -13.34203 58.343682, -8.127585 58.225328, 3.365938 58.225327, 3.36594 58.225329, 3.365935 27.442819, 2.854396 28.440764, 3.059241 28.440763, 3.05924 21.549895, -7.574772 21.671374, -19.372145 31.016594, -37.780092 40.648614, -51.219512 43.330005, -66.553844" transform="matrix(.010297 0.999947 -.999947 0.010297 150.571671 83.79454)" fill="#bd030a" stroke-width="0"/><polygon points="43.330005, -66.553844 52.104415, -45.332449 58.515363, -17.760918 50.167572, -4.371262 58.343682, 1.722265 58.225328, 15.153436 58.225327, 15.153438 58.225329, 15.153432 27.442819, 14.555655 28.440764, 14.795034 28.440763, 14.795033 21.549895, 2.368275 21.671374, -11.41797 31.016594, -32.92924 40.648614, -48.634358 43.330005, -66.553844" transform="matrix(-.000108 1 0.848272 0.000092 136.473031 83.82288)" fill="#bd030a" stroke-width="0"/><rect width="10.061309" height="74.848009" rx="0" ry="0" transform="translate(142.774788 135.397893)" fill="#bd030a" stroke-width="0"/><rect width="2.408293" height="36.200297" rx="0" ry="0" transform="translate(147.427804 77.025933)" fill="#bd030a" stroke-width="0"/><polygon points="6.590432, -2.519699 2.03205, 1.153326 6.590432, 4.942823 -5.027244, 4.536896 -5.027244, -2.519699 6.590432, -2.519699" transform="translate(154.863341 80.479277)" fill="#bd030a" stroke-width="0"/><ellipse rx="1.658259" ry="0.387758" transform="translate(148.631951 77.025933)" fill="#bd030a" stroke-width="0"/><ellipse rx="5.903929" ry="1.016025" transform="translate(148.631951 89.3489)" fill="#bd030a" stroke-width="0"/><polygon points="0.662039, -2.880693 -0.30535, -1.290548 2.065915, -0.637459 0.94081, 0.700673 2.431281, 1.950183 1.237437, 2.697324 2.903194, 3.836334 -1.309746, 4.291422 -7.549043, -5.678253 -4.803971, -9.610911 -4.317118, -7.700883 -2.906896, -8.583435 -2.972782, -6.193391 -0.992157, -5.523903 -1.550563, -3.280256 0.662039, -2.880693" transform="matrix(-.530503 0.847683 -.847683 -.530503 145.717728 92.735762)" fill="#bd030a" stroke-width="0"/></svg>
