<svg id="eFaADlE24cJ1" xmlns="http://www.w3.org/2000/svg" xmlns:xlink="http://www.w3.org/1999/xlink" viewBox="0 0 300 300" shape-rendering="geometricPrecision" text-rendering="geometricPrecision" project-id="169a27414de84e7fac98fb26309ce006" export-id="74832b58c521414980b8a7a8e09e27da" cached="false"><rect width="300" height="99.847966" rx="0" ry="0" fill="#dc1d1d" stroke-width="0"/><rect width="300" height="100.137819" rx="0" ry="0" transform="translate(0 99.847967)" fill="#e1c105" stroke-width="0"/><rect width="300" height="100.014214" rx="0" ry="0" transform="translate(0 199.985786)" fill="#097716" stroke-width="0"/><polygon points="-56.731175, -19.511063 -17.923792, -42.602403 34.013556, -0.25349 19.276624, 42.464525 22.94196, 6.230277 11.978379, 26.770785 12.349545, -2.406614 -10.578175, -21.101524 -39.95897, -15.578127 -21.863147, -30.303114 -56.731175, -19.511063" transform="matrix(-.775019 0.631938 -.631938 -.775019 143.258577 156.129282)" fill="#dc1d1d" stroke-width="0"/><ellipse rx="20.410255" ry="23.599358" transform="translate(150 147.188883)" fill="#6092f8" stroke-width="0"/><ellipse rx="20.410255" ry="23.599358" transform="matrix(.72472 0 0 0.790459 150 147.188883)" fill="#f8af60" stroke-width="0"/><polygon points="4.522126, -20.910943 11.644743, -16.374181 15.350683, -8.069722 11.263957, 3.295813 -3.878498, 0.728119 -7.80715, -3.930734 -7.81183, -10.510139 -10.066074, -17.41508 -7.807147, -19.319954 4.522121, -20.91094 4.522126, -20.910943" transform="matrix(-.644655 0.764474 -.764474 -.644655 144.989206 146.385413)" fill="#096c14" stroke-width="0"/></svg>
