<svg id="eUTNkDl5FR11" xmlns="http://www.w3.org/2000/svg" xmlns:xlink="http://www.w3.org/1999/xlink" viewBox="0 0 300 300" shape-rendering="geometricPrecision" text-rendering="geometricPrecision" project-id="169a27414de84e7fac98fb26309ce006" export-id="35bb4d0f482746afbb9f7fb8ddbff4a6" cached="false"><rect width="300" height="300" rx="0" ry="0" transform="translate(.000028 0.000003)" fill="#0c8e02" stroke-width="0"/><rect width="190.349819" height="136.791315" rx="0" ry="0" transform="matrix(.701774 0.743615 -1.022293 0.964772 153.129116 13.24026)" fill="#ffec37" stroke-width="0"/><ellipse rx="68.033776" ry="63.704011" transform="matrix(.999984 0.005729 -.005729 0.999984 153.129116 151.893458)" fill="#0205cc" stroke-width="0"/><path d="M85.461443, 152.283252v-.779588c24.624814 -34.224005, 106.151642 -20.441152, 134.458984, 3.283643" transform="translate(1.000001 0)" fill="none" stroke="#fff" stroke-width="5"/><polygon points="0, -0.236547 0.069519, -0.095685 0.22497, -0.073097 0.112485, 0.036549 0.139039, 0.191371 0, 0.118274 -0.139039, 0.191371 -0.112485, 0.036549 -0.22497, -0.073097 -0.069519, -0.095685 0, -0.236547" transform="translate(165.289639 117.358439)" fill="#d2dbed" stroke-width="0"/><polygon points="0, -30 8.816779, -12.135255 28.531695, -9.27051 14.265848, 4.635255 17.633558, 24.27051 0, 15 -17.633558, 24.27051 -14.265848, 4.635255 -28.531695, -9.27051 -8.816779, -12.135255 0, -30" transform="matrix(.149638 0 0 0.185184 165.064669 117.121892)" fill="#fff" stroke-width="0"/><polygon points="0, -30 8.816779, -12.135255 28.531695, -9.27051 14.265848, 4.635255 17.633558, 24.27051 0, 15 -17.633558, 24.27051 -14.265848, 4.635255 -28.531695, -9.27051 -8.816779, -12.135255 0, -30" transform="matrix(.149638 0 0 0.185184 109.252336 160.342827)" fill="#fff" stroke-width="0"/><polygon points="0, -30 8.816779, -12.135255 28.531695, -9.27051 14.265848, 4.635255 17.633558, 24.27051 0, 15 -17.633558, 24.27051 -14.265848, 4.635255 -28.531695, -9.27051 -8.816779, -12.135255 0, -30" transform="matrix(.149638 0 0 0.185184 117.791188 170.392857)" fill="#fff" stroke-width="0"/><polygon points="0, -30 8.816779, -12.135255 28.531695, -9.27051 14.265848, 4.635255 17.633558, 24.27051 0, 15 -17.633558, 24.27051 -14.265848, 4.635255 -28.531695, -9.27051 -8.816779, -12.135255 0, -30" transform="matrix(.149638 0 0 0.185184 131.104221 157.448978)" fill="#fff" stroke-width="0"/><polygon points="0, -30 8.816779, -12.135255 28.531695, -9.27051 14.265848, 4.635255 17.633558, 24.27051 0, 15 -17.633558, 24.27051 -14.265848, 4.635255 -28.531695, -9.27051 -8.816779, -12.135255 0, -30" transform="matrix(.149638 0 0 0.185184 135.373647 175.417872)" fill="#fff" stroke-width="0"/><polygon points="0, -30 8.816779, -12.135255 28.531695, -9.27051 14.265848, 4.635255 17.633558, 24.27051 0, 15 -17.633558, 24.27051 -14.265848, 4.635255 -28.531695, -9.27051 -8.816779, -12.135255 0, -30" transform="matrix(.149638 0 0 0.185184 165.064669 180.442887)" fill="#fff" stroke-width="0"/><polygon points="0, -30 8.816779, -12.135255 28.531695, -9.27051 14.265848, 4.635255 17.633558, 24.27051 0, 15 -17.633558, 24.27051 -14.265848, 4.635255 -28.531695, -9.27051 -8.816779, -12.135255 0, -30" transform="matrix(.149638 0 0 0.185184 173.603521 170.392857)" fill="#fff" stroke-width="0"/><polygon points="0, -30 8.816779, -12.135255 28.531695, -9.27051 14.265848, 4.635255 17.633558, 24.27051 0, 15 -17.633558, 24.27051 -14.265848, 4.635255 -28.531695, -9.27051 -8.816779, -12.135255 0, -30" transform="matrix(.149638 0 0 0.185184 169.334095 160.342827)" fill="#fff" stroke-width="0"/><polygon points="0, -30 8.816779, -12.135255 28.531695, -9.27051 14.265848, 4.635255 17.633558, 24.27051 0, 15 -17.633558, 24.27051 -14.265848, 4.635255 -28.531695, -9.27051 -8.816779, -12.135255 0, -30" transform="matrix(.149638 0 0 0.185184 188.023546 157.448978)" fill="#fff" stroke-width="0"/><polygon points="0, -30 8.816779, -12.135255 28.531695, -9.27051 14.265848, 4.635255 17.633558, 24.27051 0, 15 -17.633558, 24.27051 -14.265848, 4.635255 -28.531695, -9.27051 -8.816779, -12.135255 0, -30" transform="matrix(.149638 0 0 0.185184 188.023546 170.392857)" fill="#fff" stroke-width="0"/><polygon points="0, -30 8.816779, -12.135255 28.531695, -9.27051 14.265848, 4.635255 17.633558, 24.27051 0, 15 -17.633558, 24.27051 -14.265848, 4.635255 -28.531695, -9.27051 -8.816779, -12.135255 0, -30" transform="matrix(.149638 0 0 0.185184 202.61668 167.499008)" fill="#fff" stroke-width="0"/></svg>
