<svg id="eJiICnGQbSm1" xmlns="http://www.w3.org/2000/svg" xmlns:xlink="http://www.w3.org/1999/xlink" viewBox="0 0 300 300" shape-rendering="geometricPrecision" text-rendering="geometricPrecision" project-id="169a27414de84e7fac98fb26309ce006" export-id="3455757fd241431e9837471477c7b092" cached="false"><rect width="100.422195" height="300" rx="0" ry="0" transform="matrix(2.987387 0 0 1 0.000022 0)" fill="#f3c902" stroke-width="0"/><polygon points="26.215057, -193.371155 214.132364,40.481497 214.132379,40.481512 -207.637618, -5.453821 -207.637625, -5.453819 26.215057, -193.371155" transform="matrix(-.626391 0.779509 -.779509 -.626391 165.686315 158.439158)" fill="#f37700" stroke-width="0"/><polygon points="63.712262, -12.022547 129.496701,11.563216 67.983149,22.340103 28.182201,8.05076 -13.289335,29.678589 -46.375968,11.054555 -66.215423, -4.597398 -96.518685,21.536564 -72.927452,57.469491 -100.315784,57.573007 -126.449853,36.118521 -146.497253,19.660819 -172.78655,23.901167 -161.841468,7.064149 -151.538353, -1.821404 -129.608037,2.922306 -131.12127, -24.713536 -104.665236,5.963186 -99.015081, -5.886535 -111.788201, -32.931994 -97.576174, -40.961315 -82.944209, -22.687998 -70.064046, -36.153723 -53.449387, -31.459473 -42.578341, -65.420595 -23.452474, -64.075836 -33.504578, -20.196405 -7.472388,1.020128 36.424753, -14.252989 28.067068, -34.972928 45.001559, -27.591115 49.497756, -48.111724 65.607783, -45.36221 63.712262, -12.022547" transform="matrix(-.65309 0.757281 -.757281 -.65309 132.892515 168.448251)" fill="#fff" stroke="#000"/><ellipse rx="13.605406" ry="11.604611" transform="translate(131.794334 244.5741)" fill="#fff" stroke="#070303"/><ellipse rx="10.003975" ry="10.029204" transform="translate(148.200853 218.884078)" fill="#fff" stroke="#070303"/><ellipse rx="13.335632" ry="13.605406" transform="translate(209.905976 189.752318)" fill="#fff" stroke="#070303"/><ellipse rx="10.0381" ry="11.204451" transform="translate(235.67091 115.723698)" fill="#fff" stroke="#070303"/></svg>
