<svg id="eQjTKtzIYxX1" xmlns="http://www.w3.org/2000/svg" xmlns:xlink="http://www.w3.org/1999/xlink" viewBox="0 0 300 300" shape-rendering="geometricPrecision" text-rendering="geometricPrecision" project-id="169a27414de84e7fac98fb26309ce006" export-id="bbb390892372417bae8e0de2f2f2a382" cached="false"><rect width="119.644309" height="300" rx="0" ry="0" transform="translate(90.177893 0)" fill="#fff" stroke-width="0"/><rect width="90.177799" height="300" rx="0" ry="0" transform="translate(.000001 0)" fill="#d5161c" stroke-width="0"/><rect width="90.177799" height="300" rx="0" ry="0" transform="translate(209.822201 0)" fill="#d5161c" stroke-width="0"/><polygon points="0, -73.315418 20.74762, -47.782489 34.863553, -54.421623 23.209222, -2.400954 52.020669, -17.606996 52.020669, -2.400954 73.629255, -2.400954 58.423213, 18.407313 73.629255, 26.410493 34.863553, 44.281071 41.616535, 62.424803 2.710141, 62.424803 6.402544, 89.635614 0, 88.835296 0, 3.201272 0, -73.315418" transform="matrix(.812479 0 0 0.758281 150.800318 141.69933)" fill="#d5161c" stroke-width="0"/><polygon points="0, -73.315418 20.74762, -47.782489 34.863553, -54.421623 23.209222, -2.400954 52.020669, -17.606996 52.020669, -2.400954 73.629255, -2.400954 58.423213, 18.407313 73.629255, 26.410493 34.863553, 44.281071 41.616535, 62.424803 2.758879, 62.424803 6.402544, 89.635614 0, 88.835296 0, 3.201272 0, -73.315418" transform="matrix(-.823347 0 0 0.758281 150.800318 141.69933)" fill="#d5161c" stroke-width="0"/></svg>
