<svg id="eSBC3aXz6FM1" xmlns="http://www.w3.org/2000/svg" xmlns:xlink="http://www.w3.org/1999/xlink" viewBox="0 0 300 300" shape-rendering="geometricPrecision" text-rendering="geometricPrecision" project-id="169a27414de84e7fac98fb26309ce006" export-id="5edb9a169af64c41b358aacb3d650e07" cached="false"><rect width="300" height="300" rx="0" ry="0" fill="#dd0008" stroke-width="0"/><polygon points="0,-16.607738 4.880892,-6.717971 15.794898,-5.132073 7.897449,2.566037 9.761784,13.435942 0,8.303869 -9.761784,13.435942 -7.897449,2.566037 -15.794898,-5.132073 -4.880892,-6.717971 0,-16.607738" transform="matrix(1.844391 0 0 1.951384 62.029785 88.51024)" fill="#e0e100" stroke-width="0"/><polygon points="0,-16.607738 4.880892,-6.717971 15.794898,-5.132073 7.897449,2.566037 9.761784,13.435942 0,8.303869 -9.761784,13.435942 -7.897449,2.566037 -15.794898,-5.132073 -4.880892,-6.717971 0,-16.607738" transform="matrix(.876079 0 0 0.975694 122.324844 32.249873)" fill="#e0e100" stroke-width="0"/><polygon points="0,-16.607738 4.880892,-6.717971 15.794898,-5.132073 7.897449,2.566037 9.761784,13.435942 0,8.303869 -9.761784,13.435942 -7.897449,2.566037 -15.794898,-5.132073 -4.880892,-6.717971 0,-16.607738" transform="matrix(.876079 0 0 0.975694 150 67.936451)" fill="#e0e100" stroke-width="0"/><polygon points="0,-16.607738 4.880892,-6.717971 15.794898,-5.132073 7.897449,2.566037 9.761784,13.435942 0,8.303869 -9.761784,13.435942 -7.897449,2.566037 -15.794898,-5.132073 -4.880892,-6.717971 0,-16.607738" transform="matrix(.876079 0 0 0.975694 150 116.276273)" fill="#e0e100" stroke-width="0"/><polygon points="0,-16.607738 4.880892,-6.717971 15.794898,-5.132073 7.897449,2.566037 9.761784,13.435942 0,8.303869 -9.761784,13.435942 -7.897449,2.566037 -15.794898,-5.132073 -4.880892,-6.717971 0,-16.607738" transform="matrix(.876079 0 0 0.975694 122.324843 151.547351)" fill="#e0e100" stroke-width="0"/></svg>
