<svg id="eOmMXFfn0aB1" xmlns="http://www.w3.org/2000/svg" xmlns:xlink="http://www.w3.org/1999/xlink" viewBox="0 0 300 300" shape-rendering="geometricPrecision" text-rendering="geometricPrecision" project-id="169a27414de84e7fac98fb26309ce006" export-id="d6b85bcbef27484bbae35df7bed90bb6" cached="false"><rect width="300" height="60" rx="0" ry="0" fill="#01308e" stroke-width="0"/><rect width="300" height="60" rx="0" ry="0" transform="translate(0 60)" fill="#fff" stroke-width="0"/><rect width="300" height="60" rx="0" ry="0" transform="translate(0 120)" fill="#01308e" stroke-width="0"/><rect width="300" height="60" rx="0" ry="0" transform="translate(0 180)" fill="#fff" stroke-width="0"/><rect width="300" height="60" rx="0" ry="0" transform="translate(0 240)" fill="#01308e" stroke-width="0"/><polygon points="-56.931702, -100.072292 -56.931702, -100.072292 -56.931702, -100.072292 -56.931702, -100.072292 58.263802, 49.927708 -56.931702, 199.927708 -56.931702, 199.927708 -56.931702, 199.927708 -56.931702, 199.927708 -56.931702, 199.927708 -56.931702, -100.072292" transform="translate(56.931702 100.072292)" fill="#d10000" stroke-width="0"/><polygon points="0, -38.791672 11.400586, -15.691561 36.893073, -11.987286 18.446536, 5.993643 22.801173, 31.383122 0, 19.395836 -22.801173, 31.383122 -18.446536, 5.993643 -36.893073, -11.987286 -11.400586, -15.691561 0, -38.791672" transform="matrix(-.769758 0.638336 -.638336 -.769758 46.735537 151.545234)" fill="#fff" stroke-width="0"/></svg>
