<svg id="ej0wm9tLlik1" xmlns="http://www.w3.org/2000/svg" xmlns:xlink="http://www.w3.org/1999/xlink" viewBox="0 0 300 300" shape-rendering="geometricPrecision" text-rendering="geometricPrecision" project-id="169a27414de84e7fac98fb26309ce006" export-id="e31f084b9f624771b9b1c68f751b5f22" cached="false"><rect width="300" height="300" rx="0" ry="0" fill="#01308e" stroke-width="0"/><rect width="300" height="93.222084" rx="0" ry="0" transform="matrix(1 0 0 0.796875 0 179.456723)" fill="#fff" stroke-width="0"/><rect width="300" height="46.611042" rx="0" ry="0" transform="matrix(1 0 0 0.8125 0 197.664161)" fill="#e10000" stroke-width="0"/><polygon points="0,-14.565951 4.280826,-5.892051 13.853043,-4.501126 6.926521,2.250563 8.561651,11.784102 0,7.282975 -8.561651,11.784102 -6.926521,2.250563 -13.853043,-4.501126 -4.280826,-5.892051 0,-14.565951" transform="translate(58.388297 180.847648)" fill="#efd900" stroke-width="0"/><polygon points="0,-14.565951 4.280826,-5.892051 13.853043,-4.501126 6.926521,2.250563 8.561651,11.784102 0,7.282975 -8.561651,11.784102 -6.926521,2.250563 -13.853043,-4.501126 -4.280826,-5.892051 0,-14.565951" transform="translate(86.094383 154.497595)" fill="#efd900" stroke-width="0"/><polygon points="0,-14.565951 4.280826,-5.892051 13.853043,-4.501126 6.926521,2.250563 8.561651,11.784102 0,7.282975 -8.561651,11.784102 -6.926521,2.250563 -13.853043,-4.501126 -4.280826,-5.892051 0,-14.565951" transform="translate(114.528766 144.235759)" fill="#efd900" stroke-width="0"/><polygon points="0,-14.565951 4.280826,-5.892051 13.853043,-4.501126 6.926521,2.250563 8.561651,11.784102 0,7.282975 -8.561651,11.784102 -6.926521,2.250563 -13.853043,-4.501126 -4.280826,-5.892051 0,-14.565951" transform="translate(144.419745 153.575817)" fill="#efd900" stroke-width="0"/><polygon points="0,-14.565951 4.280826,-5.892051 13.853043,-4.501126 6.926521,2.250563 8.561651,11.784102 0,7.282975 -8.561651,11.784102 -6.926521,2.250563 -13.853043,-4.501126 -4.280826,-5.892051 0,-14.565951" transform="translate(169.212641 177.740978)" fill="#efd900" stroke-width="0"/><polygon points="0,-14.565951 4.280826,-5.892051 13.853043,-4.501126 6.926521,2.250563 8.561651,11.784102 0,7.282975 -8.561651,11.784102 -6.926521,2.250563 -13.853043,-4.501126 -4.280826,-5.892051 0,-14.565951" transform="translate(175.767319 250.101584)" fill="#efd900" stroke-width="0"/><polygon points="0,-14.565951 4.280826,-5.892051 13.853043,-4.501126 6.926521,2.250563 8.561651,11.784102 0,7.282975 -8.561651,11.784102 -6.926521,2.250563 -13.853043,-4.501126 -4.280826,-5.892051 0,-14.565951" transform="translate(145.148043 270.625257)" fill="#efd900" stroke-width="0"/><polygon points="0,-14.565951 4.280826,-5.892051 13.853043,-4.501126 6.926521,2.250563 8.561651,11.784102 0,7.282975 -8.561651,11.784102 -6.926521,2.250563 -13.853043,-4.501126 -4.280826,-5.892051 0,-14.565951" transform="translate(116.713659 283.734613)" fill="#efd900" stroke-width="0"/><polygon points="0,-14.565951 4.280826,-5.892051 13.853043,-4.501126 6.926521,2.250563 8.561651,11.784102 0,7.282975 -8.561651,11.784102 -6.926521,2.250563 -13.853043,-4.501126 -4.280826,-5.892051 0,-14.565951" transform="translate(86.094383 270.559587)" fill="#efd900" stroke-width="0"/><polygon points="0,-14.565951 4.280826,-5.892051 13.853043,-4.501126 6.926521,2.250563 8.561651,11.784102 0,7.282975 -8.561651,11.784102 -6.926521,2.250563 -13.853043,-4.501126 -4.280826,-5.892051 0,-14.565951" transform="translate(58.388297 250.101584)" fill="#efd900" stroke-width="0"/></svg>
