<svg id="eMkcqeKAyJi1" xmlns="http://www.w3.org/2000/svg" xmlns:xlink="http://www.w3.org/1999/xlink" viewBox="0 0 300 300" shape-rendering="geometricPrecision" text-rendering="geometricPrecision" project-id="169a27414de84e7fac98fb26309ce006" export-id="a4f45f8f8d2541078206a3ff05c8b8a2" cached="false"><rect width="300" height="150" rx="0" ry="0" fill="#31a9ed" stroke-width="0"/><rect width="300" height="150" rx="0" ry="0" transform="translate(0 150)" fill="#267e02" stroke-width="0"/><polygon points="170.41414,-105.054679 170.414143,-105.054685 170.414155,-105.054682 170.414154,-105.054673 54.396146,171.603635 54.396146,171.603635 54.396141,171.60363 54.396149,171.603635 54.396151,171.603634 -18.677874,-21.695827 170.41414,-105.054679" transform="matrix(-.922194 0.386727-.386727-.922194 115.79923 137.215465)" fill="#f6f6f6" stroke-width="0"/><polygon points="0,-34.129113 10.030295,-13.805516 32.458716,-10.546476 16.229358,5.273238 20.060589,27.611033 0,17.064557 -20.060589,27.611033 -16.229358,5.273238 -32.458716,-10.546476 -10.030295,-13.805516 0,-34.129113" transform="matrix(-.768221 0.640184-.640184-.768221 54.018511 147.496337)" fill="#e40008" stroke-width="0"/></svg>
