<svg id="e4LRq8Z7yHw1" xmlns="http://www.w3.org/2000/svg" xmlns:xlink="http://www.w3.org/1999/xlink" viewBox="0 0 300 300" shape-rendering="geometricPrecision" text-rendering="geometricPrecision" project-id="169a27414de84e7fac98fb26309ce006" export-id="9c693d37a11c4cbe8504f5c57249eb54" cached="false"><rect width="150" height="300" rx="0" ry="0" fill="#007008" stroke-width="0"/><rect width="150" height="300" rx="0" ry="0" transform="translate(150 0)" fill="#fff" stroke-width="0"/><ellipse rx="56.75953" ry="61.699551" transform="matrix(1.321364 0 0 1.215568 150 150)" fill="#d60606" stroke-width="0"/><ellipse rx="56.75953" ry="61.699551" transform="matrix(1.321364 0 0 1.215568 150 150)" fill="#d60606" stroke-width="0"/><ellipse rx="56.75953" ry="61.699551" transform="matrix(1.059045 0 0 1.01885 168.751725 150)" fill="#fff" stroke-width="0"/><polygon points="0,-41.230904 12.117459,-16.678251 39.21292,-12.74105 19.60646,6.370525 24.234917,33.356502 0,20.615452 -24.234917,33.356502 -19.60646,6.370525 -39.21292,-12.74105 -12.117459,-16.678251 0,-41.230904" transform="matrix(.885311 0.465-.465 0.885311 185.112073 153.485647)" fill="#d60606" stroke-width="0"/></svg>
