<svg id="e9QUmYxhdZD1" xmlns="http://www.w3.org/2000/svg" xmlns:xlink="http://www.w3.org/1999/xlink" viewBox="0 0 300 300" shape-rendering="geometricPrecision" text-rendering="geometricPrecision" project-id="169a27414de84e7fac98fb26309ce006" export-id="490687a70ece4a3b8590f587ea565745" cached="false"><rect width="300" height="300" rx="0" ry="0" fill="#fff" stroke-width="0"/><rect width="300" height="100.518916" rx="0" ry="0" fill="#c81d1d" stroke-width="0"/><rect width="300" height="100.518916" rx="0" ry="0" transform="translate(0 99.740542)" fill="#fff" stroke-width="0"/><rect width="300" height="100.518916" rx="0" ry="0" transform="translate(0 199.481084)" stroke-width="0"/><polygon points="0, -53.429685 14.760879, -32.855019 44.019997, -24.197559 50.81465, -16.510681 50.81465, 43.225517 14.760879, 25.314704 26.741922, 43.225517 -26.553431, 43.225517 -15.089833, 25.314704 -50.81465, 43.225517 -50.81465, -16.510681 -42.783149, -24.197559 -15.089833, -32.855019 -5.178898, -41.119472 -9.879429, -47.073478 -16.41415, -45.119472 -15.089833, -50.073478 0, -53.429685" transform="matrix(.755106 0 0 1 150 153.948601)" fill="#dda31d" stroke-width="0"/></svg>
