<svg id="exjC6FGJTtu1" xmlns="http://www.w3.org/2000/svg" xmlns:xlink="http://www.w3.org/1999/xlink" viewBox="0 0 300 300" shape-rendering="geometricPrecision" text-rendering="geometricPrecision" project-id="169a27414de84e7fac98fb26309ce006" export-id="951584ffc449438aa073cf031e678649" cached="false"><rect width="300" height="150" rx="0" ry="0" fill="#1b8c2e" stroke-width="0"/><rect width="300" height="150" rx="0" ry="0" transform="translate(0 150)" fill="#366bd5" stroke-width="0"/><polygon points="-123.701153,-150.207348 191.746701,-36.22199 191.746694,-36.221992 -25.620723,170.542143 -25.620723,170.542138 -123.701153,-150.207348" transform="matrix(-.689214 0.724558-.724558-.689214 105.90953 136.103693)" fill="#d80b13" stroke-width="0"/><ellipse rx="37.251187" ry="59.827664" transform="translate(67.598384 149.999998)" fill="none" stroke="#f69300" stroke-width="13"/><ellipse rx="37.251187" ry="59.827664" transform="matrix(1.517016 0 0 1.253601 67.598384 160.999998)" fill="none" stroke="#d80b13" stroke-width="13"/><polygon points="0,-69.660871 6.495312,-53.42272 12.990624,-60.760075 1.495312,-40.441245 6.495313,-35.941252 6.495313,-29.941252 14.990624,-28.115963 20.680585,-33.941252 20.680585,-30.816252 25.578628,-27.425276 20.680585,-23.675276 20.680585,-20.571959 14.990624,-24.196959 6.495313,-26.128752 6.495312,-22.783859 0,-11.147854 0,-6.19258 6.495313,-6.19258 12.990624,-7.643174 11.694562,-4.97296 14.990624,-2.897856 11.378034,-2.15425 11.694562,0.666017 6.495312,-2.897856 -0.000003,-2.897856 0,2.812666 0.716473,8.139695 7.495312,8.139695 20.680585,4.812666 14.990624,8.139695 20.680585,10.930349 13.443768,13.125764 16.990624,17.415448 7.495312,10.930349 1.495312,10.930349 1.495312,34.830435 0,34.830435 0,34.830435 -6.535043,34.830435 -6.535043,14.930349 -8.535043,2.812666 -15.535043,2.812666 -22.600444,4.812666 -19.911971,0.666017 -24.626315,-1.646138 -19.251315,-1.646132 -20.600444,-6.19258 -15.535043,-1.646138 -8.535043,-1.646138 -7.517974,-6.19258 -6.535043,-14.895514 -10.429919,-17.381148 -20.600444,-22.571959 -17.600444,-24.196959 -20.600444,-29.115963 -15.535043,-28.115963 -16.600444,-33.941252 -10.004222,-27.425276 -7.622439,-20.571959 -3.535043,-17.381148 0,-22.783859 1.495312,-34.941252 -3.535043,-40.441245 -15.600444,-60.760075 -8.535043,-53.42272 0,-69.660871" transform="translate(67.598384 168.643172)" fill="#f69300" stroke-width="0"/></svg>
