<svg id="ekUu52rtIf61" xmlns="http://www.w3.org/2000/svg" xmlns:xlink="http://www.w3.org/1999/xlink" viewBox="0 0 300 300" shape-rendering="geometricPrecision" text-rendering="geometricPrecision" project-id="169a27414de84e7fac98fb26309ce006" export-id="29c068552a03413a99fa959b4db13493" cached="false"><rect width="300" height="100.072292" rx="0" ry="0" fill="#087a03" stroke-width="0"/><rect width="300" height="99.776761" rx="0" ry="0" transform="translate(0 100.072293)" fill="#f1db08" stroke-width="0"/><rect width="300" height="100.150946" rx="0" ry="0" transform="translate(0 199.849054)" fill="#ea051e" stroke-width="0"/><ellipse rx="49.888381" ry="49.888381" transform="matrix(1.419146 0 0 1.364967 150 149.960674)" fill="#0e53dd" stroke-width="0"/><polygon points="0, -72.021531 19.672401, -22.255877 68.496546, -22.255877 29.405836,11.127938 42.333194,58.266642 0,29.228545 -42.333194,58.266642 -28.021436,11.127938 -68.496546, -22.255877 -20.72136, -21.396492 0, -72.021531" transform="matrix(.748243 0 0 0.762464 150 154.986117)" fill="#0e53dd" stroke="#f1db08" stroke-width="5"/><line x1="-6.190529" y1="20.39233" x2="0" y2="-8.73957" transform="translate(134.495388 145.955037)" fill="none" stroke="#f1db08" stroke-width="3"/><line x1="4.82638" y1="18.468294" x2="-2.456595" y2="-8.73957" transform="translate(167.176331 145.955037)" fill="none" stroke="#f1db08" stroke-width="3"/><line x1="-10.773058" y1="6.554678" x2="12.769712" y2="-7.50724" transform="translate(159.232998 170.978009)" fill="none" stroke="#f1db08" stroke-width="3"/><line x1="13.032463" y1="10.196166" x2="-10.586715" y2="-5.481777" transform="translate(138.891574 168.952546)" fill="none" stroke="#f1db08" stroke-width="3"/><line x1="-16.340472" y1="0.728298" x2="15.323727" y2="0.728298" transform="translate(150.83586 137.943764)" fill="none" stroke="#f1db08" stroke-width="3"/><line x1="7.165895" y1="-7.362691" x2="-15.482223" y2="5.746665" transform="translate(121.138964 171.309741)" fill="none" stroke="#f1db08" stroke-width="3"/><line x1="-0.163744" y1="-12.409479" x2="0.163743" y2="7.854143" transform="matrix(-.999997 0 0 1.055604 150.163744 191.558191)" fill="none" stroke="#f1db08" stroke-width="3"/><line x1="-10.637066" y1="-3.681345" x2="12.177126" y2="3.989357" transform="translate(184.210239 167.796664)" fill="none" stroke="#f1db08" stroke-width="3"/><line x1="7.209662" y1="11.121717" x2="-7.209662" y2="-11.121717" transform="translate(126.190462 127.550346)" fill="none" stroke="#f1db08" stroke-width="3"/><line x1="-7.301182" y1="10.393419" x2="7.301183" y2="-10.393419" transform="translate(172.020919 126.822048)" fill="none" stroke="#f1db08" stroke-width="3"/></svg>
