<svg id="eBfYAhpVQWP1" xmlns="http://www.w3.org/2000/svg" xmlns:xlink="http://www.w3.org/1999/xlink" viewBox="0 0 300 300" shape-rendering="geometricPrecision" text-rendering="geometricPrecision" project-id="169a27414de84e7fac98fb26309ce006" export-id="abacba321a144f6391898d263a52f32c" cached="false"><rect width="300" height="300" rx="0" ry="0" fill="#002e8a" stroke-width="0"/><g transform="translate(0 0.000017)"><polygon points="0, -17.624836 5.179809, -7.129396 16.762215, -5.446374 8.381107, 2.723187 10.359618, 14.258791 0, 8.812418 -10.359618, 14.258791 -8.381107, 2.723187 -16.762215, -5.446374 -5.179809, -7.129396 0, -17.624836" transform="translate(150 44.981875)" fill="#f4c700" stroke-width="0"/><polygon points="0, -17.624836 5.179809, -7.129396 16.762215, -5.446374 8.381107, 2.723187 10.359618, 14.258791 0, 8.812418 -10.359618, 14.258791 -8.381107, 2.723187 -16.762215, -5.446374 -5.179809, -7.129396 0, -17.624836" transform="translate(149.999992 258.38417)" fill="#f4c700" stroke-width="0"/><polygon points="0, -17.624836 5.179809, -7.129396 16.762215, -5.446374 8.381107, 2.723187 10.359618, 14.258791 0, 8.812418 -10.359618, 14.258791 -8.381107, 2.723187 -16.762215, -5.446374 -5.179809, -7.129396 0, -17.624836" transform="translate(256.259527 151.683023)" fill="#f4c700" stroke-width="0"/><polygon points="0, -17.624836 5.179809, -7.129396 16.762215, -5.446374 8.381107, 2.723187 10.359618, 14.258791 0, 8.812418 -10.359618, 14.258791 -8.381107, 2.723187 -16.762215, -5.446374 -5.179809, -7.129396 0, -17.624836" transform="translate(243.549708 98.422968)" fill="#f4c700" stroke-width="0"/><polygon points="0, -17.624836 5.179809, -7.129396 16.762215, -5.446374 8.381107, 2.723187 10.359618, 14.258791 0, 8.812418 -10.359618, 14.258791 -8.381107, 2.723187 -16.762215, -5.446374 -5.179809, -7.129396 0, -17.624836" transform="translate(243.549708 205.521999)" fill="#f4c700" stroke-width="0"/><polygon points="0, -17.624836 5.179809, -7.129396 16.762215, -5.446374 8.381107, 2.723187 10.359618, 14.258791 0, 8.812418 -10.359618, 14.258791 -8.381107, 2.723187 -16.762215, -5.446374 -5.179809, -7.129396 0, -17.624836" transform="translate(205.972882 242.442357)" fill="#f4c700" stroke-width="0"/><polygon points="0, -17.624836 5.179809, -7.129396 16.762215, -5.446374 8.381107, 2.723187 10.359618, 14.258791 0, 8.812418 -10.359618, 14.258791 -8.381107, 2.723187 -16.762215, -5.446374 -5.179809, -7.129396 0, -17.624836" transform="translate(205.972882 60.923689)" fill="#f4c700" stroke-width="0"/></g><g transform="translate(-.000008 0.000017)"><polygon points="0, -17.624836 5.179809, -7.129396 16.762215, -5.446374 8.381107, 2.723187 10.359618, 14.258791 0, 8.812418 -10.359618, 14.258791 -8.381107, 2.723187 -16.762215, -5.446374 -5.179809, -7.129396 0, -17.624836" transform="translate(150 44.981875)" fill="#f4c700" stroke-width="0"/><polygon points="0, -17.624836 5.179809, -7.129396 16.762215, -5.446374 8.381107, 2.723187 10.359618, 14.258791 0, 8.812418 -10.359618, 14.258791 -8.381107, 2.723187 -16.762215, -5.446374 -5.179809, -7.129396 0, -17.624836" transform="translate(150.000008 258.38417)" fill="#f4c700" stroke-width="0"/><polygon points="0, -17.624836 5.179809, -7.129396 16.762215, -5.446374 8.381107, 2.723187 10.359618, 14.258791 0, 8.812418 -10.359618, 14.258791 -8.381107, 2.723187 -16.762215, -5.446374 -5.179809, -7.129396 0, -17.624836" transform="translate(256.259527 151.683023)" fill="#f4c700" stroke-width="0"/><polygon points="0, -17.624836 5.179809, -7.129396 16.762215, -5.446374 8.381107, 2.723187 10.359618, 14.258791 0, 8.812418 -10.359618, 14.258791 -8.381107, 2.723187 -16.762215, -5.446374 -5.179809, -7.129396 0, -17.624836" transform="translate(243.549708 98.422968)" fill="#f4c700" stroke-width="0"/><polygon points="0, -17.624836 5.179809, -7.129396 16.762215, -5.446374 8.381107, 2.723187 10.359618, 14.258791 0, 8.812418 -10.359618, 14.258791 -8.381107, 2.723187 -16.762215, -5.446374 -5.179809, -7.129396 0, -17.624836" transform="translate(243.549708 205.521999)" fill="#f4c700" stroke-width="0"/><polygon points="0, -17.624836 5.179809, -7.129396 16.762215, -5.446374 8.381107, 2.723187 10.359618, 14.258791 0, 8.812418 -10.359618, 14.258791 -8.381107, 2.723187 -16.762215, -5.446374 -5.179809, -7.129396 0, -17.624836" transform="translate(205.972882 242.442357)" fill="#f4c700" stroke-width="0"/><polygon points="0, -17.624836 5.179809, -7.129396 16.762215, -5.446374 8.381107, 2.723187 10.359618, 14.258791 0, 8.812418 -10.359618, 14.258791 -8.381107, 2.723187 -16.762215, -5.446374 -5.179809, -7.129396 0, -17.624836" transform="translate(205.972882 60.923689)" fill="#f4c700" stroke-width="0"/></g><g transform="matrix(-.999997 0 0 1 299.999542 0.000017)"><polygon points="0, -17.624836 5.179809, -7.129396 16.762215, -5.446374 8.381107, 2.723187 10.359618, 14.258791 0, 8.812418 -10.359618, 14.258791 -8.381107, 2.723187 -16.762215, -5.446374 -5.179809, -7.129396 0, -17.624836" transform="translate(150 44.981875)" fill="#f4c700" stroke-width="0"/><polygon points="0, -17.624836 5.179809, -7.129396 16.762215, -5.446374 8.381107, 2.723187 10.359618, 14.258791 0, 8.812418 -10.359618, 14.258791 -8.381107, 2.723187 -16.762215, -5.446374 -5.179809, -7.129396 0, -17.624836" transform="translate(150.000008 258.38417)" fill="#f4c700" stroke-width="0"/><polygon points="0, -17.624836 5.179809, -7.129396 16.762215, -5.446374 8.381107, 2.723187 10.359618, 14.258791 0, 8.812418 -10.359618, 14.258791 -8.381107, 2.723187 -16.762215, -5.446374 -5.179809, -7.129396 0, -17.624836" transform="translate(256.259527 151.683023)" fill="#f4c700" stroke-width="0"/><polygon points="0, -17.624836 5.179809, -7.129396 16.762215, -5.446374 8.381107, 2.723187 10.359618, 14.258791 0, 8.812418 -10.359618, 14.258791 -8.381107, 2.723187 -16.762215, -5.446374 -5.179809, -7.129396 0, -17.624836" transform="translate(243.549708 98.422968)" fill="#f4c700" stroke-width="0"/><polygon points="0, -17.624836 5.179809, -7.129396 16.762215, -5.446374 8.381107, 2.723187 10.359618, 14.258791 0, 8.812418 -10.359618, 14.258791 -8.381107, 2.723187 -16.762215, -5.446374 -5.179809, -7.129396 0, -17.624836" transform="translate(243.549708 205.521999)" fill="#f4c700" stroke-width="0"/><polygon points="0, -17.624836 5.179809, -7.129396 16.762215, -5.446374 8.381107, 2.723187 10.359618, 14.258791 0, 8.812418 -10.359618, 14.258791 -8.381107, 2.723187 -16.762215, -5.446374 -5.179809, -7.129396 0, -17.624836" transform="translate(205.972882 242.442357)" fill="#f4c700" stroke-width="0"/><polygon points="0, -17.624836 5.179809, -7.129396 16.762215, -5.446374 8.381107, 2.723187 10.359618, 14.258791 0, 8.812418 -10.359618, 14.258791 -8.381107, 2.723187 -16.762215, -5.446374 -5.179809, -7.129396 0, -17.624836" transform="translate(205.972882 60.923689)" fill="#f4c700" stroke-width="0"/></g></svg>
