<svg id="e6clOaUSoGP1" xmlns="http://www.w3.org/2000/svg" xmlns:xlink="http://www.w3.org/1999/xlink" viewBox="0 0 300 300" shape-rendering="geometricPrecision" text-rendering="geometricPrecision" project-id="169a27414de84e7fac98fb26309ce006" export-id="cace9229c85b4fa7ba6f77dbdd50f15c" cached="false"><rect width="150" height="150" rx="0" ry="0" fill="#0011b6" stroke-width="0"/><rect width="150" height="30.342454" rx="0" ry="0" transform="matrix(1 0.997048 -.706061 0.708151 10.711808 -10.589908)" fill="#fff" stroke-width="0"/><rect width="150" height="29.280648" rx="0" ry="0" transform="matrix(.424211 0.422959 -.192909 0.19348 94.238364 82.901749)" fill="#d10000" stroke-width="0"/><rect width="150" height="29.280648" rx="0" ry="0" transform="matrix(.370722 0.369628 -.192909 0.19348 4.241866 3.298785)" fill="#d10000" stroke-width="0"/><rect width="150" height="30.342454" rx="0" ry="0" transform="matrix(1 -1.016272 0.71279 0.701377 -10.813905 140.511877)" fill="#fff" stroke-width="0"/><rect width="150" height="26.054134" rx="0" ry="0" transform="matrix(.47444 -.48216 0.218864 0.21536 -1.846876 152.010765)" fill="#d10000" stroke-width="0"/><rect width="150" height="14.298149" rx="0" ry="0" transform="matrix(.39495 -.401376 0.398815 0.39243 85.711809 54.149994)" fill="#d10000" stroke-width="0"/><rect width="149.999996" height="301.288153" rx="0" ry="0" transform="translate(150.000004 -1.288152)" fill="#619dff" stroke-width="0"/><rect width="262.171723" height="150.000001" rx="0" ry="0" transform="translate(-.000005 150.000001)" fill="#619dff" stroke-width="0"/><rect width="150" height="30.342454" rx="0" ry="0" transform="translate(0 59.761013)" fill="#fff" stroke-width="0"/><rect width="30.342454" height="150" rx="0" ry="0" transform="translate(59.850177 0)" fill="#fff" stroke-width="0"/><rect width="30.342454" height="150" rx="0" ry="0" transform="matrix(.70465 0 0 1 64.330999 0)" fill="#d10000" stroke-width="0"/><rect width="150" height="30.342454" rx="0" ry="0" transform="matrix(1 0 0 0.701378 0 64.291475)" fill="#d10000" stroke-width="0"/><g transform="translate(-6.513866 -31.721901)"><ellipse rx="37.997587" ry="29.963531" transform="translate(232.746683 198.309087)" fill="#fff" stroke-width="0"/><rect width="75.995174" height="61.685434" rx="0" ry="0" transform="translate(194.749096 136.623653)" fill="#fff" stroke-width="0"/></g><rect width="75.995174" height="18.425148" rx="0" ry="0" transform="translate(188.23523 104.901752)" fill="#d10000" stroke-width="0"/><rect width="19.451144" height="72.500054" rx="0" ry="0" transform="matrix(.776743 0 0 1.019966 220.171304 122.603127)" fill="#d10000" stroke-width="0"/><rect width="75.995174" height="13.032485" rx="0" ry="0" transform="translate(188.23523 147.934861)" fill="#d10000"/><polygon points="6.372627, -58.737003 5.755027, -45.878555 10.643078, -58.53189 5.05589, -31.322462 8.963925, -23.571778 4.143642, -12.329301 7.779822, 1.081367 1.775106, -4.930729 -2.863254, 0.570175 -0.830777, -50.845365 6.372627, -58.737003" transform="matrix(.047975 0.998849 -.998849 0.047975 196.196622 110.566958)" fill="#f3bb00" stroke-width="0"/><polygon points="0, -6.138858 10.574838, -1.897012 0, -1.897012 10.574838, 1.078219 0, 1.078219 -3.60833, 1.078219 -14.25835, 1.078219 -3.60833, -1.897012 -14.25835, -1.897012 -3.60833, -6.138858 0, -6.138858" transform="translate(251.59688 133.554226)" fill="#05611d" stroke-width="0"/><rect width="4.973502" height="11.713111" rx="0" ry="0" transform="translate(247.755124 134.632445)" fill="#634a02" stroke-width="0"/><polygon points="-0.999335, -12.195622 -0.860997, -2.852833 5.792209, -12.218141 4.975031, 4.794487 6.249055, 8.021359 2.297052, 5.829033 -8.389206, -0.318704 -11.316949, 0.879142 -10.410541, -2.818122 -4.047299, -3.874094 -0.999335, -12.195622" transform="matrix(.83697 0.547249 -.547249 0.83697 205.172613 175.362414)" fill="#d2dbed" stroke-width="0"/><polygon points="7.396162, -10.479045 1.954879, -2.144279 9.400424, -0.726697 3.573058, 0.758907 7.361809, 6.41522 0.822947, 3.004843 2.316761, 11.368284 -2.525763, 1.284981 -9.797496, -3.183399 -1.667952, -2.782233 7.396162, -10.479045" transform="matrix(-.700572 0.713582 -.713582 -.700572 201.046248 133.726467)" fill="#05611d" stroke-width="0"/><polygon points="7.396162, -10.479045 11.931396, -7.901071 12.880154, -4.89321 13.415746, 0.471659 7.361809, 6.41522 2.775406, 5.027304 -1.441498, 2.657721 -2.525763, 1.284981 -2.677465, -4.235893 0.549649, -7.404171 7.396162, -10.479045" transform="matrix(-.700572 0.713582 -.713582 -.700572 247.830212 171.446543)" fill="#05611d" stroke-width="0"/><polygon points="3.34537, -7.014808 6.248984, -5.476713 6.352007, -1.494057 5.606696, 0.537623 3.991497, 3.833384 0.947716, 3.811701 -1.441498, 2.657721 -2.525763, 1.284981 -2.677465, -4.235893 0.549649, -7.404171 3.34537, -7.014808" transform="matrix(-.700572 0.713582 -.713582 -.700572 252.066656 168.581282)" fill="#ddb90a" stroke-width="0"/></svg>
