<svg id="eRtdeVYJwqX1" xmlns="http://www.w3.org/2000/svg" xmlns:xlink="http://www.w3.org/1999/xlink" viewBox="0 0 300 300" shape-rendering="geometricPrecision" text-rendering="geometricPrecision" project-id="169a27414de84e7fac98fb26309ce006" export-id="3c433638cc1548418f8c9adf9135efe5" cached="false"><rect width="150" height="150" rx="0" ry="0" fill="#0011b6" stroke-width="0"/><rect width="150" height="30.342454" rx="0" ry="0" transform="matrix(1 0.997048 -.706061 0.708151 10.711808 -10.589908)" fill="#fff" stroke-width="0"/><rect width="150" height="29.280648" rx="0" ry="0" transform="matrix(.424211 0.422959 -.192909 0.19348 94.238364 82.901749)" fill="#d10000" stroke-width="0"/><rect width="150" height="29.280648" rx="0" ry="0" transform="matrix(.370722 0.369628 -.192909 0.19348 4.241866 3.298785)" fill="#d10000" stroke-width="0"/><rect width="150" height="30.342454" rx="0" ry="0" transform="matrix(1 -1.016272 0.71279 0.701377 -10.813905 140.511877)" fill="#fff" stroke-width="0"/><rect width="150" height="26.054134" rx="0" ry="0" transform="matrix(.47444 -.48216 0.218864 0.21536 -1.846876 152.010765)" fill="#d10000" stroke-width="0"/><rect width="150" height="14.298149" rx="0" ry="0" transform="matrix(.39495 -.401376 0.398815 0.39243 85.711809 54.149994)" fill="#d10000" stroke-width="0"/><rect width="149.999996" height="301.288153" rx="0" ry="0" transform="translate(150.000004 -1.288152)" fill="#0011b6" stroke-width="0"/><rect width="262.171723" height="150.000001" rx="0" ry="0" transform="translate(-.000005 150.000001)" fill="#0011b6" stroke-width="0"/><rect width="150" height="30.342454" rx="0" ry="0" transform="translate(0 59.761013)" fill="#fff" stroke-width="0"/><rect width="30.342454" height="150" rx="0" ry="0" transform="translate(59.850177 0)" fill="#fff" stroke-width="0"/><rect width="30.342454" height="150" rx="0" ry="0" transform="matrix(.70465 0 0 1 64.330999 0)" fill="#d10000" stroke-width="0"/><rect width="150" height="30.342454" rx="0" ry="0" transform="matrix(1 0 0 0.701378 0 64.291475)" fill="#d10000" stroke-width="0"/><g transform="translate(-6.513859 -31.721901)"><ellipse rx="37.997587" ry="29.963531" transform="translate(232.746683 198.309087)" fill="#2687ef" stroke-width="0"/><rect width="75.995174" height="61.685434" rx="0" ry="0" transform="translate(194.749096 136.623653)" fill="#2687ef" stroke-width="0"/></g><rect width="75.995174" height="18.425148" rx="0" ry="0" transform="translate(188.23523 104.901752)" fill="#2687ef" stroke-width="0"/><polygon points="-2.800022, -60.053501 4.14106, -50.606566 4.584249, -41.946784 3.229926, -31.636647 4.478648, -19.304164 4.454055, -11.303603 3.78365, -4.834257 -4.246368, -1.239873 -2.318952, -10.762278 -0.830777, -50.845365 -2.800022, -60.053501" transform="matrix(.047975 0.998849 -.998849 0.047975 196.662345 143.746213)" fill="#0a8702" stroke-width="0"/><polygon points="1.096497, -16.452179 1.096497, -16.452177 1.113432, -16.804705 1.113431, -16.804704 1.113429, -16.804704 6.71391, -11.039006 3.78365, -4.834257 -4.246368, -1.239873 -8.281862, -9.852366 -4.863494, -17.091776 1.096497, -16.452179" transform="matrix(.047975 0.998849 -.998849 0.047975 191.327846 117.15032)" fill="#efb750" stroke-width="0"/><polygon points="4.722218, -50.578652 12.09898, -48.288976 27.333075, -39.453302 14.071874, -34.371743 13.394988, -20.27889 23.770199, -14.126015 5.787015, -2.549183 -2.464703, -7.727716 -9.42423, -8.575285 -0.87583, -40.808191 4.722218, -50.578652" transform="matrix(.047975 0.998849 -.998849 0.047975 199.700405 119.093114)" fill="#fff" stroke-width="0"/><polygon points="-7.436187, -63.19608 6.688071, -62.517692 4.656809, -48.136859 14.071874, -34.371743 5.095674, -18.912038 8.464641, 0.416395 3.543035, 13.41404 -6.729172, 12.92066 -6.562435, -8.437833 -1.851642, -30.151698 -7.436187, -63.19608" transform="matrix(.047975 0.998849 -.998849 0.047975 201.463845 158.112318)" fill="#fff" stroke-width="0"/><polygon points="-7.436187, -63.19608 2.833673, -60.641756 4.656809, -48.136859 14.071874, -34.371743 5.095674, -18.912038 8.464641, 0.416395 2.423962, 8.701761 -7.562084, 12.37495 -6.562435, -8.437833 -1.851642, -30.151698 -7.436187, -63.19608" transform="matrix(.047975 0.998849 -.998849 0.047975 201.463845 178.181771)" fill="#fff" stroke-width="0"/><polygon points="-9.469284, -35.523686 3.692746, -34.891506 5.282859, -20.66852 12.233417, -15.249439 5.039173, -15.594981 5.166782, -4.767822 -8.08007, -5.404076 -10.39087, -16.336094 -16.217833, -16.615967 -10.147188, -21.409635 -9.469284, -35.523686" transform="matrix(.047975 0.998849 -.998849 0.047975 196.787265 164.248971)" fill="#f3bb00" stroke-width="0"/><polygon points="-9.469284, -35.523686 3.692746, -34.891506 5.282859, -20.66852 12.233417, -15.249439 5.039173, -15.594981 5.166782, -4.767822 -8.08007, -5.404076 -10.39087, -16.336094 -16.217833, -16.615967 -10.147188, -21.409635 -9.469284, -35.523686" transform="matrix(.047975 0.998849 -.998849 0.047975 211.465012 164.513467)" fill="#f3bb00" stroke-width="0"/><polygon points="-2.800022, -60.053501 5.97788, -50.518342 9.794528, -40.864993 13.833388, -29.406403 13.394988, -20.27889 8.324126, -10.251085 3.78365, -4.834257 -9.872597, 0.759762 -2.318952, -10.762278 -0.830777, -50.845365 -2.800022, -60.053501" transform="matrix(.047975 0.998849 -.998849 0.047975 196.787265 179.005845)" fill="#f3bb00" stroke-width="0"/><polygon points="-0.811451, -42.148608 -6.791475, -47.267994 -7.951161, -69.710034 0.460528, -68.631333 4.568236, -40.648789 3.535782, -19.152993 -3.185065, 7.270293 -13.092632, 7.16966 -8.372766, -14.345367 -2.015869, -17.07245 -0.811451, -42.148608" transform="matrix(.047975 0.998849 -.998849 0.047975 196.013952 204.146114)" fill="#f3bb00" stroke-width="0"/><polygon points="-9.469284, -35.523686 3.692746, -34.891506 5.282859, -20.66852 12.233417, -15.249439 5.039173, -15.594981 5.166782, -4.767822 -8.08007, -5.404076 -10.39087, -16.336094 -16.217833, -16.615967 -10.147188, -21.409635 -9.469284, -35.523686" transform="matrix(.047975 0.998849 -.998849 0.047975 222.510729 164.513467)" fill="#f3bb00" stroke-width="0"/></svg>
