<svg id="e0bmrWjQuLo1" xmlns="http://www.w3.org/2000/svg" xmlns:xlink="http://www.w3.org/1999/xlink" viewBox="0 0 300 300" shape-rendering="geometricPrecision" text-rendering="geometricPrecision" project-id="169a27414de84e7fac98fb26309ce006" export-id="d449b65f76f34238b758bd1b66254db1" cached="false"><g transform="matrix(1.001225 0 0 1.001473 0.000006 -1.711389)"><rect width="262.172" height="150" rx="0" ry="0" transform="matrix(.990134 0 0 0.995138 -.000005 150)" fill="#0011b6" stroke-width="0"/><rect width="150" height="301.288" rx="0" ry="0" transform="matrix(1.997552 0 0 0.987632 0.000003 1.708785)" fill="#0011b6" stroke-width="0"/><g transform="translate(-6.51386 -31.7219)"><ellipse rx="37.9976" ry="29.9635" transform="translate(232.747 198.309)" fill="#2687ef" stroke-width="0"/><rect width="75.9952" height="61.6854" rx="0" ry="0" transform="translate(194.749 136.624)" fill="#2687ef" stroke-width="0"/></g><rect width="75.9952" height="18.4251" rx="0" ry="0" transform="translate(188.235 104.902)" fill="#2687ef" stroke-width="0"/><polygon points="-2.800022,-60.053501 4.14106,-50.606566 4.584249,-41.946784 3.229926,-31.636647 4.478648,-19.304164 4.454055,-11.303603 3.78365,-4.834257 -4.246368,-1.239873 -2.318952,-10.762278 -0.830777,-50.845365 -2.800022,-60.053501" transform="matrix(.047975 0.998849 -.998849 0.047975 196.662 143.746)" fill="#0a8702" stroke-width="0"/><polygon points="1.096497,-16.452179 1.096497,-16.452177 1.113432,-16.804705 1.113431,-16.804704 1.113429,-16.804704 6.71391,-11.039006 3.78365,-4.834257 -4.246368,-1.239873 -8.281862,-9.852366 -4.863494,-17.091776 1.096497,-16.452179" transform="matrix(.047975 0.998849 -.998849 0.047975 191.328 117.15)" fill="#efb750" stroke-width="0"/><polygon points="4.722218,-50.578652 12.09898,-48.288976 27.333075,-39.453302 14.071874,-34.371743 13.394988,-20.27889 23.770199,-14.126015 5.787015,-2.549183 -2.464703,-7.727716 -9.42423,-8.575285 -0.87583,-40.808191 4.722218,-50.578652" transform="matrix(.047975 0.998849 -.998849 0.047975 199.7 119.093)" fill="#fff" stroke-width="0"/><polygon points="-7.436187,-63.19608 6.688071,-62.517692 4.656809,-48.136859 14.071874,-34.371743 5.095674,-18.912038 8.464641,0.416395 3.543035,13.41404 -6.729172,12.92066 -6.562435,-8.437833 -1.851642,-30.151698 -7.436187,-63.19608" transform="matrix(.047975 0.998849 -.998849 0.047975 201.464 158.112)" fill="#fff" stroke-width="0"/><polygon points="-7.436187,-63.19608 2.833673,-60.641756 4.656809,-48.136859 14.071874,-34.371743 5.095674,-18.912038 8.464641,0.416395 2.423962,8.701761 -7.562084,12.37495 -6.562435,-8.437833 -1.851642,-30.151698 -7.436187,-63.19608" transform="matrix(.047975 0.998849 -.998849 0.047975 201.464 178.182)" fill="#fff" stroke-width="0"/><polygon points="-9.469284,-35.523686 3.692746,-34.891506 5.282859,-20.66852 12.233417,-15.249439 5.039173,-15.594981 5.166782,-4.767822 -8.08007,-5.404076 -10.39087,-16.336094 -16.217833,-16.615967 -10.147188,-21.409635 -9.469284,-35.523686" transform="matrix(.047975 0.998849 -.998849 0.047975 196.787 164.249)" fill="#f3bb00" stroke-width="0"/><polygon points="-9.469284,-35.523686 3.692746,-34.891506 5.282859,-20.66852 12.233417,-15.249439 5.039173,-15.594981 5.166782,-4.767822 -8.08007,-5.404076 -10.39087,-16.336094 -16.217833,-16.615967 -10.147188,-21.409635 -9.469284,-35.523686" transform="matrix(.047975 0.998849 -.998849 0.047975 211.465 164.513)" fill="#f3bb00" stroke-width="0"/><polygon points="-2.800022,-60.053501 5.97788,-50.518342 9.794528,-40.864993 13.833388,-29.406403 13.394988,-20.27889 8.324126,-10.251085 3.78365,-4.834257 -9.872597,0.759762 -2.318952,-10.762278 -0.830777,-50.845365 -2.800022,-60.053501" transform="matrix(.047975 0.998849 -.998849 0.047975 196.787 179.006)" fill="#f3bb00" stroke-width="0"/><polygon points="-0.811451,-42.148608 -6.791475,-47.267994 -7.951161,-69.710034 0.460528,-68.631333 4.568236,-40.648789 3.535782,-19.152993 -3.185065,7.270293 -13.092632,7.16966 -8.372766,-14.345367 -2.015869,-17.07245 -0.811451,-42.148608" transform="matrix(.047975 0.998849 -.998849 0.047975 196.014 204.146)" fill="#f3bb00" stroke-width="0"/><polygon points="-9.469284,-35.523686 3.692746,-34.891506 5.282859,-20.66852 12.233417,-15.249439 5.039173,-15.594981 5.166782,-4.767822 -8.08007,-5.404076 -10.39087,-16.336094 -16.217833,-16.615967 -10.147188,-21.409635 -9.469284,-35.523686" transform="matrix(.047975 0.998849 -.998849 0.047975 222.511 164.513)" fill="#f3bb00" stroke-width="0"/><g transform="matrix(1.98447 0 0 1.99146 4.023099 3.557339)"><rect width="150" height="150" rx="0" ry="0" transform="matrix(1.006592 0 0 1.002777 -2.027289 -.931215)" fill="#0011b6" stroke-width="0"/><rect width="150" height="30.3425" rx="0" ry="0" transform="matrix(.846004 0.843506 -.706061 0.708151 19.396363 -1.93099)" fill="#fff" stroke-width="0"/><polygon points="-2.920263,-13.50851 16.208058,-5.631541 23.761265,12.778298 -5.066385,22.170693 -11.452248,7.210075 -2.920263,-13.50851" transform="matrix(-.924667 0.380778 -.380778 -.924667 141.117532 138.106369)" fill="#fff" stroke-width="0"/><polygon points="-7.504041,-2.37761 -3.697633,-11.620794 -3.213792,-12.795704 3.382062,2.895637 -4.560389,4.74044 -7.504041,-2.37761" transform="matrix(-.924667 0.380778 -.380778 -.924667 141.117532 138.106369)" fill="#d10000" stroke-width="0"/><rect width="150" height="29.2806" rx="0" ry="0" transform="matrix(.366263 0.365182 -.192909 0.19348 94.2384 82.9017)" fill="#d10000" stroke-width="0"/><rect width="150" height="30.3425" rx="0" ry="0" transform="matrix(.848442 -.862246 0.71279 0.701377 0.237339 129.280959)" fill="#fff" stroke-width="0"/><polygon points="0,-14.859997 25.777455,-4.399204 34.853063,17.70242 18.883937,24.286913 15.304842,23.288951 0,-14.859997" transform="matrix(-.380171 0.924916 -.924916 -.380171 27.596123 123.979045)" fill="#fff" stroke-width="0"/><rect width="150" height="26.0541" rx="0" ry="0" transform="matrix(.466171 -.473757 0.218864 0.21536 -.81363 150.960932)" fill="#d10000" stroke-width="0"/><polygon points="14.836981,4.788689 14.929843,5.406486 14.787083,6.683958 -1.980828,18.799212 -14.861526,0.971783 14.836981,4.788689" transform="matrix(-.810562 -.585653 0.585653 -.810562 136.346219 13.14664)" fill="#fff" stroke-width="0"/><polygon points="-15.657749,2.10188 -15.71718,2.145852 13.494757,7.182072 -2.985886,19.352456 -15.714699,2.144016 -15.657749,2.10188" transform="matrix(-.594795 0.803877 -.803877 -.594795 11.753761 12.979812)" fill="#fff" stroke-width="0"/><rect width="150" height="14.2981" rx="0" ry="0" transform="matrix(.415842 -.438587 0.406024 0.384967 82.595704 57.436532)" fill="#d10000" stroke-width="0"/><rect width="150" height="29.2806" rx="0" ry="0" transform="matrix(.383862 0.382729 -.192909 0.19348 5.095203 4.149576)" fill="#d10000" stroke-width="0"/><polygon points="0,-5.9085 5.897477,-1.648628 5.809812,8.449854 -0.877285,15.013566 -2.272657,13.590411 -2.231007,-5.350518 0,-5.9085" transform="matrix(-.699035 0.715087 -.715087 -.699035 8.076393 10.194108)" fill="#d10000" stroke-width="0"/><rect width="150" height="30.3425" rx="0" ry="0" transform="matrix(1.00652 0 0 1 -2.016502 59.761)" fill="#fff" stroke-width="0"/><rect width="30.3425" height="150" rx="0" ry="0" transform="matrix(1 0 0 1.002756 59.8502 -.928135)" fill="#fff" stroke-width="0"/><rect width="30.3425" height="150" rx="0" ry="0" transform="matrix(.70465 0 0 1.00279 64.330985 -.928188)" fill="#d10000" stroke-width="0"/><rect width="150" height="30.3425" rx="0" ry="0" transform="matrix(1.006592 0 0 0.701378 -2.027252 64.291496)" fill="#d10000" stroke-width="0"/></g></g></svg>
