<svg id="eKtMYayAN0q1" xmlns="http://www.w3.org/2000/svg" xmlns:xlink="http://www.w3.org/1999/xlink" viewBox="0 0 300 300" shape-rendering="geometricPrecision" text-rendering="geometricPrecision" project-id="169a27414de84e7fac98fb26309ce006" export-id="1546b543a58d464aba0c253afcd513a0" cached="false"><rect width="300" height="300" rx="0" ry="0" transform="translate(0 0.561231)" fill="#fff" stroke-width="0"/><rect width="300" height="300" rx="0" ry="0" transform="translate(0 0.561231)" fill="#fff" stroke-width="0"/><rect width="300" height="300" rx="0" ry="0" transform="translate(0 0.561231)" fill="#fff" stroke-width="0"/><rect width="53.813042" height="21.088895" rx="0" ry="0" transform="translate(208.432034 225.737859)" fill="#ed0710" stroke-width="0"/><rect width="53.813042" height="21.088895" rx="0" ry="0" transform="matrix(0 1 -1 0 245.883002 209.375786)" fill="#ed0710" stroke-width="0"/><rect width="300" height="300" rx="0" ry="0" transform="translate(0 0.561231)" fill="#fff" stroke-width="0"/><rect width="53.813042" height="21.088895" rx="0" ry="0" transform="translate(208.432034 55.572286)" fill="#ed0710" stroke-width="0"/><rect width="53.813042" height="21.088895" rx="0" ry="0" transform="matrix(0 1 -1 0 245.883002 39.210212)" fill="#ed0710" stroke-width="0"/><rect width="39.99618" height="300" rx="0" ry="0" transform="translate(130.075686 0.561231)" fill="#ed0710" stroke-width="0"/><rect width="300" height="40.723383" rx="0" ry="0" transform="translate(0 129.640196)" fill="#ed0710" stroke-width="0"/><rect width="53.813042" height="21.088895" rx="0" ry="0" transform="translate(38.993667 55.572286)" fill="#ed0710" stroke-width="0"/><rect width="53.813042" height="21.088895" rx="0" ry="0" transform="translate(208.432034 225.737859)" fill="#ed0710" stroke-width="0"/><rect width="53.813042" height="21.088895" rx="0" ry="0" transform="matrix(0 1 -1 0 76.444635 39.210212)" fill="#ed0710" stroke-width="0"/><rect width="53.813042" height="21.088895" rx="0" ry="0" transform="matrix(0 1 -1 0 245.883002 209.375786)" fill="#ed0710" stroke-width="0"/><rect width="53.813042" height="21.088895" rx="0" ry="0" transform="matrix(0 1 -1 0 76.444635 209.375786)" fill="#ed0710" stroke-width="0"/><rect width="53.813042" height="21.088895" rx="0" ry="0" transform="translate(38.993667 225.737859)" fill="#ed0710" stroke-width="0"/></svg>
