<svg id="eA2Cj8xiGP71" xmlns="http://www.w3.org/2000/svg" xmlns:xlink="http://www.w3.org/1999/xlink" viewBox="0 0 300 300" shape-rendering="geometricPrecision" text-rendering="geometricPrecision" project-id="169a27414de84e7fac98fb26309ce006" export-id="0ecb84a0050f4aad84f38695bcb77030" cached="false"><rect width="300" height="214.972046" rx="0" ry="0" fill="#fff" stroke-width="0"/><rect width="300" height="85.027954" rx="0" ry="0" transform="translate(0 214.972046)" fill="#cf0808" stroke-width="0"/><rect width="300" height="85.027954" rx="0" ry="0" transform="translate(0 214.972046)" fill="#cf0808" stroke-width="0"/><rect width="86.258138" height="99.381232" rx="0" ry="0" transform="translate(106.870931 107.486023)" fill="#cf0808" stroke="#000" stroke-width="2"/><rect width="86.258138" height="99.381232" rx="0" ry="0" transform="matrix(.798663 0 0 0.837649 193.129069 107.486023)" fill="#cf0808" stroke="#000" stroke-width="2"/><rect width="86.258138" height="99.381232" rx="0" ry="0" transform="matrix(.798663 0 0 0.837649 37.979747 107.376705)" fill="#cf0808" stroke="#000" stroke-width="2"/><rect width="50.944403" height="63.293511" rx="0" ry="0" transform="translate(124.527799 44.192513)" fill="#cf0808" stroke="#000" stroke-width="3"/><rect width="50.944403" height="63.293511" rx="0" ry="0" transform="matrix(.676938 0 0 0.795322 210.33156 58.037984)" fill="#cf0808" stroke="#000" stroke-width="3"/><rect width="50.944403" height="63.293511" rx="0" ry="0" transform="matrix(.676938 0 0 0.795322 55.182238 57.147302)" fill="#cf0808" stroke="#000" stroke-width="3"/><g transform="translate(0 0.000001)"><polygon points="0,-8.71045 16.56826,-8.71045 16.56826,22.804254 -16.56826,22.804254 -16.56826,-8.71045 0,-8.71045" transform="translate(150 184.063001)" stroke-width="0"/><ellipse rx="16.209583" ry="17.144811" transform="matrix(1.022127 0 0 0.539936 150 175.352551)" stroke-width="0"/></g><g transform="matrix(.57604 0 0 0.552385 63.594005 -6.784351)"><polygon points="0,-8.71045 16.56826,-8.71045 16.56826,22.804254 -16.56826,22.804254 -16.56826,-8.71045 0,-8.71045" transform="translate(150 184.063001)" stroke-width="0"/><ellipse rx="16.209583" ry="17.144811" transform="matrix(1.022127 0 0 0.539936 150 175.352551)" stroke-width="0"/></g><g transform="matrix(.57604 0 0 0.552385 63.594005 -6.784351)"><polygon points="0,-8.71045 16.56826,-8.71045 16.56826,22.804254 -16.56826,22.804254 -16.56826,-8.71045 0,-8.71045" transform="translate(150 184.063001)" stroke-width="0"/><polygon points="0,-8.71045 16.56826,-8.71045 16.56826,22.804254 -16.56826,22.804254 -16.56826,-8.71045 0,-8.71045" transform="matrix(.433258 0 0 1 150 118.416491)" stroke-width="0"/><polygon points="0,-8.71045 16.56826,-8.71045 16.56826,22.804254 -16.56826,22.804254 -16.56826,-8.71045 0,-8.71045" transform="matrix(-.302731 0 0 0.606862 166.568261 118.416491)" stroke-width="0"/><polygon points="0,-8.71045 16.56826,-8.71045 16.56826,22.804254 -16.56826,22.804254 -16.56826,-8.71045 0,-8.71045" transform="matrix(-.302731 0 0 0.606862 133.431748 118.416491)" stroke-width="0"/><ellipse rx="16.209583" ry="17.144811" transform="matrix(1.022127 0 0 0.539936 150 175.352551)" stroke-width="0"/></g><g transform="matrix(.57604 0 0 0.552385 -13.980656 -6.893669)"><polygon points="0,-8.71045 16.56826,-8.71045 16.56826,22.804254 -16.56826,22.804254 -16.56826,-8.71045 0,-8.71045" transform="translate(150 184.063001)" stroke-width="0"/><ellipse rx="16.209583" ry="17.144811" transform="matrix(1.022127 0 0 0.539936 150 175.352551)" stroke-width="0"/></g><g transform="matrix(.57604 0 0 0.552385 141.168666 -6.784351)"><polygon points="0,-8.71045 16.56826,-8.71045 16.56826,22.804254 -16.56826,22.804254 -16.56826,-8.71045 0,-8.71045" transform="translate(150 184.063001)" stroke-width="0"/><ellipse rx="16.209583" ry="17.144811" transform="matrix(1.022127 0 0 0.539936 150 175.352551)" stroke-width="0"/></g><polygon points="0,-8.71045 16.56826,-8.71045 16.56826,22.804254 -16.56826,22.804254 -16.56826,-8.71045 0,-8.71045" transform="translate(72.425339 167.305649)" stroke-width="0"/><ellipse rx="16.209583" ry="17.144811" transform="matrix(1.022127 0 0 0.539936 72.425339 159.5952)" stroke-width="0"/><ellipse rx="16.209583" ry="17.144811" transform="matrix(1.022127 0 0 0.539936 227.574661 159.108591)" stroke-width="0"/><polygon points="0,-8.71045 16.56826,-8.71045 16.56826,22.804254 -16.56826,22.804254 -16.56826,-8.71045 0,-8.71045" transform="translate(227.574661 167.819041)" stroke-width="0"/><rect width="41.390688" height="12.455997" rx="0" ry="0" transform="translate(52.182238 52.815621)" fill="#cf0808" stroke-width="0"/><rect width="41.390688" height="12.455997" rx="0" ry="0" transform="translate(206.879323 54.761417)" fill="#cf0808" stroke-width="0"/><rect width="66.288603" height="13.126456" rx="0" ry="0" transform="translate(116.918933 35.574842)" fill="#cf0808" stroke-width="0"/><rect width="6.717946" height="51.193178" rx="0" ry="0" transform="translate(145.14934 237.065942)" fill="#ffb900" stroke-width="0"/><rect width="29.00149" height="22.979135" rx="0" ry="0" transform="matrix(.503689 0.467789 -.646343 0.695946 149.122337 208.859022)" fill="none" stroke="#ffb900" stroke-width="5"/><rect width="29.00149" height="22.979135" rx="0" ry="0" transform="matrix(.002368 0.777721 -.449462 0.001369 144.450948 265.635191)" fill="none" stroke="#ffb900" stroke-width="7"/><rect width="20.621541" height="0.03145" rx="0" ry="0" transform="translate(124.5278 276.912731)" fill="#d2dbed" stroke-width="0"/><rect width="20.621541" height="0.03145" rx="0" ry="0" transform="translate(124.527801 276.912731)" fill="#d2dbed" stroke-width="0"/><rect width="19.95749" height="6.885718" rx="0" ry="0" transform="translate(125.527799 274.058463)" fill="#cf0808" stroke-width="0"/><path d="M133.431748,206.867255c12.892792 -7.458613,18.799602 -8.542728,18.435538,1.991767q-.220766,6.388043 -6.002288,0q11.799302 -11.979656,20.703252 -1.991768" transform="translate(.000002 0.000001)" fill="none" stroke="#ffb900" stroke-width="3"/></svg>
