<svg id="eX4HojJS3MF1" xmlns="http://www.w3.org/2000/svg" xmlns:xlink="http://www.w3.org/1999/xlink" viewBox="0 0 300 300" shape-rendering="geometricPrecision" text-rendering="geometricPrecision" project-id="169a27414de84e7fac98fb26309ce006" export-id="6fa16ab6fb344f4089f4693d4fc535fd" cached="false"><g transform="matrix(0-1 1 0 0 299.881283)"><rect width="300" height="99.82486" rx="0" ry="0" fill="#4792f6" stroke-width="0"/><rect width="300" height="100.354052" rx="0" ry="0" transform="translate(0 99.82486)" fill="#fff" stroke-width="0"/><rect width="300" height="99.821088" rx="0" ry="0" transform="translate(0 200.178912)" fill="#4792f6" stroke-width="0"/></g><polygon points="-32.814996,-18.458422 -45.304665,-25.710486 -41.460645,-32.330743 -28.970979,-25.078677 -18.112224,-3.116832 -20.397178,19.477061 -34.019727,33.051163 -27.659607,13.325885 -25.725733,-2.840555 -32.814998,-18.45842 -32.814996,-18.458422" transform="matrix(-.878406 0.477914-.477914-.878406 94.793831 171.515564)" fill="#0d5a02" stroke-width="0"/><polygon points="-33.14106,-18.452572 -45.630729,-25.704636 -41.786709,-32.324893 -29.297043,-25.072827 -18.438288,-3.110982 -20.723242,19.482911 -34.345791,33.057013 -27.985671,13.331735 -26.051797,-2.834705 -33.141062,-18.45257 -33.14106,-18.452572" transform="matrix(.78663 0.425902 0.47612-.879381 203.856912 169.926337)" fill="#0d5a02" stroke-width="0"/><polygon points="-38.634542,10.991206 0.185173,-20.454535 -31.488586,14.452138 -42.187202,16.860801 -53.174283,18.901026 -61.410258,20.998298 -65.862452,13.885931 -59.158223,16.002882 -52.7013,11.76861 -41.604962,9.55257 -38.634542,10.991206" transform="matrix(.78663 0.425902 0.47612-.879381 188.425051 143.257428)" fill="#0d5a02" stroke-width="0"/><polygon points="-45.09471,-25.480361 -31.20572,-27.200305 -16.398312,-20.028778 1.347124,-9.972593 -1.221224,1.466742 -14.079519,15.514816 -30.251706,25.322607 -62.296093,2.939217 -45.37212,-7.029924 -30.509112,-31.586112 -45.09471,-25.480361" transform="matrix(.78663 0.425902 0.47612-.879381 174.2246 151.980166)" fill="#f1d28c" stroke-width="0"/></svg>
