<svg id="e9Mu5j3O0ys1" xmlns="http://www.w3.org/2000/svg" xmlns:xlink="http://www.w3.org/1999/xlink" viewBox="0 0 300 300" shape-rendering="geometricPrecision" text-rendering="geometricPrecision" project-id="169a27414de84e7fac98fb26309ce006" export-id="10d20b2c6da8436eade2f56050582995" cached="false"><g transform="matrix(0 -1 1 0 0 299.881283)"><rect width="300" height="99.82486" rx="0" ry="0" transform="matrix(1 0 0 3.005263 -.118717 0.000021)" fill="#028c00" stroke-width="0"/></g><polygon points="-93.701918,-218.186193 221.220257,-102.756564 221.220272,-102.756549 221.220259,-102.756563 2.907663,103.00935 2.90765,103.009335 2.907649,103.009336 2.907649,103.009335 2.907663,103.009351 2.90766,103.00935 -93.701918,-218.186193" transform="matrix(-.685886 0.727709 -.727709 -.685886 74.955127 68.536773)" fill="#ffbe00" stroke="#fff" stroke-width="5"/><polygon points="9.181023,-109.029903 221.220257,-102.756564 221.220272,-102.756549 221.220259,-102.756563 2.907663,103.00935 2.90765,103.009335 2.907649,103.009336 2.907649,103.009335 2.907663,103.009351 2.90766,103.00935 9.181023,-109.029903" transform="matrix(-.685886 0.727709 -.727709 -.685886 76.955127 68.536773)" fill="#dc1221" stroke="#020101" stroke-width="3"/></svg>
