<svg id="eOAMhp6XBLo1" xmlns="http://www.w3.org/2000/svg" xmlns:xlink="http://www.w3.org/1999/xlink" viewBox="0 0 300 300" shape-rendering="geometricPrecision" text-rendering="geometricPrecision" project-id="169a27414de84e7fac98fb26309ce006" export-id="f8b925c3a9d24b439e9d5bef07d20dc6" cached="false"><rect width="300" height="300" rx="0" ry="0" transform="translate(.471321 0.099799)" fill="#c61b1b" stroke-width="0"/><g transform="matrix(.993728 0.111823-.111823 0.993728-4.450095-12.35565)"><ellipse rx="35.957548" ry="12.795395" transform="matrix(1 0 0 2.447704 213.828136 137.204605)" fill="#fff" stroke-width="0"/><ellipse rx="35.957548" ry="12.795395" transform="matrix(1.170707 0 0 1.60401 213.828136 148)" fill="#c61b1b" stroke-width="0"/><ellipse rx="15.793367" ry="12.721128" transform="matrix(1 0 0 1.27761 219.079429 131.278872)" fill="#fff" stroke-width="0"/></g><g transform="matrix(.235667 0.971834-.971834 0.235667 250.997669-49.034987)"><ellipse rx="35.957548" ry="12.795395" transform="matrix(1 0 0 2.447704 213.828136 137.204605)" fill="#fff" stroke-width="0"/><ellipse rx="35.957548" ry="12.795395" transform="matrix(1.170707 0 0 1.60401 213.828136 148)" fill="#c61b1b" stroke-width="0"/><ellipse rx="15.793367" ry="12.721128" transform="matrix(1 0 0 1.27761 219.079429 131.278872)" fill="#fff" stroke-width="0"/><polygon points="-4.786146,-16.643636 -3.037419,-13.84938 0.975712,-13.078432 7.607552,-8.341044 16.101722,10.494009 14.42347,14.921452 14.243971,20.018837 15.158899,24.668933 17.827307,29.919125 21.742265,35.098852 13.860331,34.707079 -6.080237,1.975589 -12.160474,-3.951178 -7.087501,-25.908821 -5.866777,-19.627615 -4.786146,-16.643636" transform="matrix(-.463445 0.886126-.886126-.463445 223.192827 131.278872)" fill="#fff" stroke-width="0"/><polygon points="0,-2.178679 0.640298,-0.881294 2.072047,-0.673249 1.036023,0.336624 1.280595,1.762588 0,1.089339 -1.280595,1.762588 -1.036023,0.336624 -2.072047,-0.673249 -0.640298,-0.881294 0,-2.178679" transform="matrix(0 1.615027-1.49707 0 219.539468 127.476058)" fill="#c61b1b" stroke-width="0"/></g><g transform="matrix(-.850772 0.525534-.525534-.850772 371.99041 186.053493)"><ellipse rx="35.957548" ry="12.795395" transform="matrix(1 0 0 2.447704 213.828136 137.204605)" fill="#fff" stroke-width="0"/><ellipse rx="35.957548" ry="12.795395" transform="matrix(1.170707 0 0 1.60401 213.828136 148)" fill="#c61b1b" stroke-width="0"/><ellipse rx="15.793367" ry="12.721128" transform="matrix(1 0 0 1.27761 219.079429 131.278872)" fill="#fff" stroke-width="0"/><polygon points="-4.786146,-16.643636 -3.037419,-13.84938 0.975712,-13.078432 7.607552,-8.341044 16.101722,10.494009 14.42347,14.921452 14.243971,20.018837 15.158899,24.668933 17.827307,29.919125 21.742265,35.098852 13.860331,34.707079 -6.080237,1.975589 -12.160474,-3.951178 -7.087501,-25.908821 -5.866777,-19.627615 -4.786146,-16.643636" transform="matrix(-.463445 0.886126-.886126-.463445 223.192827 131.278872)" fill="#fff" stroke-width="0"/><polygon points="0,-2.178679 0.640298,-0.881294 2.072047,-0.673249 1.036023,0.336624 1.280595,1.762588 0,1.089339 -1.280595,1.762588 -1.036023,0.336624 -2.072047,-0.673249 -0.640298,-0.881294 0,-2.178679" transform="matrix(0 1.615027-1.49707 0 219.539468 127.476058)" fill="#c61b1b" stroke-width="0"/></g><g transform="matrix(-.76818-.640234 0.640234-.76818 187.638141 373.739328)"><ellipse rx="35.957548" ry="12.795395" transform="matrix(1 0 0 2.447704 213.828136 137.204605)" fill="#fff" stroke-width="0"/><ellipse rx="35.957548" ry="12.795395" transform="matrix(1.170707 0 0 1.60401 213.828136 148)" fill="#c61b1b" stroke-width="0"/><ellipse rx="15.793367" ry="12.721128" transform="matrix(1 0 0 1.27761 219.079429 131.278872)" fill="#fff" stroke-width="0"/><polygon points="-4.786146,-16.643636 -3.037419,-13.84938 0.975712,-13.078432 7.607552,-8.341044 16.101722,10.494009 14.42347,14.921452 14.243971,20.018837 15.158899,24.668933 17.827307,29.919125 21.742265,35.098852 13.860331,34.707079 -6.080237,1.975589 -12.160474,-3.951178 -7.087501,-25.908821 -5.866777,-19.627615 -4.786146,-16.643636" transform="matrix(-.463445 0.886126-.886126-.463445 223.192827 131.278872)" fill="#fff" stroke-width="0"/><polygon points="0,-2.178679 0.640298,-0.881294 2.072047,-0.673249 1.036023,0.336624 1.280595,1.762588 0,1.089339 -1.280595,1.762588 -1.036023,0.336624 -2.072047,-0.673249 -0.640298,-0.881294 0,-2.178679" transform="matrix(0 1.615027-1.49707 0 219.539468 127.476058)" fill="#c61b1b" stroke-width="0"/></g><g transform="matrix(.417746-.908564 0.908564 0.417746-54.735881 246.571485)"><ellipse rx="35.957548" ry="12.795395" transform="matrix(1 0 0 2.447704 213.828136 137.204605)" fill="#fff" stroke-width="0"/><ellipse rx="35.957548" ry="12.795395" transform="matrix(1.170707 0 0 1.665499 213.828136 148)" fill="#c61b1b" stroke-width="0"/><ellipse rx="15.793367" ry="12.721128" transform="matrix(1 0 0 1.27761 219.079429 131.278872)" fill="#fff" stroke-width="0"/><polygon points="-4.786146,-16.643636 -3.037419,-13.84938 0.975712,-13.078432 7.607552,-8.341044 16.101722,10.494009 14.42347,14.921452 14.243971,20.018837 15.158899,24.668933 17.827307,29.919125 21.742265,35.098852 13.860331,34.707079 -6.080237,1.975589 -12.160474,-3.951178 -7.087501,-25.908821 -5.866777,-19.627615 -4.786146,-16.643636" transform="matrix(-.463445 0.886126-.886126-.463445 222.987232 130.668402)" fill="#fff" stroke-width="0"/><polygon points="0,-2.178679 0.640298,-0.881294 2.072047,-0.673249 1.036023,0.336624 1.280595,1.762588 0,1.089339 -1.280595,1.762588 -1.036023,0.336624 -2.072047,-0.673249 -0.640298,-0.881294 0,-2.178679" transform="matrix(0 1.615027-1.49707 0 219.539468 127.476058)" fill="#c61b1b" stroke-width="0"/></g><polygon points="-4.786146,-16.643636 -3.037419,-13.84938 0.668371,-11.698019 7.607552,-8.341044 16.101722,10.494009 14.42347,14.921452 14.243971,20.018837 15.158899,24.668933 17.827307,29.919125 19.100067,35.705451 13.561692,37.343691 6.379814,37.670451 0.808939,37.060638 -4.509113,35.214033 -8.659375,33.055255 -16.791617,25.723052 -12.160474,-3.951178 -7.087501,-25.908821 -5.866777,-19.627615 -4.786146,-16.643636" transform="matrix(-.536536 0.843877-.843877-.536536 203.630127 144.439497)" fill="#fff" stroke-width="0"/><polygon points="0,-2.178679 0.640298,-0.881294 2.072047,-0.673249 1.036023,0.336624 1.280595,1.762588 0,1.089339 -1.280595,1.762588 -1.036023,0.336624 -2.072047,-0.673249 -0.640298,-0.881294 0,-2.178679" transform="matrix(0 1.615027-1.49707 0 201.214029 137.520864)" fill="#c61b1b" stroke-width="0"/></svg>
