<svg id="eMC5IaGZXyv1" xmlns="http://www.w3.org/2000/svg" xmlns:xlink="http://www.w3.org/1999/xlink" viewBox="0 0 300 300" shape-rendering="geometricPrecision" text-rendering="geometricPrecision" project-id="169a27414de84e7fac98fb26309ce006" export-id="972f1c94dd6e4982bd2cfd5b3a173483" cached="false"><g transform="matrix(0 -1 1 0 0 299.881283)"><rect width="300" height="99.82486" rx="0" ry="0" transform="matrix(.333035 0 0 3.005263 199.970783 0.000042)" fill="#67b5ec" stroke-width="0"/><rect width="300" height="99.82486" rx="0" ry="0" transform="matrix(.333035 0 0 3.005263 100.060283 0)" fill="#fdfdfd" stroke-width="0"/><rect width="300" height="99.82486" rx="0" ry="0" transform="matrix(.333035 0 0 3.005263 0.149783 0)" fill="#67b5ec" stroke-width="0"/></g><polygon points="0,-9.715751 3.14928,-3.334612 10.191285,-2.311349 5.095642,2.655675 6.29856,9.669225 0,6.357875 -6.29856,9.669225 -5.095642,2.655675 -10.191285,-2.311349 -3.14928,-3.334612 0,-9.715751" transform="translate(80.692169 119.038675)" fill="#67b5ec" stroke-width="0"/><polygon points="0,-9.715751 3.14928,-3.334612 10.191285,-2.311349 5.095642,2.655675 6.29856,9.669225 0,6.357875 -6.29856,9.669225 -5.095642,2.655675 -10.191285,-2.311349 -3.14928,-3.334612 0,-9.715751" transform="translate(220.831256 119.038675)" fill="#67b5ec" stroke-width="0"/><polygon points="0,-9.715751 3.14928,-3.334612 10.191285,-2.311349 5.095642,2.655675 6.29856,9.669225 0,6.357875 -6.29856,9.669225 -5.095642,2.655675 -10.191285,-2.311349 -3.14928,-3.334612 0,-9.715751" transform="translate(220.831256 180.945554)" fill="#67b5ec" stroke-width="0"/><polygon points="0,-9.715751 3.14928,-3.334612 10.191285,-2.311349 5.095642,2.655675 6.29856,9.669225 0,6.357875 -6.29856,9.669225 -5.095642,2.655675 -10.191285,-2.311349 -3.14928,-3.334612 0,-9.715751" transform="translate(80.692169 180.945554)" fill="#67b5ec" stroke-width="0"/><polygon points="0,-9.715751 3.14928,-3.334612 10.191285,-2.311349 5.095642,2.655675 6.29856,9.669225 0,6.357875 -6.29856,9.669225 -5.095642,2.655675 -10.191285,-2.311349 -3.14928,-3.334612 0,-9.715751" transform="translate(149.999979 151.023263)" fill="#67b5ec" stroke-width="0"/></svg>
