<svg id="eE0YhKgaVbf1" xmlns="http://www.w3.org/2000/svg" xmlns:xlink="http://www.w3.org/1999/xlink" viewBox="0 0 300 300" shape-rendering="geometricPrecision" text-rendering="geometricPrecision" project-id="169a27414de84e7fac98fb26309ce006" export-id="8db400396077478f9833ee6527ab156f" cached="false"><g transform="matrix(0 -1 1 0 0 299.881283)"><rect width="300" height="99.82486" rx="0" ry="0" transform="matrix(.333035 0 0 3.005263 199.970783 0.000042)" fill="#d11212" stroke-width="0"/><rect width="300" height="99.82486" rx="0" ry="0" transform="matrix(.333035 0 0 3.005263 100.060283 0)" fill="#fdfdfd" stroke-width="0"/><rect width="300" height="99.82486" rx="0" ry="0" transform="matrix(.333035 0 0 3.005263 0.149783 0)" fill="#031f80" stroke-width="0"/></g><rect width="69.758123" height="74.605752" rx="0" ry="0" transform="matrix(1.332799 0 0 1.228514 103.513243 99.9105)" fill="#d2dbed" stroke="#d11212"/><ellipse rx="37.509267" ry="22.258064" transform="matrix(1.239342 0 0 0.997224 149.999936 189.6383)" fill="#fdfdfd" stroke="#d11212"/><rect width="17.50639" height="15.38117" rx="0" ry="0" transform="matrix(1.257244 0 0 1.146394 109.687982 99.9105)" fill="#d2dbed" stroke-width="0"/><rect width="17.50639" height="15.38117" rx="0" ry="0" transform="matrix(1.062167 0 0 1.146394 103.513243 99.9105)" fill="#d11212" stroke-width="0"/><rect width="17.50639" height="15.38117" rx="0" ry="0" transform="matrix(1.062167 0 0 1.146394 127.990234 99.9105)" fill="#fdfdfd" stroke-width="0"/><rect width="17.50639" height="15.38117" rx="0" ry="0" transform="matrix(1.062167 0 0 1.146394 122.107956 99.9105)" fill="#fdfdfd" stroke-width="0"/><rect width="17.50639" height="15.38117" rx="0" ry="0" transform="matrix(1.062167 0 0 1.146394 140.702624 99.9105)" fill="#d11212" stroke-width="0"/><rect width="17.50639" height="15.38117" rx="0" ry="0" transform="matrix(1.062167 0 0 1.146394 159.297376 99.9105)" fill="#fdfdfd" stroke-width="0"/><rect width="17.50639" height="15.38117" rx="0" ry="0" transform="matrix(1.062167 0 0 1.146394 177.892086 99.9105)" fill="#d11212" stroke-width="0"/><rect width="17.50639" height="15.38117" rx="0" ry="0" transform="matrix(1.062167 0 0 1.146394 178.184561 135.176264)" fill="#d11212" stroke-width="0"/><rect width="17.50639" height="15.38117" rx="0" ry="0" transform="matrix(1.062167 0 0 1.146394 177.892044 170.442028)" fill="#d11212" stroke-width="0"/><rect width="17.50639" height="15.38117" rx="0" ry="0" transform="matrix(1.062167 0 0 1.146394 159.297334 170.442028)" fill="#fdfdfd" stroke-width="0"/><rect width="17.50639" height="15.38117" rx="0" ry="0" transform="matrix(1.062167 0 0 1.146394 140.702581 170.442028)" fill="#d11212" stroke-width="0"/><rect width="17.50639" height="15.38117" rx="0" ry="0" transform="matrix(1.062167 0 0 1.146394 122.107915 170.442028)" fill="#fdfdfd" stroke-width="0"/><rect width="17.50639" height="15.38117" rx="0" ry="0" transform="matrix(1.062167 0 0 1.146394 103.513201 170.442028)" fill="#d11212" stroke-width="0"/><rect width="17.50639" height="15.38117" rx="0" ry="0" transform="matrix(1.062167 0 0 1.146394 159.589851 135.176264)" fill="#fdfdfd" stroke-width="0"/><rect width="17.50639" height="15.38117" rx="0" ry="0" transform="matrix(1.062167 0 0 1.146394 140.995098 135.176264)" fill="#d11212" stroke-width="0"/><rect width="17.50639" height="15.38117" rx="0" ry="0" transform="matrix(1.062167 0 0 1.146394 122.400432 135.176264)" fill="#fdfdfd" stroke-width="0"/><rect width="17.50639" height="15.38117" rx="0" ry="0" transform="matrix(1.062167 0 0 1.146394 103.805718 135.176264)" fill="#d11212" stroke-width="0"/><rect width="17.50639" height="15.38117" rx="0" ry="0" transform="matrix(1.062167 0 0 1.146394 159.589851 117.543382)" fill="#d11212" stroke-width="0"/><rect width="17.50639" height="15.38117" rx="0" ry="0" transform="matrix(1.062167 0 0 1.146394 140.995141 117.543382)" fill="#fdfdfd" stroke-width="0"/><rect width="17.50639" height="15.38117" rx="0" ry="0" transform="matrix(1.062167 0 0 1.146394 178.184561 117.543382)" fill="#fdfdfd" stroke-width="0"/><rect width="17.50639" height="15.38117" rx="0" ry="0" transform="matrix(1.062167 0 0 1.146394 178.184561 152.809146)" fill="#fdfdfd" stroke-width="0"/><rect width="17.50639" height="15.38117" rx="0" ry="0" transform="matrix(1.062167 0 0 1.146394 159.297256 188.07491)" fill="#d11212" stroke-width="0"/><rect width="17.50639" height="15.38117" rx="0" ry="0" transform="matrix(1.062167 0 0 1.146394 140.702546 188.07491)" fill="#fdfdfd" stroke-width="0"/><rect width="17.50639" height="15.38117" rx="0" ry="0" transform="matrix(1.062167 0 0 1.146394 122.107794 188.07491)" fill="#d11212" stroke-width="0"/><rect width="17.50639" height="15.38117" rx="0" ry="0" transform="matrix(1.062167 0 0 1.146394 159.297334 152.809146)" fill="#d11212" stroke-width="0"/><rect width="17.50639" height="15.38117" rx="0" ry="0" transform="matrix(1.062167 0 0 1.146394 140.702624 152.809146)" fill="#fdfdfd" stroke-width="0"/><rect width="17.50639" height="15.38117" rx="0" ry="0" transform="matrix(1.062167 0 0 1.146394 122.107872 152.809146)" fill="#d11212" stroke-width="0"/><rect width="17.50639" height="15.38117" rx="0" ry="0" transform="matrix(1.062167 0 0 1.146394 103.513204 152.809146)" fill="#fdfdfd" stroke-width="0"/><rect width="17.50639" height="15.38117" rx="0" ry="0" transform="matrix(1.062167 0 0 1.146394 122.400389 117.543382)" fill="#d11212" stroke-width="0"/><rect width="17.50639" height="15.38117" rx="0" ry="0" transform="matrix(1.062167 0 0 1.146394 103.805721 117.543382)" fill="#fdfdfd" stroke-width="0"/><rect width="18" height="27.766525" rx="0" ry="0" transform="translate(103.805718 72.143976)" fill="#3169da" stroke-width="0"/><rect width="18" height="27.766525" rx="0" ry="0" transform="translate(122.400389 72.143976)" fill="#063697" stroke-width="0"/><rect width="18" height="27.766525" rx="0" ry="0" transform="matrix(1 0 0 0.331431 122.400389 77.425895)" fill="#d11212" stroke-width="0"/><rect width="18" height="27.766525" rx="0" ry="0" transform="matrix(1 0 0 0.331431 122.400389 88.425895)" fill="#d11212" stroke-width="0"/><rect width="18" height="27.766525" rx="0" ry="0" transform="translate(141.589808 72.143976)" fill="#3169da" stroke-width="0"/><rect width="18" height="27.766525" rx="0" ry="0" transform="translate(160.184561 72.143976)" fill="#063697" stroke-width="0"/><rect width="18" height="27.766525" rx="0" ry="0" transform="translate(178.779271 72.143976)" fill="#3169da" stroke-width="0"/><rect width="18" height="27.766525" rx="0" ry="0" transform="matrix(1 0 0 0.288117 178.779271 84.027234)" fill="#d11212" stroke-width="0"/><polygon points="0, -4.601343 1.352301, -1.861283 4.376138, -1.421893 2.188069,0.710947 2.704602,3.722565 0,2.300672 -2.704602,3.722565 -2.188069,0.710947 -4.376138, -1.421893 -1.352301, -1.861283 0, -4.601343" transform="matrix(-1 0 0 -1 112.687982 80.425895)" fill="#dcaa00" stroke-width="0"/><polygon points="0, -4.601343 1.352301, -1.861283 4.376138, -1.421893 2.188069,0.710947 2.704602,3.722565 0,2.300672 -2.704602,3.722565 -2.188069,0.710947 -4.376138, -1.421893 -1.352301, -1.861283 0, -4.601343" transform="matrix(-1 0 0 -1 147.687982 80.425895)" fill="#dcaa00" stroke-width="0"/><polygon points="0, -4.601343 1.352301, -1.861283 4.376138, -1.421893 2.188069,0.710947 2.704602,3.722565 0,2.300672 -2.704602,3.722565 -2.188069,0.710947 -4.376138, -1.421893 -1.352301, -1.861283 0, -4.601343" transform="matrix(-1 0 0 -1 154.687982 80.425895)" fill="#dcaa00" stroke-width="0"/><polygon points="0, -4.601343 1.352301, -1.861283 4.376138, -1.421893 2.188069,0.710947 2.704602,3.722565 0,2.300672 -2.704602,3.722565 -2.188069,0.710947 -4.376138, -1.421893 -1.352301, -1.861283 0, -4.601343" transform="matrix(-1 0 0 -1 150.687982 89.425895)" fill="#dcaa00" stroke-width="0"/><polygon points="0, -4.601343 1.352301, -1.861283 4.376138, -1.421893 2.188069,0.710947 2.704602,3.722565 0,2.300672 -2.704602,3.722565 -2.188069,0.710947 -4.376138, -1.421893 -1.352301, -1.861283 0, -4.601343" transform="matrix(-1 0 0 -1 188.687982 77.425895)" fill="#dcaa00" stroke-width="0"/><polygon points="0, -4.601343 1.352301, -1.861283 4.376138, -1.421893 2.188069,0.710947 2.704602,3.722565 0,2.300672 -2.704602,3.722565 -2.188069,0.710947 -4.376138, -1.421893 -1.352301, -1.861283 0, -4.601343" transform="matrix(-1 0 0 -1 169.687982 85.425895)" fill="#dcaa00" stroke-width="0"/></svg>
