<svg id="eZ4nJjrSBFL1" xmlns="http://www.w3.org/2000/svg" xmlns:xlink="http://www.w3.org/1999/xlink" viewBox="0 0 300 300" shape-rendering="geometricPrecision" text-rendering="geometricPrecision" project-id="169a27414de84e7fac98fb26309ce006" export-id="eaadefecd86a4e1bb9d832aef808271e" cached="false"><rect width="300" height="150" rx="0" ry="0" fill="#00349e" stroke-width="0"/><rect width="300" height="150" rx="0" ry="0" transform="translate(0 150)" fill="#d10000" stroke-width="0"/><rect width="169.191273" height="114.105742" rx="0" ry="0" transform="translate(65.404364 92.947129)" fill="#fff" stroke-width="0"/><rect width="17.726987" height="57.387474" rx="0" ry="0" transform="matrix(.45845 0 0 1 147.3642 123.558319)" fill="#fab514" stroke-width="0"/><polygon points="4.756549,-41.041411 14.994806,-0.014599 37.262038,38.972096 13.79543,11.539306 24.817407,38.670324 2.759091,16.02282 -9.836973,10.073311 -6.196141,-6.020828 -5.819951,-36.744708 4.840197,-10.50434 4.756549,-41.041411" transform="matrix(-.376377 0.926467-.926467-.376377 155.630175 110.464695)" fill="#035c0c" stroke-width="0"/><polygon points="4.756549,-41.041411 52.675885,77.70085 52.078415,76.230152 34.666929,62.915303 22.383644,45.016444 8.977167,31.328854 -9.836973,10.073311 -15.100486,-19.769135 -11.601296,-80.519907 4.482133,-40.92993 4.756549,-41.041411" transform="matrix(-.376377 0.926467-.926467-.376377 155.630176 187.49524)" fill="#035c0c" stroke-width="0"/><polygon points="4.756549,-41.041411 9.279487,0.637086 37.262038,38.972096 12.918815,19.866753 24.817407,38.670324 2.759091,16.02282 -9.836973,10.073311 -6.196141,-6.020828 -5.819951,-36.744708 0.235576,-11.964775 4.756549,-41.041411" transform="matrix(.513876-1.364452 1.443547 0.543665 144.31183 172.443038)" fill="#00349e" stroke-width="0"/><polygon points="16.140594,-32.286081 14.994806,-0.014599 39.143715,28.792167 13.79543,11.539306 28.68409,36.333404 2.759091,16.02282 -9.836973,10.073311 -6.196141,-6.020828 1.368984,-36.194096 4.840197,-10.50434 16.140594,-32.286081" transform="matrix(.35245-.935831 0.935831 0.35245 147.751795 179.654526)" fill="#d10000" stroke-width="0"/><polygon points="4.369345,-31.097963 14.994806,-0.014599 37.262038,38.972096 23.044973,34.175145 6.382154,1.726089 -3.104977,5.299107 -12.270067,0.961824 -12.76939,-10.358338 -5.899594,-19.613301 0.89368,-20.99705 4.369345,-31.097963" transform="matrix(.35245-.935831 0.935831 0.35245 185.030667 186.292191)" fill="#fab514" stroke-width="0"/><polygon points="4.369345,-31.097963 14.994806,-0.014599 37.262038,38.972096 23.044973,34.175145 6.382154,1.726089 -3.104977,5.299107 -12.270067,0.961824 -12.76939,-10.358338 -5.899594,-19.613301 0.89368,-20.99705 4.369345,-31.097963" transform="matrix(-.324181-.945995-.899144 0.308126 120.880427 185.292542)" fill="#fab514" stroke-width="0"/><polygon points="8.201641,-27.317716 14.994806,-0.014599 37.262038,38.972096 29.837279,33.045701 14.801944,5.777692 10.574582,-4.087933 5.133005,-10.867666 0.145377,-10.279694 -1.864397,-17.147375 -0.622112,-26.054785 8.201641,-27.317716" transform="matrix(-.737794-.675025-.641594 0.701254 212.771413 155.320364)" fill="#fab514" stroke-width="0"/><polygon points="8.201641,-27.317716 14.994806,-0.014599 37.262038,38.972096 29.837279,33.045701 14.801944,5.777692 10.574582,-4.087933 5.133005,-10.867666 0.145377,-10.279694 -1.864397,-17.147375 -0.622112,-26.054785 8.201641,-27.317716" transform="matrix(-.692653-.721271-.685549 0.658349 214.61593 168.418928)" fill="#fab514" stroke-width="0"/><polygon points="8.201641,-27.317716 14.994806,-0.014599 37.262038,38.972096 29.837279,33.045701 14.801944,5.777692 10.574582,-4.087933 5.133005,-10.867666 0.145377,-10.279694 -1.864397,-17.147375 -0.622112,-26.054785 8.201641,-27.317716" transform="matrix(.452865-.504897 0.591585 0.530619 90.764327 152.414996)" fill="#fab514" stroke-width="0"/><polygon points="8.201641,-27.317716 14.994806,-0.014599 37.262038,38.972096 29.837279,33.045701 14.801944,5.777692 10.574582,-4.087933 5.133005,-10.867666 0.145377,-10.279694 -1.864397,-17.147375 -0.622112,-26.054785 8.201641,-27.317716" transform="matrix(.418371-.533829 0.625484 0.490203 91.752263 167.946756)" fill="#fab514" stroke-width="0"/></svg>
