<svg id="eyhDM3Zlvro1" xmlns="http://www.w3.org/2000/svg" xmlns:xlink="http://www.w3.org/1999/xlink" viewBox="0 0 300 300" shape-rendering="geometricPrecision" text-rendering="geometricPrecision" project-id="169a27414de84e7fac98fb26309ce006" export-id="b10206317f5943b081bd23d9a10568ea" cached="false"><rect width="300" height="300" rx="0" ry="0" fill="#fff" stroke-width="0"/><rect width="300" height="114.749082" rx="0" ry="0" transform="matrix(1 0 0 0.593704 0 17.909985)" fill="#000d87" stroke-width="0"/><rect width="300" height="114.749082" rx="0" ry="0" transform="matrix(1 0 0 0.593704 0 216.838749)" fill="#000d87" stroke-width="0"/><polygon points="0, -61.661653 58.207451,49.885325 58.207451,49.885325 36.24381,49.885325 36.24381,49.885325 0,49.885325 -36.24381,49.885325 -55.648882,49.885325 -55.648882,49.885325 -55.648882,49.885325 0, -61.661653" transform="matrix(.604396 0 0 0.58391 149.226806 140.536748)" fill="none" stroke="#000d87" stroke-width="4"/><polygon points="0, -61.661653 58.207451,49.885325 58.207451,49.885325 36.24381,49.885325 36.24381,49.885325 0,49.885325 -36.24381,49.885325 -55.648882,49.885325 -55.648882,49.885325 -55.648882,49.885325 0, -61.661653" transform="matrix(-.604396 0 0 -.58391 149.226806 155.536748)" fill="none" stroke="#000d87" stroke-width="4"/></svg>
