<svg id="eJ6ioR3OWqY1" xmlns="http://www.w3.org/2000/svg" xmlns:xlink="http://www.w3.org/1999/xlink" viewBox="0 0 300 300" shape-rendering="geometricPrecision" text-rendering="geometricPrecision" project-id="169a27414de84e7fac98fb26309ce006" export-id="84551ced09904c6e9aef375915563a69" cached="false"><rect width="300" height="99.944025" rx="0" ry="0" transform="translate(0 0.000001)" fill="#d65e00" stroke-width="0"/><rect width="300" height="99.784201" rx="0" ry="0" transform="translate(0 99.944026)" fill="#fff" stroke-width="0"/><rect width="300" height="100.271773" rx="0" ry="0" transform="translate(0 199.728228)" fill="#005106" stroke-width="0"/><ellipse rx="44.455142" ry="44.455141" transform="translate(150 149.836127)" fill="none" stroke="#000653" stroke-width="4"/><ellipse rx="12.792846" ry="13.112668" transform="translate(150 150)" fill="#000653" stroke="#000653"/><line x1="-36.139791" y1="-15.913085" x2="36.139792" y2="15.913084" transform="translate(151.164969 149.199584)" fill="none" stroke="#000653" stroke-width="3"/><line x1="-36.139791" y1="-15.913085" x2="36.139792" y2="15.913084" transform="matrix(.970038 0.242955-.242955 0.970038 151.164969 149.199584)" fill="none" stroke="#000653" stroke-width="3"/><line x1="-36.139791" y1="-15.913085" x2="36.139792" y2="15.913084" transform="matrix(.864344 0.502901-.502901 0.864344 151.164969 149.199584)" fill="none" stroke="#000653" stroke-width="3"/><line x1="-36.139791" y1="-15.913085" x2="36.139792" y2="15.913084" transform="matrix(.711094 0.703097-.703097 0.711094 151.164969 149.199584)" fill="none" stroke="#000653" stroke-width="3"/><line x1="-36.139791" y1="-15.913085" x2="36.139792" y2="15.913084" transform="matrix(.503828 0.863804-.863804 0.503828 151.164969 149.199584)" fill="none" stroke="#000653" stroke-width="3"/><line x1="-36.139791" y1="-15.913085" x2="36.139792" y2="15.913084" transform="matrix(.271862 0.962336-.962336 0.271862 151.164969 149.199584)" fill="none" stroke="#000653" stroke-width="3"/><line x1="-36.139791" y1="-15.913085" x2="36.139792" y2="15.913084" transform="matrix(.036362 0.999339-.999339 0.036362 151.164969 149.199584)" fill="none" stroke="#000653" stroke-width="3"/><line x1="-36.139791" y1="-15.913085" x2="36.139792" y2="15.913084" transform="matrix(-.183844 0.982955-.982955-.183844 151.164969 149.199584)" fill="none" stroke="#000653" stroke-width="3"/><line x1="-36.139791" y1="-15.913085" x2="36.139792" y2="15.913084" transform="matrix(-.399845 0.916583-.916583-.399845 151.164969 149.199584)" fill="none" stroke="#000653" stroke-width="3"/><line x1="-36.139791" y1="-15.913085" x2="36.139792" y2="15.913084" transform="matrix(-.601375 0.798967-.798967-.601375 151.164969 149.199584)" fill="none" stroke="#000653" stroke-width="3"/><line x1="-36.139791" y1="-15.913085" x2="36.139792" y2="15.913084" transform="matrix(-.779922 0.625877-.625877-.779922 151.164969 149.199584)" fill="none" stroke="#000653" stroke-width="3"/><line x1="-36.139791" y1="-15.913085" x2="36.139792" y2="15.913084" transform="matrix(-.905799 0.423707-.423707-.905799 151.164969 149.199584)" fill="none" stroke="#000653" stroke-width="3"/><line x1="-36.139791" y1="-15.913085" x2="36.139792" y2="15.913084" transform="matrix(-.976118 0.217241-.217241-.976118 151.164969 149.199584)" fill="none" stroke="#000653" stroke-width="3"/></svg>
