<svg id="eR3DJKCkcHb1" xmlns="http://www.w3.org/2000/svg" xmlns:xlink="http://www.w3.org/1999/xlink" viewBox="0 0 300 300" shape-rendering="geometricPrecision" text-rendering="geometricPrecision" project-id="169a27414de84e7fac98fb26309ce006" export-id="13157726593e4130ac461114699e2845" cached="false"><rect width="300" height="100.271773" rx="0" ry="0" transform="translate(0 199.728228)" fill="#da0303" stroke-width="0"/><rect width="300" height="100.271773" rx="0" ry="0" transform="translate(0 99.456455)" fill="#fff" stroke-width="0"/><rect width="300" height="100.271773" rx="0" ry="0" fill="#008f03" stroke-width="0"/><g><ellipse rx="45.094784" ry="40.617288" transform="translate(150 149.592342)" fill="#bd0210" stroke-width="0"/><ellipse rx="45.094784" ry="40.617288" transform="matrix(.877798 0 0 1.110237 150 153.069848)" fill="#fff" stroke-width="0"/></g><g transform="matrix(-.471367 0.003014 -.001238 -.193671 221.150581 207.626068)"><ellipse rx="58.339715" ry="40.617288" transform="translate(150.48132 152.39418)" fill="#bd0210" stroke-width="0"/><ellipse rx="60.053201" ry="96.865914" transform="matrix(.883152 0 0 -.399776 150.338201 171.596751)" fill="#fff" stroke-width="0"/></g><rect width="6.369159" height="6.759924" rx="0" ry="0" transform="matrix(.702191 0.711988 -.711988 0.702191 150.168648 180.717881)" fill="#bd0210" stroke-width="0"/><g transform="matrix(-.471362 0.003014 -.006082 -.951134 221.641447 292.444545)"><ellipse rx="45.094784" ry="40.617288" transform="translate(149.964795 152.592282)" fill="#bd0210" stroke-width="0"/><ellipse rx="45.094784" ry="40.617288" transform="matrix(.883152 0 0 0.889765 149.951013 158.139423)" fill="#fff" stroke-width="0"/></g><g transform="matrix(1 0 0 1.275778 0.30558 -32.75988)"><rect width="6.369159" height="53.007649" rx="0" ry="0" transform="translate(146.813759 116.101042)" fill="#bd0210" stroke-width="0"/><ellipse rx="3.090283" ry="2.260859" transform="matrix(1.03065 0 0 1 150.025581 116.035806)" fill="#bd0210" stroke-width="0"/></g><polygon points="11.163493, -3.321898 11.163493, -3.321898 15.975207, 1.801746 17.0454, 9.227432 15.975207, 17.977822 11.163493, 24.638559 11.163493, 14.537661 17.0454, 9.721532 11.163493, 6.559415 11.163493, -3.321898 11.163493, -3.321898" transform="matrix(0 1 -1 0 159.980505 94.126605)" fill="#bd0210" stroke-width="0"/></svg>
