<svg id="eeWR86NQ5E21" xmlns="http://www.w3.org/2000/svg" xmlns:xlink="http://www.w3.org/1999/xlink" viewBox="0 0 300 300" shape-rendering="geometricPrecision" text-rendering="geometricPrecision" project-id="169a27414de84e7fac98fb26309ce006" export-id="c5b003dd62b2427fa7b2adf42988a85f" cached="false"><rect width="300" height="300" rx="0" ry="0" fill="#d60000" stroke-width="0"/><polygon points="-3.338652,-111.113832 -3.338655,-111.113833 -2.306649,-111.74518 -2.473986,-111.642809 164.243941,-71.148955 -42.406552,55.272464 -42.406555,55.27246 -42.406527,55.272508 -42.406525,55.27251 -42.436125,55.290615 -3.338652,-111.113832" transform="matrix(-.521856 0.853034 -.853034 -.521856 25.019213 94.862578)" fill="#fff" stroke-width="0"/><polygon points="-3.338652,-111.113832 -3.338655,-111.113833 -2.306649,-111.74518 -2.473986,-111.642809 164.243941,-71.148955 -42.406552,55.272464 -42.406555,55.27246 -42.406527,55.272508 -42.406525,55.27251 -42.436125,55.290615 -3.338652,-111.113832" transform="matrix(.522604 -.852576 0.852576 0.522604 275.152776 206.723481)" fill="#fff" stroke-width="0"/><polygon points="-3.338652,-111.113832 -3.338655,-111.113833 -2.306649,-111.74518 -2.473986,-111.642809 164.243941,-71.148955 -42.406552,55.272464 -42.406555,55.27246 -42.406527,55.272508 -42.406525,55.27251 -42.436125,55.290615 -3.338652,-111.113832" transform="matrix(-.924045 -.531849 0.499644 -.86809 205.830463 25.50417)" fill="#fff" stroke-width="0"/><polygon points="-3.338652,-111.113832 -3.338655,-111.113833 -2.306649,-111.74518 -2.473986,-111.642809 164.243941,-71.148955 -42.406552,55.272464 -42.406555,55.27246 -42.406527,55.272508 -42.406525,55.27251 -42.436125,55.290615 -3.338652,-111.113832" transform="matrix(.874788 0.526098 -.516208 0.858344 93.056615 274.819421)" fill="#fff" stroke-width="0"/><rect width="39.438466" height="44.560416" rx="0" ry="0" transform="matrix(1 0 0 0.859196 130.498984 24.753455)" fill="#d60000" stroke-width="0"/><ellipse rx="19.719233" ry="8.000764" transform="translate(150.218217 63.392945)" fill="#d60000" stroke-width="0"/><polygon points="4.966237,-29.480723 10.73486,-20.857916 10.642515,-20.505909 4.33718,1.043015 0.634731,17.641657 0.024619,17.481597 -9.150958,24.331062 -3.836831,4.074723 -13.058002,-6.111473 0.024619,-10.644307 4.966237,-29.480723" transform="matrix(.253757 0.967268 -.967268 0.253757 147.402127 20.293566)" fill="#f3c300" stroke-width="0"/><polygon points="-0.697818,-11.022713 9.266359,-17.74598 5.752831,-4.353152 3.339021,4.847785 1.198074,13.008627 -5.371667,6.793025 -12.122092,12.298488 -10.336094,5.490638 -4.333305,2.834997 -2.602909,-3.760902 -0.697818,-11.022713" transform="matrix(.253757 0.967268 -.967268 0.253757 147.727739 38.923527)" fill="#f3c300" stroke-width="0"/><polygon points="-0.697818,-11.022713 9.266359,-17.74598 5.752831,-4.353152 3.339021,4.847785 1.198074,13.008627 -5.371667,6.793025 -12.122092,12.298488 -10.336094,5.490638 -4.333305,2.834997 -2.602909,-3.760902 -0.697818,-11.022713" transform="matrix(.253757 0.967268 -.967268 0.253757 148.071186 53.079705)" fill="#f3c300" stroke-width="0"/><polygon points="-2.365777,-6.483019 2.058084,-7.968547 0.122105,-2.081375 3.339021,4.847785 -2.681997,10.099649 -5.371667,6.793025 -7.659324,13.69487 -9.051437,3.624005 -4.333305,2.834997 -3.472656,-2.263829 -2.365777,-6.483019" transform="matrix(.253757 0.967268 -.967268 0.253757 150.326054 65.753842)" fill="#f3c300" stroke-width="0"/></svg>
