<svg id="e8mD1GWOskb1" xmlns="http://www.w3.org/2000/svg" xmlns:xlink="http://www.w3.org/1999/xlink" viewBox="0 0 300 300" shape-rendering="geometricPrecision" text-rendering="geometricPrecision" project-id="169a27414de84e7fac98fb26309ce006" export-id="aaff42d0616a4a68b60b8b3d75489b1a" cached="false"><rect width="300" height="300" rx="0" ry="0" fill="#ffd300" stroke-width="0"/><polygon points="-3.338652, -111.113832 -3.338655, -111.113833 -2.306649, -111.74518 -2.473986, -111.642809 164.243941, -71.148955 -42.406552,55.272464 -42.406555,55.27246 -42.406527,55.272508 -42.406525,55.27251 -42.436125,55.290615 -3.338652, -111.113832" transform="matrix(-.521856 0.853034 -.853034 -.521856 25.019213 94.862578)" fill="#050000" stroke-width="0"/><polygon points="-3.338652, -111.113832 -3.338655, -111.113833 -2.306649, -111.74518 -2.473986, -111.642809 164.243941, -71.148955 -42.406552,55.272464 -42.406555,55.27246 -42.406527,55.272508 -42.406525,55.27251 -42.436125,55.290615 -3.338652, -111.113832" transform="matrix(.522604 -.852576 0.852576 0.522604 275.152776 206.723481)" fill="#050000" stroke-width="0"/><polygon points="-3.338652, -111.113832 -3.338655, -111.113833 -2.306649, -111.74518 -2.473986, -111.642809 164.243941, -71.148955 -42.406552,55.272464 -42.406555,55.27246 -42.406527,55.272508 -42.406525,55.27251 -42.436125,55.290615 -3.338652, -111.113832" transform="matrix(-.924045 -.531849 0.499644 -.86809 205.830463 25.50417)" fill="#006e12" stroke-width="0"/><polygon points="-3.338652, -111.113832 -3.338655, -111.113833 -2.306649, -111.74518 -2.473986, -111.642809 164.243941, -71.148955 -42.406552,55.272464 -42.406555,55.27246 -42.406527,55.272508 -42.406525,55.27251 -42.436125,55.290615 -3.338652, -111.113832" transform="matrix(.874788 0.526098 -.516208 0.858344 93.056615 274.819421)" fill="#006e12" stroke-width="0"/></svg>
