<svg id="e6fvYZkwAdU1" xmlns="http://www.w3.org/2000/svg" xmlns:xlink="http://www.w3.org/1999/xlink" viewBox="0 0 300 300" shape-rendering="geometricPrecision" text-rendering="geometricPrecision" project-id="169a27414de84e7fac98fb26309ce006" export-id="988c2d7fbfee45b3bfc61888b6d5d4d5" cached="false"><rect width="300" height="100.264262" rx="0" ry="0" fill="#02050b" stroke-width="0"/><rect width="300.000004" height="100.047269" rx="0" ry="0" transform="translate(-.000004 100.264263)" fill="#fff" stroke-width="0"/><rect width="300.000004" height="99.688468" rx="0" ry="0" transform="translate(-.000004 200.311532)" fill="#0f4e00" stroke-width="0"/><polygon points="-39.581142,53.70323 -39.581146,53.703237 -39.581144,53.703233 1.34637,-113.213436 164.188527,-71.261863 -39.581141,53.70323 -39.58114,53.703233 -39.581141,53.70323 -39.581142,53.703235 -39.581142,53.703233 -39.581142,53.70323" transform="matrix(-.648652 1.084165-1.0577-.632818 31.127514 76.896837)" fill="#cd0000" stroke-width="0"/><polygon points="0,-16.557849 4.86623,-6.697791 15.74745,-5.116657 7.873725,2.558328 9.732459,13.395581 0,8.278924 -9.732459,13.395581 -7.873725,2.558328 -15.74745,-5.116657 -4.86623,-6.697791 0,-16.557849" transform="translate(49.848957 149.878268)" fill="#fff" stroke-width="0"/><polygon points="0,-16.557849 4.86623,-6.697791 15.74745,-5.116657 7.873725,2.558328 9.732459,13.395581 0,8.278924 -9.732459,13.395581 -7.873725,2.558328 -15.74745,-5.116657 -4.86623,-6.697791 0,-16.557849" transform="matrix(.792205 0.610255-.610255 0.792205 49.848957 149.878268)" fill="#fff" stroke-width="0"/></svg>
