<svg id="epIeUAdh3KJ1" xmlns="http://www.w3.org/2000/svg" xmlns:xlink="http://www.w3.org/1999/xlink" viewBox="0 0 300 300" shape-rendering="geometricPrecision" text-rendering="geometricPrecision" project-id="169a27414de84e7fac98fb26309ce006" export-id="5a07786df9374623aa401fcc3a4ef9ac" cached="false"><rect width="300" height="300" rx="0" ry="0" fill="#fff" stroke-width="0"/><rect width="300" height="109.026224" rx="0" ry="0" transform="matrix(1 0 0 0.87135 0 0)" fill="#02050b" stroke-width="0"/><rect width="300" height="109.026224" rx="0" ry="0" transform="matrix(1 0 0 0.87135 0 102.5)" fill="#ae0303" stroke="#02050b"/><rect width="300" height="109.026224" rx="0" ry="0" transform="matrix(1 0 0 0.87135 0 205)" fill="#004e00" stroke-width="0"/><ellipse rx="27.244732" ry="94.118164" transform="matrix(1.159091 0 0 0.853451 150 151.366581)" fill="#ae0303" stroke-width="0"/><ellipse rx="27.244732" ry="94.118164" transform="matrix(.272728 0 0 0.468915 125.851277 151)" fill="#0b0202" stroke-width="0"/><ellipse rx="27.244732" ry="94.118164" transform="matrix(.272728 0 0 0.468915 174.148723 151.366581)" fill="#0b0202" stroke-width="0"/><ellipse rx="5.263187" ry="6.896417" transform="translate(150.299887 150)" fill="#f6f6f8" stroke-width="0"/><ellipse rx="5.263187" ry="6.896417" transform="matrix(1 0 0 4.254468 150 113.762998)" fill="#fff" stroke-width="0"/><ellipse rx="5.263187" ry="6.896417" transform="matrix(.548184 0.25089 -.884931 1.933536 174.148723 68.235003)" fill="#fff" stroke-width="0"/><ellipse rx="5.263187" ry="6.896417" transform="matrix(.548508 -.250179 0.882424 1.934682 125.851277 69.767459)" fill="#fff" stroke-width="0"/><ellipse rx="5.263187" ry="6.896417" transform="matrix(1 0 0 4.254468 150.299887 187.722421)" fill="#fff" stroke-width="0"/><line x1="-5.93662" y1="-9.581803" x2="5.936619" y2="9.581802" transform="translate(177.20015 226.644809)" fill="none" stroke="#fff" stroke-width="3"/><line x1="4.486233" y1="-9.581803" x2="-4.486233" y2="9.581802" transform="matrix(1.000001 0 0 1 127.450607 226.644809)" fill="none" stroke="#fff" stroke-width="3"/></svg>
