<svg id="eXiTdansPGo1" xmlns="http://www.w3.org/2000/svg" xmlns:xlink="http://www.w3.org/1999/xlink" viewBox="0 0 300 300" shape-rendering="geometricPrecision" text-rendering="geometricPrecision" project-id="169a27414de84e7fac98fb26309ce006" export-id="7caba476944b48edae448a46ef5d0244" cached="false"><rect width="300" height="300" rx="0" ry="0" fill="#f30101" stroke-width="0"/><line x1="0" y1="-73.062595" x2="0" y2="73.062595" transform="matrix(.999935 0.011384 -.011384 0.999935 150 150.542803)" fill="none" stroke="#ffe300" stroke-width="3"/><line x1="0" y1="-73.062595" x2="0" y2="73.062595" transform="matrix(.996744 0.080636 -.080636 0.996744 150 150.542803)" fill="none" stroke="#ffe300" stroke-width="3"/><line x1="0" y1="-73.062595" x2="0" y2="73.062595" transform="matrix(.987983 0.154563 -.154563 0.987983 150 150.542803)" fill="none" stroke="#ffe300" stroke-width="3"/><line x1="0" y1="-73.062595" x2="0" y2="73.062595" transform="matrix(.972799 0.231649 -.231649 0.972799 150 150.542803)" fill="none" stroke="#ffe300" stroke-width="3"/><line x1="0" y1="-73.062595" x2="0" y2="73.062595" transform="matrix(.953446 0.301562 -.301562 0.953446 150 150.542803)" fill="none" stroke="#ffe300" stroke-width="3"/><line x1="0" y1="-73.062595" x2="0" y2="73.062595" transform="matrix(.927882 0.372874 -.372874 0.927882 150 150.542803)" fill="none" stroke="#ffe300" stroke-width="3"/><line x1="0" y1="-73.062595" x2="0" y2="73.062595" transform="matrix(.898976 0.437997 -.437997 0.898976 150 150.542803)" fill="none" stroke="#ffe300" stroke-width="3"/><line x1="0" y1="-73.062595" x2="0" y2="73.062595" transform="matrix(.863415 0.504495 -.504495 0.863415 150 150.542803)" fill="none" stroke="#ffe300" stroke-width="3"/><line x1="0" y1="-73.062595" x2="0" y2="73.062595" transform="matrix(.823118 0.56787 -.56787 0.823118 150 150.542803)" fill="none" stroke="#ffe300" stroke-width="3"/><line x1="0" y1="-73.062595" x2="0" y2="73.062595" transform="matrix(.780148 0.625595 -.625595 0.780148 150 150.542803)" fill="none" stroke="#ffe300" stroke-width="3"/><line x1="0" y1="-73.062595" x2="0" y2="73.062595" transform="matrix(.733486 0.679704 -.679704 0.733486 150 150.542803)" fill="none" stroke="#ffe300" stroke-width="3"/><line x1="0" y1="-73.062595" x2="0" y2="73.062595" transform="matrix(.682499 0.730886 -.730886 0.682499 150 150.542803)" fill="none" stroke="#ffe300" stroke-width="3"/><line x1="0" y1="-73.062595" x2="0" y2="73.062595" transform="matrix(.627938 0.778264 -.778264 0.627938 150 150.542803)" fill="none" stroke="#ffe300" stroke-width="3"/><line x1="0" y1="-73.062595" x2="0" y2="73.062595" transform="matrix(.569035 0.822313 -.822313 0.569035 150 150.542803)" fill="none" stroke="#ffe300" stroke-width="3"/><line x1="0" y1="-73.062595" x2="0" y2="73.062595" transform="matrix(.506783 0.862074 -.862074 0.506783 150 150.542803)" fill="none" stroke="#ffe300" stroke-width="3"/><line x1="0" y1="-73.062595" x2="0" y2="73.062595" transform="matrix(.441695 0.897165 -.897165 0.441695 150 150.542803)" fill="none" stroke="#ffe300" stroke-width="3"/><line x1="0" y1="-73.062595" x2="0" y2="73.062595" transform="matrix(.377708 0.925925 -.925925 0.377708 150 150.542803)" fill="none" stroke="#ffe300" stroke-width="3"/><line x1="0" y1="-73.062595" x2="0" y2="73.062595" transform="matrix(.31027 0.950648 -.950648 0.31027 150 150.542803)" fill="none" stroke="#ffe300" stroke-width="3"/><line x1="0" y1="-73.062595" x2="0" y2="73.062595" transform="matrix(.238678 0.971099 -.971099 0.238678 150 150.542803)" fill="none" stroke="#ffe300" stroke-width="3"/><line x1="0" y1="-73.062595" x2="0" y2="73.062595" transform="matrix(.163181 0.986596 -.986596 0.163181 150 150.542803)" fill="none" stroke="#ffe300" stroke-width="3"/><line x1="0" y1="-73.062595" x2="0" y2="73.062595" transform="matrix(.088453 0.99608 -.99608 0.088453 150 150.542803)" fill="none" stroke="#ffe300" stroke-width="3"/><line x1="0" y1="-73.062595" x2="0" y2="73.062595" transform="matrix(.012187 0.999926 -.999926 0.012187 150 150.542803)" fill="none" stroke="#ffe300" stroke-width="3"/><line x1="0" y1="-73.062595" x2="0" y2="73.062595" transform="matrix(-.060007 0.998198 -.998198 -.060007 150 150.542803)" fill="none" stroke="#ffe300" stroke-width="3"/><line x1="0" y1="-73.062595" x2="0" y2="73.062595" transform="matrix(-.136122 0.990692 -.990692 -.136122 150 150.542803)" fill="none" stroke="#ffe300" stroke-width="3"/><line x1="0" y1="-73.062595" x2="0" y2="73.062595" transform="matrix(-.213917 0.976852 -.976852 -.213917 150 150.542803)" fill="none" stroke="#ffe300" stroke-width="3"/><line x1="0" y1="-73.062595" x2="0" y2="73.062595" transform="matrix(-.289395 0.95721 -.95721 -.289395 150 150.542803)" fill="none" stroke="#ffe300" stroke-width="3"/><line x1="0" y1="-73.062595" x2="0" y2="73.062595" transform="matrix(-.356475 0.934305 -.934305 -.356475 150 150.542803)" fill="none" stroke="#ffe300" stroke-width="3"/><line x1="0" y1="-73.062595" x2="0" y2="73.062595" transform="matrix(-.423024 0.906118 -.906118 -.423024 150 150.542803)" fill="none" stroke="#ffe300" stroke-width="3"/><line x1="0" y1="-73.062595" x2="0" y2="73.062595" transform="matrix(-.489911 0.871772 -.871772 -.489911 150 150.542803)" fill="none" stroke="#ffe300" stroke-width="3"/><line x1="0" y1="-73.062595" x2="0" y2="73.062595" transform="matrix(-.554438 0.832225 -.832225 -.554438 150 150.542803)" fill="none" stroke="#ffe300" stroke-width="3"/><line x1="0" y1="-73.062595" x2="0" y2="73.062595" transform="matrix(-.616293 0.787517 -.787517 -.616293 150 150.542803)" fill="none" stroke="#ffe300" stroke-width="3"/><line x1="0" y1="-73.062595" x2="0" y2="73.062595" transform="matrix(-.672876 0.739755 -.739755 -.672876 150 150.542803)" fill="none" stroke="#ffe300" stroke-width="3"/><line x1="0" y1="-73.062595" x2="0" y2="73.062595" transform="matrix(-.724449 0.689329 -.689329 -.724449 150 150.542803)" fill="none" stroke="#ffe300" stroke-width="3"/><line x1="0" y1="-73.062595" x2="0" y2="73.062595" transform="matrix(-.77357 0.633711 -.633711 -.77357 150 150.542803)" fill="none" stroke="#ffe300" stroke-width="3"/><line x1="0" y1="-73.062595" x2="0" y2="73.062595" transform="matrix(-.816712 0.577045 -.577045 -.816712 150 150.542803)" fill="none" stroke="#ffe300" stroke-width="3"/><line x1="0" y1="-73.062595" x2="0" y2="73.062595" transform="matrix(-.856008 0.516962 -.516962 -.856008 150 150.542803)" fill="none" stroke="#ffe300" stroke-width="3"/><line x1="0" y1="-73.062595" x2="0" y2="73.062595" transform="matrix(-.890906 0.454189 -.454189 -.890906 150 150.542803)" fill="none" stroke="#ffe300" stroke-width="3"/><line x1="0" y1="-73.062595" x2="0" y2="73.062595" transform="matrix(-.919858 0.392252 -.392252 -.919858 150 150.542803)" fill="none" stroke="#ffe300" stroke-width="3"/><line x1="0" y1="-73.062595" x2="0" y2="73.062595" transform="matrix(-.945188 0.326527 -.326527 -.945188 150 150.542803)" fill="none" stroke="#ffe300" stroke-width="3"/><line x1="0" y1="-73.062595" x2="0" y2="73.062595" transform="matrix(-.965347 0.260971 -.260971 -.965347 150 150.542803)" fill="none" stroke="#ffe300" stroke-width="3"/><line x1="0" y1="-73.062595" x2="0" y2="73.062595" transform="matrix(-.98105 0.193756 -.193756 -.98105 150 150.542803)" fill="none" stroke="#ffe300" stroke-width="3"/><line x1="0" y1="-73.062595" x2="0" y2="73.062595" transform="matrix(-.991734 0.12831 -.12831 -.991734 150 150.542803)" fill="none" stroke="#ffe300" stroke-width="3"/><line x1="0" y1="-73.062595" x2="0" y2="73.062595" transform="matrix(-.998312 0.058072 -.058072 -.998312 150 150.542803)" fill="none" stroke="#ffe300" stroke-width="3"/><ellipse rx="50" ry="50" transform="translate(148.808816 149.676463)" fill="#ffe300" stroke-width="0"/><ellipse rx="45" ry="45" transform="translate(148.808816 150)" fill="#ffe300" stroke="#f30101" stroke-width="3"/><path d="M109.155306, 133.044015q48.588244 -3.470588, 70.279423, 47.720596" transform="matrix(1.01595 0 0 1.05202 -2.301505 -8.156444)" fill="none" stroke="#f30101" stroke-width="3"/><path d="M109.155306, 133.044015q48.588244 -3.470588, 70.279423, 47.720596" transform="matrix(1.01595 0 0 1.05202 -6.087518 -3.238219)" fill="none" stroke="#f30101" stroke-width="3"/><path d="" fill="none" stroke="#3f5787" stroke-width="0.6"/><path d="M109.155306, 133.044015q48.588244 -3.470588, 70.279423, 47.720596" transform="matrix(1.012215 0 0 1.06494 2.751235 -16.976644)" fill="none" stroke="#f30101" stroke-width="3"/><path d="M109.155306, 133.044015q48.588244 -3.470588, 70.279423, 47.720596" transform="matrix(1.01595 0 0 1.05202 7.403783 -20.962024)" fill="none" stroke="#f30101" stroke-width="3"/><path d="M189.700496, 131.577289q-51.909078 -.774801 -71.400379, 50.434252" transform="translate(.000001 0.000001)" fill="none" stroke="#f30101" stroke-width="3"/><path d="M189.700496, 131.577289q-51.909078 -.774801 -71.400379, 50.434252" transform="translate(4.10832 4.918226)" fill="none" stroke="#f30101" stroke-width="3"/><path d="M189.700496, 131.577289q-51.909078 -.774801 -71.400379, 50.434252" transform="translate(-4.000306 -6.48472)" fill="none" stroke="#f30101" stroke-width="3"/><path d="M189.700496, 131.577289q-51.909078 -.774801 -71.400379, 50.434252" transform="translate(-9.705288 -12.79433)" fill="none" stroke="#f30101" stroke-width="3"/></svg>
