<svg id="ex0N9fnAQKw1" xmlns="http://www.w3.org/2000/svg" xmlns:xlink="http://www.w3.org/1999/xlink" viewBox="0 0 300 300" shape-rendering="geometricPrecision" text-rendering="geometricPrecision" project-id="169a27414de84e7fac98fb26309ce006" export-id="58b96701ab7342a8963e288da27d3544" cached="false"><rect width="300" height="75" rx="0" ry="0" transform="translate(0 0.000001)" fill="#f3dc00" stroke-width="0"/><rect width="300" height="75" rx="0" ry="0" transform="translate(0 75.000001)" fill="#fff" stroke-width="0"/><rect width="300" height="75" rx="0" ry="0" transform="translate(0 150)" fill="#ff2933" stroke-width="0"/><rect width="300" height="75" rx="0" ry="0" transform="translate(0 225)" fill="#0542bc" stroke-width="0"/><polygon points="-79.759581, -112.5 -79.759581, -112.5 70.240419, 37.499999 -79.759581, 187.499999 -79.759581, 187.499999 -79.759581, 187.499999 -79.759581, 187.499999 -79.759581, 187.499999 -79.759581, -112.500001 -79.759581, -112.5 -79.759581, -112.5" transform="translate(79.759581 112.500001)" fill="#159115" stroke-width="0"/><ellipse rx="29.199059" ry="53.288283" transform="matrix(1.475 0 0 1 50.661174 150)" fill="#fff" stroke-width="0"/><ellipse rx="29.199059" ry="53.288283" transform="matrix(1.322257 0 0 1 65.230962 150)" fill="#159115" stroke-width="0"/><polygon points="0, -8.910498 2.61873, -3.604372 8.474388, -2.753495 4.237194, 1.376748 5.23746, 7.208745 0, 4.455249 -5.23746, 7.208745 -4.237194, 1.376748 -8.474388, -2.753495 -2.61873, -3.604372 0, -8.910498" transform="translate(56.756574 119.410499)" fill="#fff" stroke-width="0"/><polygon points="0, -8.910498 2.61873, -3.604372 8.474388, -2.753495 4.237194, 1.376748 5.23746, 7.208745 0, 4.455249 -5.23746, 7.208745 -4.237194, 1.376748 -8.474388, -2.753495 -2.61873, -3.604372 0, -8.910498" transform="translate(56.756574 140.791255)" fill="#fff" stroke-width="0"/><polygon points="0, -8.910498 2.61873, -3.604372 8.474388, -2.753495 4.237194, 1.376748 5.23746, 7.208745 0, 4.455249 -5.23746, 7.208745 -4.237194, 1.376748 -8.474388, -2.753495 -2.61873, -3.604372 0, -8.910498" transform="translate(57.756574 161.164626)" fill="#fff" stroke-width="0"/><polygon points="0, -8.910498 2.61873, -3.604372 8.474388, -2.753495 4.237194, 1.376748 5.23746, 7.208745 0, 4.455249 -5.23746, 7.208745 -4.237194, 1.376748 -8.474388, -2.753495 -2.61873, -3.604372 0, -8.910498" transform="translate(57.756574 181.291255)" fill="#fff" stroke-width="0"/></svg>
