<svg id="ebruMO1kvEU1" xmlns="http://www.w3.org/2000/svg" xmlns:xlink="http://www.w3.org/1999/xlink" viewBox="0 0 300 300" shape-rendering="geometricPrecision" text-rendering="geometricPrecision" project-id="169a27414de84e7fac98fb26309ce006" export-id="9083e6189070439fb591a1de1a796bdd" cached="false"><rect width="300" height="300" rx="0" ry="0" transform="translate(.561499 0)" fill="#fff" stroke-width="0"/><g transform="matrix(1 0.000052 -.000052 1 0.007105 -2.36171)"><ellipse rx="60.41112" ry="60.044992" transform="translate(150 150)" fill="#1044ac" stroke-width="0"/><ellipse rx="31.487008" ry="22.5" transform="matrix(.968241 0 0 1 120.075892 150)" fill="#dd2c2c" stroke-width="0"/><polygon points="4.191105,-28.323833 23.750572,-7.717029 49.059256,18.728229 45.282214,22.342938 41.367728,25.174794 37.594106,27.52082 33.876796,29.449371 29.977664,31.162903 26.16094,32.48656 20.756095,33.983048 12.131603,35.144084 1.139934,34.98878 -9.426411,32.809653 -16.046894,30.370016 -22.432517,27.151479 -25.302395,25.42929 -28.589457,23.093821 -33.294163,19.351608 -39.189088,13.191951 -43.859525,6.038788 -47.883824,-1.777832 -50.335413,-8.685214 -51.821825,-15.996409 -52.640056,-22.283509 -52.566047,-28.072854 -52.140908,-32.014806 -51.573394,-36.254528 -50.821149,-40.227898 -48.61327,-46.89573 -45.824949,-53.030899 -43.483154,-57.19749 -39.330707,-62.900698 -35.037966,-67.717665 -6.974084,-50.182946 -1.61473,-34.390397 -1.614729,-34.390397 4.191105,-28.323833" transform="matrix(-.691411 0.722461 -.722461 -.691411 137.262071 127.388675)" fill="#dd2c2c" stroke-width="0"/><ellipse rx="31.487008" ry="22.5" transform="matrix(.950425 0 0 1 180.487012 150)" fill="#1044ac" stroke-width="0"/></g><g transform="matrix(.828098 0.560584 -.560584 0.828098 73.154505 -12.960452)"><rect width="8.764039" height="49.564072" rx="0" ry="0" transform="translate(17.581524 49.876219)" stroke-width="0"/><rect width="8.764039" height="49.564072" rx="0" ry="0" transform="translate(31.493377 49.876219)" stroke-width="0"/><rect width="8.764039" height="49.564072" rx="0" ry="0" transform="translate(44.848757 49.876219)" stroke-width="0"/></g><g transform="matrix(.828098 0.560584 -.560584 0.828098 252.151812 149.401408)"><rect width="8.764039" height="49.564072" rx="0" ry="0" transform="translate(17.581524 49.876219)" stroke-width="0"/><rect width="8.764039" height="49.564072" rx="0" ry="0" transform="translate(31.493377 49.876219)" stroke-width="0"/><rect width="8.764039" height="49.564072" rx="0" ry="0" transform="translate(44.848757 49.876219)" stroke-width="0"/></g><g transform="matrix(-.735395 0.677639 -.677639 -.735395 315.316069 99.411829)"><rect width="8.764039" height="49.564072" rx="0" ry="0" transform="translate(17.581524 49.876219)" stroke-width="0"/><rect width="8.764039" height="49.564072" rx="0" ry="0" transform="translate(31.493377 49.876219)" stroke-width="0"/><rect width="8.764039" height="49.564072" rx="0" ry="0" transform="translate(44.848757 49.876219)" stroke-width="0"/></g><g transform="matrix(-.735395 0.677639 -.677639 -.735395 138.780286 262.150775)"><rect width="8.764039" height="49.564072" rx="0" ry="0" transform="translate(17.581524 49.876219)" stroke-width="0"/><rect width="8.764039" height="49.564072" rx="0" ry="0" transform="translate(31.493377 49.876219)" stroke-width="0"/><rect width="8.764039" height="49.564072" rx="0" ry="0" transform="translate(44.848757 49.876219)" stroke-width="0"/></g><rect width="4.034966" height="12.285736" rx="0" ry="0" transform="matrix(.718654 0.695368 -.695368 0.718654 250.923086 54.21467)" fill="#fff" stroke-width="0"/><rect width="4.034966" height="12.285736" rx="0" ry="0" transform="matrix(.718654 0.695368 -.695368 0.718654 231.124585 72.051705)" fill="#fff" stroke-width="0"/><rect width="4.034966" height="12.285736" rx="0" ry="0" transform="matrix(.718654 0.695368 -.695368 0.718654 65.541714 225.994635)" fill="#fff" stroke-width="0"/><rect width="4.034966" height="12.285736" rx="0" ry="0" transform="matrix(-.588915 0.808195 -2.95965 -2.156635 258.717217 242.026636)" fill="#fff" stroke-width="0"/></svg>
