<svg id="estEu4GCvOj1" xmlns="http://www.w3.org/2000/svg" xmlns:xlink="http://www.w3.org/1999/xlink" viewBox="0 0 300 300" shape-rendering="geometricPrecision" text-rendering="geometricPrecision" project-id="169a27414de84e7fac98fb26309ce006" export-id="1236b6e3f18543a1aae0906b4b24afbd" cached="false"><g transform="matrix(1.085008 0 0 0.969044 0.141194-8.748385)"><rect width="150" height="150" rx="0" ry="0" fill="#0011b6" stroke-width="0"/><rect width="150" height="30.342454" rx="0" ry="0" transform="matrix(1 0.997048-.706061 0.708151 10.711808-11.928907)" fill="#fff" stroke-width="0"/><rect width="150" height="29.280648" rx="0" ry="0" transform="matrix(.424211 0.422959-.192909 0.19348 94.238364 82.901749)" fill="#d10000" stroke-width="0"/><rect width="150" height="29.280648" rx="0" ry="0" transform="matrix(.370722 0.369628-.192909 0.19348 4.241866 3.298785)" fill="#d10000" stroke-width="0"/><rect width="150" height="30.342454" rx="0" ry="0" transform="matrix(1-1.016272 0.71279 0.701377-10.813905 140.511877)" fill="#fff" stroke-width="0"/><rect width="150" height="26.054134" rx="0" ry="0" transform="matrix(.47444-.48216 0.218864 0.21536-1.846876 152.010765)" fill="#d10000" stroke-width="0"/><rect width="150" height="14.298149" rx="0" ry="0" transform="matrix(.39495-.401376 0.398815 0.39243 85.711809 54.149994)" fill="#d10000" stroke-width="0"/><rect width="150" height="30.342454" rx="0" ry="0" transform="translate(0 59.761013)" fill="#fff" stroke-width="0"/><rect width="30.342454" height="150" rx="0" ry="0" transform="translate(59.850177 0)" fill="#fff" stroke-width="0"/><rect width="30.342454" height="150" rx="0" ry="0" transform="matrix(.70465 0 0 1 64.330999 0)" fill="#d10000" stroke-width="0"/><rect width="150" height="30.342454" rx="0" ry="0" transform="matrix(1 0 0 0.701378 0 64.291475)" fill="#d10000" stroke-width="0"/></g><rect width="262.171723" height="150.000001" rx="0" ry="0" transform="matrix(1.149789 0 0 1.11313-1.442152 132.712738)" fill="#0011b6" stroke-width="0"/><rect width="149.999996" height="301.288153" rx="0" ry="0" transform="matrix(.912058 0 0 0.991449 162.892379-9.18004)" fill="#0011b6" stroke-width="0"/><g transform="translate(-6.513859-31.721901)"><ellipse rx="37.997587" ry="29.963531" transform="translate(232.746683 198.309087)" fill="#0551a3" stroke-width="0"/><rect width="75.995174" height="61.685434" rx="0" ry="0" transform="translate(194.749096 136.623653)" fill="#0551a3" stroke-width="0"/></g><rect width="75.995174" height="18.425148" rx="0" ry="0" transform="matrix(1 0 0 1.700723 188.484771 104.408397)" fill="#b60018" stroke-width="0"/><polygon points="16.699491,-63.796258 27.967822,-63.255035 24.451601,-46.715009 27.647684,-26.420651 22.527374,-6.652398 25.782914,12.404076 13.053896,12.10537 8.784949,-9.466163 14.938636,-27.135094 10.540488,-46.016638 16.699491,-63.796258" transform="matrix(.047975 0.998849-.998849 0.047975 199.700405 119.093114)" fill="#fff" stroke-width="0"/><polygon points="22.400843,-58.723446 28.60881,-32.695032 23.883383,-32.921997 20.040379,-9.578413 25.517451,13.099506 19.3772,4.229087 13.053896,12.10537 8.784949,-9.466163 14.938636,-27.135094 10.540488,-46.016638 22.400843,-58.723446" transform="matrix(.047975 0.998849-.998849 0.047975 202.441208 97.799991)" fill="#f3bb00" stroke-width="0"/><polygon points="5.177676,-44.257157 29.234457,-32.822532 27.650849,-24.171029 26.318812,-5.255278 3.918145,7.702982 20.093614,-10.68672 3.453424,-8.358031 17.037973,-20.031469 -0.319222,-23.131037 20.999711,-29.551761 5.177676,-44.257157" transform="matrix(.047975 0.998849-.998849 0.047975 208.960162 47.872575)" fill="#f3bb00" stroke-width="0"/><polygon points="16.037322,-50.009848 28.60881,-32.695032 20.831562,-26.050853 20.040379,-9.578413 25.180743,3.67187 12.976657,13.7135 7.388216,19.613961 -1.099983,-8.372065 -4.610199,-27.737605 10.540488,-46.016638 16.037322,-50.009848" transform="matrix(.047975 0.998849-.998849 0.047975 206.945425 76.99907)" fill="#0c5301" stroke-width="0"/><polygon points="-7.436187,-63.19608 6.688071,-62.517692 4.656809,-48.136859 14.071874,-34.371743 5.095674,-18.912038 8.464641,0.416395 3.543035,13.41404 -6.729172,12.92066 -6.562435,-8.437833 -1.851642,-30.151698 -7.436187,-63.19608" transform="matrix(.047975 0.998849-.998849 0.047975 201.463845 158.112318)" fill="#fff" stroke-width="0"/><polygon points="-7.436187,-63.19608 2.833673,-60.641756 4.656809,-48.136859 14.071874,-34.371743 5.095674,-18.912038 8.464641,0.416395 2.423962,8.701761 -7.562084,12.37495 -6.562435,-8.437833 -1.851642,-30.151698 -7.436187,-63.19608" transform="matrix(.047975 0.998849-.998849 0.047975 201.463845 178.181771)" fill="#fff" stroke-width="0"/><polygon points="-0.811451,-42.148608 -6.791475,-47.267994 -7.951161,-69.710034 0.460528,-68.631333 4.568236,-40.648789 3.535782,-19.152993 -3.185065,7.270293 -13.092632,7.16966 -8.372766,-14.345367 -2.015869,-17.07245 -0.811451,-42.148608" transform="matrix(.047975 0.998849-.998849 0.047975 196.013952 204.146114)" fill="#f3bb00" stroke-width="0"/><polygon points="0,-12.460566 3.662068,-5.040405 11.850702,-3.850527 5.925351,1.925263 7.324137,10.080809 0,6.230283 -7.324137,10.080809 -5.925351,1.925263 -11.850702,-3.850527 -3.662068,-5.040405 0,-12.460566" transform="translate(208.147902 146.631308)" fill="#034c16" stroke="#f3bb00"/><polygon points="0,-12.460566 3.662068,-5.040405 11.850702,-3.850527 5.925351,1.925263 7.324137,10.080809 0,6.230283 -7.324137,10.080809 -5.925351,1.925263 -11.850702,-3.850527 -3.662068,-5.040405 0,-12.460566" transform="translate(243.147429 146.985835)" fill="#034c16" stroke="#f3bb00"/><polygon points="0,-12.460566 3.662068,-5.040405 11.850702,-3.850527 5.925351,1.925263 7.324137,10.080809 0,6.230283 -7.324137,10.080809 -5.925351,1.925263 -11.850702,-3.850527 -3.662068,-5.040405 0,-12.460566" transform="translate(226.123898 174.530449)" fill="#034c16" stroke="#f3bb00"/></svg>
