<svg id="eksSL9GT5iO1" xmlns="http://www.w3.org/2000/svg" xmlns:xlink="http://www.w3.org/1999/xlink" viewBox="0 0 300 300" shape-rendering="geometricPrecision" text-rendering="geometricPrecision" project-id="169a27414de84e7fac98fb26309ce006" export-id="7df9f00bd3134c12a14e1ff3e9041928" cached="false"><rect width="300" height="300" rx="0" ry="0" fill="#17c6cf" stroke-width="0"/><line x1="0" y1="-56.294712" x2="0" y2="56.294712" transform="translate(181.625509 149.146147)" fill="none" stroke="#f3e136" stroke-width="3"/><line x1="0" y1="-56.294712" x2="0" y2="56.294712" transform="matrix(.995132 0.098553 -.098553 0.995132 181.625509 149.146147)" fill="none" stroke="#f3e136" stroke-width="3"/><line x1="0" y1="-56.294712" x2="0" y2="56.294712" transform="matrix(.981004 0.193986 -.193986 0.981004 181.625509 149.146147)" fill="none" stroke="#f3e136" stroke-width="3"/><line x1="0" y1="-56.294712" x2="0" y2="56.294712" transform="matrix(.959174 0.282816 -.282816 0.959174 181.625509 149.146147)" fill="none" stroke="#f3e136" stroke-width="3"/><line x1="0" y1="-56.294712" x2="0" y2="56.294712" transform="matrix(.929825 0.368001 -.368001 0.929825 181.625509 149.146147)" fill="none" stroke="#f3e136" stroke-width="3"/><line x1="0" y1="-56.294712" x2="0" y2="56.294712" transform="matrix(.891787 0.452455 -.452455 0.891787 181.625509 149.146147)" fill="none" stroke="#f3e136" stroke-width="3"/><line x1="0" y1="-56.294712" x2="0" y2="56.294712" transform="matrix(.848399 0.529357 -.529357 0.848399 181.625509 149.146147)" fill="none" stroke="#f3e136" stroke-width="3"/><line x1="0" y1="-56.294712" x2="0" y2="56.294712" transform="matrix(.79845 0.602061 -.602061 0.79845 181.625509 149.146147)" fill="none" stroke="#f3e136" stroke-width="3"/><line x1="0" y1="-56.294712" x2="0" y2="56.294712" transform="matrix(.743523 0.66871 -.66871 0.743523 181.625509 149.146147)" fill="none" stroke="#f3e136" stroke-width="3"/><line x1="0" y1="-56.294712" x2="0" y2="56.294712" transform="matrix(.681348 0.731959 -.731959 0.681348 181.625509 149.146147)" fill="none" stroke="#f3e136" stroke-width="3"/><line x1="0" y1="-56.294712" x2="0" y2="56.294712" transform="matrix(.612763 0.790267 -.790267 0.612763 181.625509 149.146147)" fill="none" stroke="#f3e136" stroke-width="3"/><line x1="0" y1="-56.294712" x2="0" y2="56.294712" transform="matrix(.539156 0.842206 -.842206 0.539156 181.625509 149.146147)" fill="none" stroke="#f3e136" stroke-width="3"/><line x1="0" y1="-56.294712" x2="0" y2="56.294712" transform="matrix(.463318 0.886192 -.886192 0.463318 181.625509 149.146147)" fill="none" stroke="#f3e136" stroke-width="3"/><line x1="0" y1="-56.294712" x2="0" y2="56.294712" transform="matrix(.381006 0.924572 -.924572 0.381006 181.625509 149.146147)" fill="none" stroke="#f3e136" stroke-width="3"/><line x1="0" y1="-56.294712" x2="0" y2="56.294712" transform="matrix(.296956 0.954891 -.954891 0.296956 181.625509 149.146147)" fill="none" stroke="#f3e136" stroke-width="3"/><line x1="0" y1="-56.294712" x2="0" y2="56.294712" transform="matrix(.215105 0.976591 -.976591 0.215105 181.625509 149.146147)" fill="none" stroke="#f3e136" stroke-width="3"/><line x1="0" y1="-56.294712" x2="0" y2="56.294712" transform="matrix(.127994 0.991775 -.991775 0.127994 181.625509 149.146147)" fill="none" stroke="#f3e136" stroke-width="3"/><line x1="0" y1="-56.294712" x2="0" y2="56.294712" transform="matrix(.044174 0.999024 -.999024 0.044174 181.625509 149.146147)" fill="none" stroke="#f3e136" stroke-width="3"/><line x1="0" y1="-56.294712" x2="0" y2="56.294712" transform="matrix(-.040479 0.99918 -.99918 -.040479 181.625509 149.146147)" fill="none" stroke="#f3e136" stroke-width="3"/><line x1="0" y1="-56.294712" x2="0" y2="56.294712" transform="matrix(-.122205 0.992505 -.992505 -.122205 181.625509 149.146147)" fill="none" stroke="#f3e136" stroke-width="3"/><line x1="0" y1="-56.294712" x2="0" y2="56.294712" transform="matrix(-.204285 0.978911 -.978911 -.204285 181.625509 149.146147)" fill="none" stroke="#f3e136" stroke-width="3"/><line x1="0" y1="-56.294712" x2="0" y2="56.294712" transform="matrix(-.285594 0.958351 -.958351 -.285594 181.625509 149.146147)" fill="none" stroke="#f3e136" stroke-width="3"/><line x1="0" y1="-56.294712" x2="0" y2="56.294712" transform="matrix(-.361149 0.932508 -.932508 -.361149 181.625509 149.146147)" fill="none" stroke="#f3e136" stroke-width="3"/><line x1="0" y1="-56.294712" x2="0" y2="56.294712" transform="matrix(-.436694 0.89961 -.89961 -.436694 181.625509 149.146147)" fill="none" stroke="#f3e136" stroke-width="3"/><line x1="0" y1="-56.294712" x2="0" y2="56.294712" transform="matrix(-.506168 0.862435 -.862435 -.506168 181.625509 149.146147)" fill="none" stroke="#f3e136" stroke-width="3"/><line x1="0" y1="-56.294712" x2="0" y2="56.294712" transform="matrix(-.576886 0.816825 -.816825 -.576886 181.625509 149.146147)" fill="none" stroke="#f3e136" stroke-width="3"/><line x1="0" y1="-56.294712" x2="0" y2="56.294712" transform="matrix(-.642025 0.766684 -.766684 -.642025 181.625509 149.146147)" fill="none" stroke="#f3e136" stroke-width="3"/><line x1="0" y1="-56.294712" x2="0" y2="56.294712" transform="matrix(-.702857 0.711331 -.711331 -.702857 181.625509 149.146147)" fill="none" stroke="#f3e136" stroke-width="3"/><line x1="0" y1="-56.294712" x2="0" y2="56.294712" transform="matrix(-.758045 0.652202 -.652202 -.758045 181.625509 149.146147)" fill="none" stroke="#f3e136" stroke-width="3"/><line x1="0" y1="-56.294712" x2="0" y2="56.294712" transform="matrix(-.808665 0.588269 -.588269 -.808665 181.625509 149.146147)" fill="none" stroke="#f3e136" stroke-width="3"/><line x1="0" y1="-56.294712" x2="0" y2="56.294712" transform="matrix(-.85289 0.522091 -.522091 -.85289 181.625509 149.146147)" fill="none" stroke="#f3e136" stroke-width="3"/><line x1="0" y1="-56.294712" x2="0" y2="56.294712" transform="matrix(-.891812 0.452407 -.452407 -.891812 181.625509 149.146147)" fill="none" stroke="#f3e136" stroke-width="3"/><line x1="0" y1="-56.294712" x2="0" y2="56.294712" transform="matrix(-.923561 0.383452 -.383452 -.923561 181.625509 149.146147)" fill="none" stroke="#f3e136" stroke-width="3"/><line x1="0" y1="-56.294712" x2="0" y2="56.294712" transform="matrix(-.949583 0.313515 -.313515 -.949583 181.625509 149.146147)" fill="none" stroke="#f3e136" stroke-width="3"/><line x1="0" y1="-56.294712" x2="0" y2="56.294712" transform="matrix(-.970625 0.240599 -.240599 -.970625 181.625509 149.146147)" fill="none" stroke="#f3e136" stroke-width="3"/><line x1="0" y1="-56.294712" x2="0" y2="56.294712" transform="matrix(-.986931 0.161145 -.161145 -.986931 181.625509 149.146147)" fill="none" stroke="#f3e136" stroke-width="3"/><line x1="0" y1="-56.294712" x2="0" y2="56.294712" transform="matrix(-.996342 0.08546 -.08546 -.996342 181.625509 149.146147)" fill="none" stroke="#f3e136" stroke-width="3"/><ellipse rx="51.567234" ry="50.978202" transform="matrix(.853255 0 0 0.863114 181.625509 149.550441)" fill="#f3e136" stroke="#17c6cf" stroke-width="5"/><rect width="56.344457" height="271.204652" rx="0" ry="0" transform="translate(17.263887 16.16089)" fill="none" stroke="#f3e136" stroke-width="4"/><ellipse rx="18.030226" ry="19.157116" transform="translate(35.294113 35.318006)" fill="none" stroke="#f3e136" stroke-width="3"/><ellipse rx="18.030226" ry="19.157116" transform="translate(53.324339 35.318006)" fill="none" stroke="#f3e136" stroke-width="3"/><ellipse rx="18.030226" ry="19.157116" transform="translate(45.436116 60.485198)" fill="none" stroke="#f3e136" stroke-width="3"/><ellipse rx="18.030226" ry="19.157116" transform="translate(45.436116 90.421871)" fill="none" stroke="#f3e136" stroke-width="3"/><ellipse rx="18.030226" ry="19.157116" transform="translate(45.436116 118.100365)" fill="none" stroke="#f3e136" stroke-width="3"/><ellipse rx="18.030226" ry="19.157116" transform="translate(45.436116 146.066436)" fill="none" stroke="#f3e136" stroke-width="3"/><ellipse rx="18.030226" ry="19.157116" transform="translate(45.436116 146.066436)" fill="none" stroke="#f3e136" stroke-width="3"/><ellipse rx="18.030226" ry="19.157116" transform="translate(45.436116 175.228484)" fill="none" stroke="#f3e136" stroke-width="3"/><ellipse rx="18.030226" ry="19.157116" transform="translate(45.436116 216.063644)" fill="none" stroke="#f3e136" stroke-width="3"/><ellipse rx="18.030226" ry="19.157116" transform="translate(45.436116 216.063644)" fill="none" stroke="#f3e136" stroke-width="3"/><ellipse rx="18.030226" ry="19.157116" transform="translate(45.436116 214.869005)" fill="none" stroke="#f3e136" stroke-width="3"/><ellipse rx="18.030226" ry="19.157116" transform="translate(45.436116 229.894194)" fill="none" stroke="#f3e136" stroke-width="3"/><ellipse rx="18.030226" ry="19.157116" transform="translate(45.436116 253.183237)" fill="none" stroke="#f3e136" stroke-width="3"/><ellipse rx="18.030226" ry="19.157116" transform="translate(45.436116 267.631039)" fill="none" stroke="#f3e136" stroke-width="3"/><ellipse rx="18.030226" ry="19.157116" transform="translate(45.436116 267.631039)" fill="none" stroke="#f3e136" stroke-width="3"/><ellipse rx="18.030226" ry="19.157116" transform="translate(35.294113 54.475122)" fill="none" stroke="#f3e136" stroke-width="3"/><ellipse rx="18.030226" ry="19.157116" transform="translate(53.324339 60.485198)" fill="none" stroke="#f3e136" stroke-width="3"/><ellipse rx="18.030226" ry="19.157116" transform="translate(35.294113 82.22865)" fill="none" stroke="#f3e136" stroke-width="3"/><ellipse rx="18.030226" ry="19.157116" transform="translate(53.324339 93.920791)" fill="none" stroke="#f3e136" stroke-width="3"/><ellipse rx="18.030226" ry="19.157116" transform="translate(35.294113 110.789842)" fill="none" stroke="#f3e136" stroke-width="3"/><ellipse rx="18.030226" ry="19.157116" transform="translate(53.324339 126.446835)" fill="none" stroke="#f3e136" stroke-width="3"/><ellipse rx="18.030226" ry="19.157116" transform="translate(35.294113 139.80869)" fill="none" stroke="#f3e136" stroke-width="3"/><ellipse rx="18.030226" ry="19.157116" transform="translate(53.324339 158.483604)" fill="none" stroke="#f3e136" stroke-width="3"/><ellipse rx="18.030226" ry="19.157116" transform="translate(35.294113 175.512612)" fill="none" stroke="#f3e136" stroke-width="3"/><ellipse rx="18.030226" ry="19.157116" transform="translate(53.324339 191.002575)" fill="none" stroke="#f3e136" stroke-width="3"/><ellipse rx="18.030226" ry="19.157116" transform="translate(35.294113 210.159691)" fill="none" stroke="#f3e136" stroke-width="3"/><ellipse rx="18.030226" ry="19.157116" transform="translate(55.578118 229.316807)" fill="none" stroke="#f3e136" stroke-width="3"/><ellipse rx="18.030226" ry="19.157116" transform="translate(37.547892 224.32392)" fill="none" stroke="#f3e136" stroke-width="3"/><ellipse rx="18.030226" ry="19.157116" transform="translate(53.324339 260.494074)" fill="none" stroke="#f3e136" stroke-width="3"/><ellipse rx="18.030226" ry="19.157116" transform="translate(37.547892 268.208426)" fill="none" stroke="#f3e136" stroke-width="3"/><ellipse rx="18.030226" ry="19.157116" transform="translate(37.547892 268.208426)" fill="none" stroke="#f3e136" stroke-width="3"/><ellipse rx="18.030226" ry="19.157116" transform="translate(37.547892 253.183237)" fill="none" stroke="#f3e136" stroke-width="3"/><ellipse rx="18.030226" ry="19.157116" transform="translate(37.547892 188.634017)" fill="none" stroke="#f3e136" stroke-width="3"/><ellipse rx="18.030226" ry="19.157116" transform="translate(37.547892 154.572589)" fill="none" stroke="#f3e136" stroke-width="3"/><ellipse rx="18.030226" ry="19.157116" transform="translate(37.547892 124.562589)" fill="none" stroke="#f3e136" stroke-width="3"/><ellipse rx="18.030226" ry="19.157116" transform="translate(37.547892 101.13295)" fill="none" stroke="#f3e136" stroke-width="3"/><ellipse rx="18.030226" ry="19.157116" transform="translate(37.547892 79.642314)" fill="none" stroke="#f3e136" stroke-width="3"/><ellipse rx="18.030226" ry="19.157116" transform="translate(37.547892 60.485198)" fill="none" stroke="#f3e136" stroke-width="3"/><ellipse rx="18.030226" ry="19.157116" transform="translate(37.547892 41.328082)" fill="none" stroke="#f3e136" stroke-width="3"/><ellipse rx="18.030226" ry="19.157116" transform="translate(45.436116 43.914418)" fill="none" stroke="#f3e136" stroke-width="3"/><ellipse rx="18.030226" ry="19.157116" transform="translate(45.436116 43.914418)" fill="none" stroke="#f3e136" stroke-width="3"/><polygon points="-185.626096,-37.894651 -335.046096,-59.134501 -196.630735,-57.799623 -56.109078,-29.360224 31.208546,1.851749 67.194661,-24.626969 92.861178,14.597226 56.572305,20.973437 -67.624218,77.929392 -180.818294,85.204475 -101.838198,63.220283 -55.57933,46.612373 -42.510833,31.428219 19.257278,27.458328 -47.123156,6.886198 -86.882257,-18.825741 -185.626096,-37.894651" transform="matrix(-.061695 0.211299 -.95992 -.280276 179.780426 227.950774)" fill="none" stroke="#f3e136" stroke-width="5"/></svg>
