<svg id="e8B9XSWxJ4o1" xmlns="http://www.w3.org/2000/svg" xmlns:xlink="http://www.w3.org/1999/xlink" viewBox="0 0 300 300" shape-rendering="geometricPrecision" text-rendering="geometricPrecision" project-id="169a27414de84e7fac98fb26309ce006" export-id="edbac2ba2b2c4a41b1e35a32b4d0a112" cached="false"><rect width="300" height="69.823368" rx="0" ry="0" transform="matrix(1 0 0 0.975543 0 0)" fill="#cf0000" stroke-width="0"/><rect width="300" height="69.823368" rx="0" ry="0" transform="matrix(1 0 0 0.975543 0 231.884302)" fill="#cf0000" stroke-width="0"/><rect width="300" height="132.175764" rx="0" ry="0" transform="matrix(1 0 0 1.239021 0 68.115726)" fill="#fff" stroke-width="0"/><polygon points="4.421806,-61.038293 16.517692,-22.734652 76.444476,-41.658899 26.726187,8.683864 37.549104,43.864821 -3.574382,18.252464 5.131004,45.819552 -47.268128,9.559853 -24.630461,-48.425118 -15.934553,-20.888077 4.421806,-61.038293" transform="matrix(-.301131 0.953583-.953583-.301131 144.882195 124.216446)" fill="#00530f" stroke-width="0"/><polygon points="4.421806,-61.038293 16.517692,-22.734652 52.18128,-11.634507 26.726187,8.683864 37.549104,43.864821 -3.574382,18.252464 5.131004,45.819552 -47.268128,9.559853 -24.630461,-48.425118 -15.934553,-20.888077 4.421806,-61.038293" transform="matrix(-.301131 0.953583-.953583-.301131 144.882195 155.394695)" fill="#00530f" stroke-width="0"/><rect width="23.583591" height="36.404294" rx="0" ry="0" transform="matrix(.911971 0 0 1 139.246225 174.040985)" fill="#00530f" stroke-width="0"/></svg>
