<svg id="eCc5bfy3wNs1" xmlns="http://www.w3.org/2000/svg" xmlns:xlink="http://www.w3.org/1999/xlink" viewBox="0 0 300 300" shape-rendering="geometricPrecision" text-rendering="geometricPrecision" project-id="169a27414de84e7fac98fb26309ce006" export-id="5b8ad77cdba34c38b4481ad05d004b96" cached="false"><rect width="300" height="300" rx="0" ry="0" fill="#edba02" stroke-width="0"/><rect width="49.859923" height="257.609604" rx="0" ry="0" transform="translate(20.003052 21.038562)" fill="#0f4c49" stroke-width="0"/><rect width="49.859923" height="257.609604" rx="0" ry="0" transform="translate(69.862975 21.195198)" fill="#e46e00" stroke-width="0"/><rect width="139.758876" height="257.609604" rx="0" ry="0" transform="translate(140.120139 21.195198)" fill="#770f27" stroke-width="0"/><g transform="matrix(-.725623 0.688093 -.688093 -.725623 374.442948 -19.32139)"><ellipse rx="7.554534" ry="9.065441" transform="translate(196.779143 111.692969)" fill="#edba02" stroke-width="0"/><polygon points="3.771551, -14.276416 10.140535, -2.149145 7.42258, 0.70868 3.170865, 1.44157 -2.695939, 4.632214 -1.949161, -3.277804 1.053597, -11.418591 3.771551, -14.276416" transform="matrix(-.843954 1.135713 -.802649 -.596452 196.057749 98.894367)" fill="#edba02" stroke-width="0"/></g><g transform="matrix(.587953 0.808895 -.808895 0.587953 130.579709 38.104846)"><ellipse rx="7.554534" ry="9.065441" transform="translate(196.779143 111.692969)" fill="#edba02" stroke-width="0"/><polygon points="3.771551, -14.276416 10.140535, -2.149145 7.42258, 0.70868 3.170865, 1.44157 -2.695939, 4.632214 -1.949161, -3.277804 1.053597, -11.418591 3.771551, -14.276416" transform="matrix(-.843954 1.135713 -.802649 -.596452 196.057749 98.894367)" fill="#edba02" stroke-width="0"/></g><g transform="matrix(.744466 -.667661 0.667661 0.744466 45.070451 312.960902)"><ellipse rx="7.554534" ry="9.065441" transform="translate(196.779143 111.692969)" fill="#edba02" stroke-width="0"/><polygon points="3.771551, -14.276416 10.140535, -2.149145 7.42258, 0.70868 3.170865, 1.44157 -2.695939, 4.632214 -1.949161, -3.277804 1.053597, -11.418591 3.771551, -14.276416" transform="matrix(-.843954 1.135713 -.802649 -.596452 196.057749 98.894367)" fill="#edba02" stroke-width="0"/></g><g transform="matrix(-.747171 -.664632 0.664632 -.747171 339.684991 249.715653)"><ellipse rx="7.554534" ry="9.065441" transform="translate(196.779143 111.692969)" fill="#edba02" stroke-width="0"/><polygon points="3.771551, -14.276416 10.140535, -2.149145 7.42258, 0.70868 3.170865, 1.44157 -2.695939, 4.632214 -1.949161, -3.277804 1.053597, -11.418591 3.771551, -14.276416" transform="matrix(-.843954 1.135713 -.802649 -.596452 196.057749 98.894367)" fill="#edba02" stroke-width="0"/></g><polygon points="0, 30.62036 6.606277, 12.872512 -12.406193, 12.287342 -12.406193, 1.426246 11.971832, 1.426246 11.971832, -6.51497 -12.406193, -11.075449 -12.406193, -33.226348 0, -24.574683 11.971832, -33.226348 27.872883, -33.226348 37.816549, -24.574683 37.816549, 12.872512 65.149703, 12.872512 77.520035, 12.53247 51.468264, 1.426246 51.468264, -24.574683 81.484119, -33.226348 58.634732, -19.54491 58.634732, 1.426246 86.437173, 12.287342 90.790657, 39.762673 89.629782, 122.48144 65.149703, 122.48144 69.966881, 63.846708 51.468264, 122.48144 37.816549, 122.48144 44.301797, 57.331738 23.422058, 53.733657 27.872883, 74.922158 18.241916, 122.48144 6.606277, 122.48144 1.521621, 66.46173 0, 53.733657 -29.511135, 57.331738 -29.511135, 39.762673 -26.198061, -44.953294 -18.54765, 30.62036 0, 30.62036" transform="translate(182.126694 100.14589)" fill="#edba02" stroke-width="0"/></svg>
