<svg id="eQ7JAkH0vim1" xmlns="http://www.w3.org/2000/svg" xmlns:xlink="http://www.w3.org/1999/xlink" viewBox="0 0 300 300" shape-rendering="geometricPrecision" text-rendering="geometricPrecision" project-id="169a27414de84e7fac98fb26309ce006" export-id="b26afbacd76c4727accbb7faf1be24fa" cached="false"><rect width="300" height="27.953663" rx="0" ry="0" transform="matrix(1 0 0 0.975543 0 0)" fill="#cf0000" stroke-width="0"/><rect width="300" height="27.953663" rx="0" ry="0" transform="matrix(1 0 0 0.975543 0 27.27)" fill="#fff" stroke-width="0"/><rect width="300" height="27.953663" rx="0" ry="0" transform="matrix(1 0 0 0.975543 0 54.54)" fill="#cf0000" stroke-width="0"/><rect width="300" height="27.953663" rx="0" ry="0" transform="matrix(1 0 0 0.975543 0 81.81)" fill="#fff" stroke-width="0"/><rect width="300" height="27.953663" rx="0" ry="0" transform="matrix(1 0 0 0.975543 0 109.08)" fill="#cf0000" stroke-width="0"/><rect width="300" height="27.953663" rx="0" ry="0" transform="matrix(1 0 0 0.975543 0 136.365)" fill="#fff" stroke-width="0"/><rect width="300" height="27.953663" rx="0" ry="0" transform="matrix(1 0 0 0.975543 0 163.635)" fill="#cf0000" stroke-width="0"/><rect width="300" height="27.953663" rx="0" ry="0" transform="matrix(1 0 0 0.975543 0 190.905)" fill="#fff" stroke-width="0"/><rect width="300" height="27.953663" rx="0" ry="0" transform="matrix(1 0 0 0.975543 0 218.175)" fill="#cf0000" stroke-width="0"/><rect width="300" height="27.953663" rx="0" ry="0" transform="matrix(1 0 0 0.975543 0 245.445)" fill="#fff" stroke-width="0"/><rect width="300" height="27.953663" rx="0" ry="0" transform="matrix(1 0 0 0.975543 0 272.715)" fill="#cf0000" stroke-width="0"/><rect width="135.471795" height="136.35" rx="0" ry="0" transform="translate(.000001 0)" fill="#002165" stroke-width="0"/><polygon points="0,-57.399679 16.869343,-23.218658 54.590339,-17.737476 27.29517,8.868738 33.738685,46.437316 0,28.69984 -33.738685,46.437316 -27.29517,8.868738 -54.590339,-17.737476 -16.869343,-23.218658 0,-57.399679" transform="matrix(.816398 0 0 0.808126 67.735899 69.552798)" fill="#fff" stroke-width="0"/></svg>
