<svg id="edMOvKAP0tq1" xmlns="http://www.w3.org/2000/svg" xmlns:xlink="http://www.w3.org/1999/xlink" viewBox="0 0 300 300" shape-rendering="geometricPrecision" text-rendering="geometricPrecision" project-id="169a27414de84e7fac98fb26309ce006" export-id="3ec8414c229a472b8a748d7d2d770060" cached="false"><rect width="135.471795" height="146.709525" rx="0" ry="0" transform="matrix(2.214483 0 0 0.681619 0.000008 0)" fill="#002165" stroke-width="0"/><rect width="135.471795" height="146.709525" rx="0" ry="0" transform="matrix(2.214483 0 0 0.681619 0.000013 99.999999)" fill="#fff" stroke-width="0"/><rect width="135.471795" height="146.709525" rx="0" ry="0" transform="matrix(2.214483 0 0 0.681619 0 199.999998)" fill="#008e06" stroke-width="0"/><polygon points="0, -64.635791 5.656704, -35.816271 -0.155753, -19.146359 -0.155753, -19.146359 49.166641, 40.360356 0, 49.178557 -49.166637, 40.360356 -0.155753, -19.146359 -0.155753, -19.146359 -6.006304, -35.816272 0, -64.635791" transform="matrix(.812635 0 0 0.838145 150.000005 156.477702)" stroke-width="0"/><ellipse rx="6.431341" ry="21.063975" transform="matrix(1 0 0 1.094949 149.873435 125.367512)" fill="none" stroke="#0b0808" stroke-width="2"/></svg>
