<svg id="eeVx1Qk2cfi1" xmlns="http://www.w3.org/2000/svg" xmlns:xlink="http://www.w3.org/1999/xlink" viewBox="0 0 300 300" shape-rendering="geometricPrecision" text-rendering="geometricPrecision" project-id="169a27414de84e7fac98fb26309ce006" export-id="63934eea82054b4191fb8e107a36a8b4" cached="false"><rect width="135.471795" height="146.709525" rx="0" ry="0" transform="matrix(2.214483 0 0 0.566237 0.000008 0)" fill="#ba0000" stroke-width="0"/><rect width="135.471795" height="146.709525" rx="0" ry="0" transform="matrix(2.214483 0 0 0.566237 -.126558 216.927639)" fill="#005a09" stroke-width="0"/><rect width="299.999987" height="133.855278" rx="0" ry="0" transform="translate(-.126557 83.072361)" stroke-width="0"/><ellipse rx="37.943751" ry="36.843932" transform="translate(150.000002 150)" fill="#fff" stroke-width="0"/><ellipse rx="37.943751" ry="36.843932" transform="matrix(.826422 0 0 0.886601 160.000002 150)" stroke-width="0"/><polygon points="0, -22.318142 6.559137, -9.027878 21.225814, -6.896685 10.612907, 3.448343 13.118275, 18.055756 0, 11.159071 -13.118275, 18.055756 -10.612907, 3.448343 -21.225814, -6.896685 -6.559137, -9.027878 0, -22.318142" transform="matrix(.510014 0.713653 -.7687 0.549353 180.538595 149.107559)" fill="#fff" stroke-width="0"/></svg>
