<svg id="ecP9wnSK2zd1" xmlns="http://www.w3.org/2000/svg" xmlns:xlink="http://www.w3.org/1999/xlink" viewBox="0 0 300 300" shape-rendering="geometricPrecision" text-rendering="geometricPrecision" project-id="169a27414de84e7fac98fb26309ce006" export-id="46e145c231124598a81e38c16c3523e0" cached="false"><rect width="295.715144" height="295.504738" rx="0" ry="0" transform="matrix(1.01449 0 0 1.015212 -.000028 0.000022)" fill="#bc0008" stroke-width="0"/><polygon points="0,-73.140022 19.785883,-22.60151 69.560295,-22.60151 30.234162,11.300755 42.990626,59.171521 0,27.988689 -42.990626,59.171521 -28.056238,11.300755 -69.560295,-22.60151 -17.607959,-22.60151 0,-73.140022" transform="translate(150 150.935249)" fill="none" stroke="#025908" stroke-width="5"/><line x1="-6.323959" y1="18.971875" x2="6.323959" y2="-18.971876" transform="translate(127.167902 145.104508)" fill="none" stroke="#025908" stroke-width="5"/><line x1="-17.597102" y1="-10.173325" x2="17.597102" y2="10.173325" transform="translate(138.441045 172.249708)" fill="none" stroke="#025908" stroke-width="5"/><line x1="-15.392036" y1="10.173325" x2="15.392036" y2="-10.173325" transform="translate(165.392036 171.249708)" fill="none" stroke="#025908" stroke-width="5"/><line x1="7.696018" y1="20.721422" x2="-7.696018" y2="-20.721423" transform="translate(173.088054 141.354961)" fill="none" stroke="#025908" stroke-width="5"/><line x1="-23.646106" y1="0" x2="23.646106" y2="0" transform="translate(150.137967 128.132632)" fill="none" stroke="#025908" stroke-width="5"/></svg>
