<svg id="ewAxaXohEKS1" xmlns="http://www.w3.org/2000/svg" xmlns:xlink="http://www.w3.org/1999/xlink" viewBox="0 0 300 300" shape-rendering="geometricPrecision" text-rendering="geometricPrecision" project-id="169a27414de84e7fac98fb26309ce006" export-id="6bce282a52f8448684453b15c07db520" cached="false"><rect width="99.947385" height="300" rx="0" ry="0" transform="translate(.000001 0)" fill="#013db6" stroke-width="0"/><rect width="99.947385" height="300" rx="0" ry="0" transform="translate(100.026308 0)" fill="#eddd00" stroke-width="0"/><rect width="99.947385" height="300" rx="0" ry="0" transform="translate(199.973693 0)" fill="#d10000" stroke-width="0"/><polygon points="0, -54.338175 15.969589, -21.980254 51.678676, -16.79142 47.600531, 57.701857 23.030083, 27.107111 -0.000001, 14.386643 -25.480215, 27.107112 -44.806064, 57.701856 -51.678676, -16.79142 -15.969589, -21.980254 0, -54.338175" transform="translate(150.000001 142.540917)" fill="#bf8d00" stroke-width="0"/><polygon points="0, -54.338175 15.969589, -21.980254 51.678676, -16.79142 48.268709, 36.93293 23.030084, 1.738726 -3.368672, -39.21892 -19.158777, -44.778193 -31.505569, -50.142686 -19.158777, -54.338175 -13.969587, -61.588247 0, -54.338175" transform="translate(149.331823 139.792553)" fill="#bf8d00" stroke-width="0"/><polygon points="-2.051567, -54.338175 15.969589, -21.980254 16.028753, -21.980254 9.267571, -21.980254 -2.051567, -54.338175 0, -21.980254 -6.290216, -21.980254 -2.051567, -54.338175 -25.552867, -21.980254 -16.222953, -21.980254 -2.051567, -54.338175" transform="translate(152.253367 242.624436)" fill="#bf8d00" stroke-width="0"/><polygon points="-13.067516, -10.836369 8.915724, -30.46912 36.970982, -24.647266 40.783718, 5.214202 18.634746, 25.648527 -9.047041, 37.861523 -30.321966, 14.039502 -30.321965, 14.039503 -30.321965, 14.039502 -30.321966, 14.039503 -13.067516, -10.836369" transform="matrix(-.666107 0.745856 -.745856 -.666107 156.243346 152.528295)" fill="#033db1" stroke-width="0"/><polygon points="-13.067516, -10.836369 -7.304122, -15.983527 6.430126, 5.039032 23.809698, 18.855328 18.634746, 25.648527 -9.047041, 37.861523 -30.321966, 14.039502 -30.321965, 14.039503 -30.321965, 14.039502 -30.321966, 14.039503 -13.067516, -10.836369" transform="matrix(-.666107 0.745856 -.745856 -.666107 156.243346 152.528295)" fill="#da0404" stroke-width="0"/><polygon points="-31.099356, 14.733772 -18.957589, 12.605346 -2.755678, -1.864229 7.60748, 9.739638 -6.891834, 22.688659 -10.127086, 38.216902 -30.321966, 14.039502 -30.321965, 14.039503 -30.321965, 14.039502 -30.321966, 14.039503 -31.099356, 14.733772" transform="matrix(-.666107 0.745856 -.745856 -.666107 153.983182 173.569139)" fill="#eddd00" stroke-width="0"/><line x1="-10.04016" y1="-7.478257" x2="10.04016" y2="7.478257" transform="translate(173.32228 192.764518)" fill="none" stroke="#8a0012" stroke-width="3"/><line x1="10.04016" y1="-7.478257" x2="-10.04016" y2="7.478257" transform="translate(126.184453 192.764518)" fill="none" stroke="#8a0012" stroke-width="3"/><line x1="-9.383999" y1="18.053473" x2="9.383999" y2="-18.053473" transform="translate(185.473141 185.189302)" fill="none" stroke="#eddd00" stroke-width="3"/><line x1="10.259303" y1="16.553473" x2="-10.259303" y2="-16.553473" transform="translate(115.925151 183.689302)" fill="none" stroke="#1d7002" stroke-width="3"/><line x1="0" y1="-10.853966" x2="0" y2="10.853966" transform="translate(120.411486 87.535409)" fill="none" stroke="#9fae06" stroke-width="3"/><line x1="-5.197511" y1="0" x2="5.197511" y2="0" transform="translate(121.122662 83.535409)" fill="none" stroke="#9fae06" stroke-width="3"/></svg>
