<svg id="eRypg9t6PoS1" xmlns="http://www.w3.org/2000/svg" xmlns:xlink="http://www.w3.org/1999/xlink" viewBox="0 0 300 300" shape-rendering="geometricPrecision" text-rendering="geometricPrecision" project-id="169a27414de84e7fac98fb26309ce006" export-id="9993f1a33fd34e7da3a4f17d8bc878e6" cached="false"><rect width="300" height="300" rx="0" ry="0" fill="#e4030b" stroke-width="0"/><g transform="translate(.000001 0)"><polygon points="-44.890834, -12.686897 -44.89083, -12.686897 105.44356, -29.815135 -35.009352, 26.839001 -35.009353, 26.839008 -35.009357, 26.839008 -35.00936, 26.839014 -35.009359, 26.83901 -44.890837, -12.686896 -44.890837, -12.686896 -44.890834, -12.686897" transform="matrix(-.242536 0.970143 -.970143 -.242536 146.648888 40.473486)" fill="#fdff00" stroke-width="0"/><polygon points="-44.890834, -12.686897 -44.89083, -12.686897 105.44356, -29.815135 -35.009352, 26.839001 -35.009353, 26.839008 -35.009357, 26.839008 -35.00936, 26.839014 -35.009359, 26.83901 -44.890837, -12.686896 -44.890837, -12.686896 -44.890834, -12.686897" transform="matrix(.969853 0.243691 -.243691 0.969853 40.584166 152.686004)" fill="#fdff00" stroke-width="0"/><polygon points="-68.128279, 12.170028 -68.12828, 12.170028 105.182697, -32.167938 -56.687014, 115.361505 -56.687018, 115.361506 -56.687013, 115.361504 -56.687017, 115.361504 -56.687012, 115.361501 -68.12828, 12.170025 -68.128281, 12.170027 -68.128279, 12.170028" transform="matrix(-.841624 -.211472 0.093314 -.371376 241.525981 160.296868)" fill="#fdff00" stroke-width="0"/><polygon points="-46.966187, -20.988296 -46.966192, -20.988296 74.317191, -154.320598 -35.009352, 26.839001 -35.009353, 26.839008 -35.009357, 26.839008 -35.00936, 26.839014 -35.009359, 26.83901 -46.966176, -20.988299 -46.966176, -20.988299 -46.966187, -20.988296" transform="matrix(-.242536 0.970143 -.970143 -.242536 18.311593 40.473489)" fill="#fdff00" stroke-width="0"/><polygon points="-81.652044, -119.383632 -81.652037, -119.383629 185.385051, -610.002187 -36.216567, 36.089469 -36.216567, 36.089465 -36.216567, 36.089467 -36.216566, 36.089468 -36.216603, 36.089486 -81.65204, -119.383629 -81.652083, -119.383611 -81.652044, -119.383632" transform="matrix(.139424 0.365483 0.279986 -.106809 294.944921 17.091237)" fill="#fdff00" stroke-width="0"/></g><g transform="matrix(1 0 0 -.999998 -.572946 299.999797)"><polygon points="-44.890834, -12.686897 -44.89083, -12.686897 105.44356, -29.815135 -35.009352, 26.839001 -35.009353, 26.839008 -35.009357, 26.839008 -35.00936, 26.839014 -35.009359, 26.83901 -44.890837, -12.686896 -44.890837, -12.686896 -44.890834, -12.686897" transform="matrix(-.242536 0.970143 -.970143 -.242536 146.648888 40.473486)" fill="#fdff00" stroke-width="0"/><polygon points="-46.966187, -20.988296 -46.966192, -20.988296 74.317191, -154.320598 -35.009352, 26.839001 -35.009353, 26.839008 -35.009357, 26.839008 -35.00936, 26.839014 -35.009359, 26.83901 -46.966176, -20.988299 -46.966176, -20.988299 -46.966187, -20.988296" transform="matrix(-.242536 0.970143 -.970143 -.242536 18.311593 40.473489)" fill="#fdff00" stroke-width="0"/><polygon points="-81.652044, -119.383632 -81.652037, -119.383629 185.385051, -610.002187 -36.216567, 36.089469 -36.216567, 36.089465 -36.216567, 36.089467 -36.216566, 36.089468 -36.216603, 36.089486 -81.65204, -119.383629 -81.652083, -119.383611 -81.652044, -119.383632" transform="matrix(.139424 0.365483 0.279986 -.106809 294.944921 17.091237)" fill="#fdff00" stroke-width="0"/></g><ellipse rx="52.5" ry="52.5" transform="translate(149.427054 149.999996)" fill="#fdff00" stroke="#e4030b" stroke-width="4"/></svg>
