<svg id="ei05rwJVXgU1" xmlns="http://www.w3.org/2000/svg" xmlns:xlink="http://www.w3.org/1999/xlink" viewBox="0 0 300 300" shape-rendering="geometricPrecision" text-rendering="geometricPrecision" project-id="169a27414de84e7fac98fb26309ce006" export-id="cb31c0d9092f40659957b983ea0fa8c4" cached="false"><rect width="99.798611" height="300" rx="0" ry="0" fill="#ca0209" stroke-width="0"/><rect width="99.798611" height="300" rx="0" ry="0" transform="matrix(1.006054 0 0 1 99.798605 0)" fill="#11398a" stroke-width="0"/><rect width="99.798611" height="300" rx="0" ry="0" transform="translate(200.201388 0)" fill="#ca0209" stroke-width="0"/><ellipse rx="17.338367" ry="18.3999" transform="matrix(1.32653 0 0 1.230768 50.737328 106.033607)" fill="#f3c601" stroke-width="0"/><ellipse rx="17.338367" ry="18.3999" transform="matrix(1.32653 0 0 1.230768 50.737328 95.41828)" fill="#ca0209" stroke-width="0"/><ellipse rx="17.338367" ry="18.3999" transform="translate(50.737328 95.172172)" fill="#f3c601" stroke-width="0"/><ellipse rx="17.338367" ry="18.3999" transform="matrix(.725734 0 0 0.659368 52.737328 165.396191)" fill="#f3c601" stroke-width="0"/><polygon points="4.862724, -18.380751 18.429252, -5.37405 14.762121, 14.852931 14.762122, 14.852932 14.762122, 14.852931 4.862724, -18.380751" transform="matrix(-.285477 0.958386 -.958386 -.285477 51.848038 121.440752)" fill="#f3c601" stroke-width="0"/><polygon points="5.148198, -17.422369 20.429633, -5.357443 14.240829, 13.102871 14.240828, 13.102873 14.240828, 13.102873 5.148198, -17.422369" transform="matrix(-.285477 0.958386 -.958386 -.285477 52.848037 181.227857)" fill="#f3c601" stroke-width="0"/><rect width="14.794914" height="62.095596" rx="0" ry="0" transform="matrix(1 0 0 1.161501 12.94255 131.348393)" fill="#f3c601" stroke-width="0"/><rect width="14.794914" height="62.095596" rx="0" ry="0" transform="matrix(1 0 0 1.161501 74.282468 131.348393)" fill="#f3c601" stroke-width="0"/><rect width="14.794914" height="62.095596" rx="0" ry="0" transform="matrix(2.152813 0 0 0.109097 36.225007 143.318333)" fill="#f3c601" stroke-width="0"/><rect width="14.794914" height="62.095596" rx="0" ry="0" transform="matrix(2.152813 0 0 0.109097 36.225007 181.106974)" fill="#f3c601" stroke-width="0"/><polygon points="0.157419, -31.246981 24.845009, -28.154521 28.031222, -6.687755 23.573337, 7.659441 3.096692, 30.651182 -4.631442, 14.628906 -28.421696, 29.97461 -17.148145, 3.838486 -32.441219, 0.014603 -14.569123, -20.052678 0.157419, -31.246981" transform="matrix(-.210225 0.184206 -.187229 -.213675 49.851027 63.963327)" fill="#f3c601" stroke-width="0"/></svg>
