<svg id="elLpTvMrfyF1" xmlns="http://www.w3.org/2000/svg" xmlns:xlink="http://www.w3.org/1999/xlink" viewBox="0 0 300 300" shape-rendering="geometricPrecision" text-rendering="geometricPrecision" project-id="169a27414de84e7fac98fb26309ce006" export-id="6708a9daf9f24d20b5f1a4340dc45b67" cached="false"><rect width="300" height="300" rx="0" ry="0" fill="#336e60" stroke-width="0"/><ellipse rx="72.967667" ry="72.967667" transform="translate(150 150)" fill="#fff" stroke-width="0"/><rect width="232.584437" height="97.413392" rx="0" ry="0" transform="matrix(1 0 0 1.113396 45.31232 73.434506)" fill="#336e60" stroke-width="0"/><rect width="167.434735" height="5.211976" rx="0" ry="0" transform="translate(72.675195 173.765054)" fill="#336e60" stroke-width="0"/><rect width="167.434735" height="5.211976" rx="0" ry="0" transform="translate(72.675195 180.97703)" fill="#336e60" stroke-width="0"/><rect width="167.434735" height="5.211976" rx="0" ry="0" transform="translate(72.675195 189.97703)" fill="#336e60" stroke-width="0"/><rect width="167.434735" height="5.211976" rx="0" ry="0" transform="translate(72.675195 198.97703)" fill="#336e60" stroke-width="0"/><rect width="167.434735" height="5.211976" rx="0" ry="0" transform="translate(72.675195 207.97703)" fill="#336e60" stroke-width="0"/><rect width="167.434735" height="5.211976" rx="0" ry="0" transform="translate(72.675195 215.97703)" fill="#336e60" stroke-width="0"/><ellipse rx="9.93533" ry="41.044313" transform="matrix(1.557377 0 0 1 151.669208 132.720742)" fill="#fff" stroke-width="0"/><ellipse rx="9.93533" ry="41.044313" transform="matrix(.350101 1.517515 -.974405 0.224801 188.153042 159.279181)" fill="#fff" stroke-width="0"/><ellipse rx="9.93533" ry="41.044313" transform="matrix(-.31318 1.525563 -.979572 -.201095 118.287139 159.279181)" fill="#fff" stroke-width="0"/><polygon points="0,-17.36903 5.10463,-7.02592 16.518929,-5.367325 8.259464,2.683663 10.209259,14.05184 0,8.684515 -10.209259,14.05184 -8.259464,2.683663 -16.518929,-5.367325 -5.10463,-7.02592 0,-17.36903" transform="translate(151.669208 62.980493)" fill="#ffe201" stroke-width="0"/><polygon points="0,-17.36903 5.10463,-7.02592 16.518929,-5.367325 8.259464,2.683663 10.209259,14.05184 0,8.684515 -10.209259,14.05184 -8.259464,2.683663 -16.518929,-5.367325 -5.10463,-7.02592 0,-17.36903" transform="matrix(.740082 0 0 0.697596 115.175593 87.085883)" fill="#ffe201" stroke-width="0"/><polygon points="0,-17.36903 5.10463,-7.02592 16.518929,-5.367325 8.259464,2.683663 10.209259,14.05184 0,8.684515 -10.209259,14.05184 -8.259464,2.683663 -16.518929,-5.367325 -5.10463,-7.02592 0,-17.36903" transform="matrix(.740082 0 0 0.697596 188.153042 89.148899)" fill="#ffe201" stroke-width="0"/><polygon points="0,-17.36903 5.10463,-7.02592 16.518929,-5.367325 8.259464,2.683663 10.209259,14.05184 0,8.684515 -10.209259,14.05184 -8.259464,2.683663 -16.518929,-5.367325 -5.10463,-7.02592 0,-17.36903" transform="matrix(.740082 0 0 0.697596 216.082131 109.004956)" fill="#ffe201" stroke-width="0"/><polygon points="0,-17.36903 5.10463,-7.02592 16.518929,-5.367325 8.259464,2.683663 10.209259,14.05184 0,8.684515 -10.209259,14.05184 -8.259464,2.683663 -16.518929,-5.367325 -5.10463,-7.02592 0,-17.36903" transform="matrix(.740082 0 0 0.697596 90.724869 109.004956)" fill="#ffe201" stroke-width="0"/><polygon points="0,-13.372727 3.930146,-5.409382 12.71822,-4.1324 17.443959,3.108677 -8.341225,47.178813 0,6.686364 -7.860292,10.818764 -4.965635,2.957375 -36.509017,29.913945 -8.940423,-13.063089 0,-13.372727" transform="matrix(-.852591 0.522578 -.522578 -.852591 152.693249 143.534596)" fill="#fff" stroke-width="0"/><polygon points="0,-13.372727 14.726437,-9.202086 19.423895,9.941008 15.073601,20.37798 -9.218348,48.933358 0,6.686364 -7.860292,10.818764 -4.965635,2.957375 -36.509017,29.913945 -8.940423,-13.063089 0,-13.372727" transform="matrix(.384733 0.923028 -.923028 0.384733 139.438328 160.936504)" fill="#fff" stroke-width="0"/><polygon points="6.583947,-25.198337 19.356501,-33.491706 36.09685,-10.008799 19.402438,5.47703 -4.806251,47.768388 0,6.686364 -7.860292,10.818764 -4.965635,2.957375 -39.697202,31.123858 -8.588161,-13.559916 6.583947,-25.198337" transform="matrix(-.733146 -.680071 0.680071 -.733146 159.699161 169.586495)" fill="#fff" stroke-width="0"/></svg>
