<svg id="eqKFfe7ZukY1" xmlns="http://www.w3.org/2000/svg" xmlns:xlink="http://www.w3.org/1999/xlink" viewBox="0 0 300 300" shape-rendering="geometricPrecision" text-rendering="geometricPrecision" project-id="169a27414de84e7fac98fb26309ce006" export-id="5748548e95d043b487c063e7dcff824e" cached="false"><rect width="300" height="100" rx="0" ry="0" stroke-width="0"/><rect width="300" height="100" rx="0" ry="0" transform="translate(0 200)" fill="#1d7f0a" stroke-width="0"/><line x1="-71.759459" y1="-32.234195" x2="71.759459" y2="32.234196" transform="matrix(.999698-.024563 0.024563 0.999698 150 108.757858)" fill="none" stroke="#c10b0b" stroke-width="3"/><line x1="-71.759459" y1="-32.234195" x2="71.759459" y2="32.234196" transform="matrix(.999038 0.043852-.043852 0.999038 150 108.757858)" fill="none" stroke="#c10b0b" stroke-width="3"/><line x1="-71.759459" y1="-32.234195" x2="71.759459" y2="32.234196" transform="matrix(.993836 0.11086-.11086 0.993836 150 108.757858)" fill="none" stroke="#c10b0b" stroke-width="3"/><line x1="-71.759459" y1="-32.234195" x2="71.759459" y2="32.234196" transform="matrix(.983266 0.182175-.182175 0.983266 150 108.757858)" fill="none" stroke="#c10b0b" stroke-width="3"/><line x1="-71.759459" y1="-32.234195" x2="71.759459" y2="32.234196" transform="matrix(.967271 0.253744-.253744 0.967271 150 108.757858)" fill="none" stroke="#c10b0b" stroke-width="3"/><line x1="-71.759459" y1="-32.234195" x2="71.759459" y2="32.234196" transform="matrix(.946594 0.322428-.322428 0.946594 150 108.757858)" fill="none" stroke="#c10b0b" stroke-width="3"/><line x1="-71.759459" y1="-32.234195" x2="71.759459" y2="32.234196" transform="matrix(.92266 0.385615-.385615 0.92266 150 108.757858)" fill="none" stroke="#c10b0b" stroke-width="3"/><line x1="-71.759459" y1="-32.234195" x2="71.759459" y2="32.234196" transform="matrix(.892209 0.451623-.451623 0.892209 150 108.757858)" fill="none" stroke="#c10b0b" stroke-width="3"/><line x1="-71.759459" y1="-32.234195" x2="71.759459" y2="32.234196" transform="matrix(.857185 0.515008-.515008 0.857185 150 108.757858)" fill="none" stroke="#c10b0b" stroke-width="3"/><line x1="-71.759459" y1="-32.234195" x2="71.759459" y2="32.234196" transform="matrix(.813466 0.581613-.581613 0.813466 150 108.757858)" fill="none" stroke="#c10b0b" stroke-width="3"/><line x1="-71.759459" y1="-32.234195" x2="71.759459" y2="32.234196" transform="matrix(.766777 0.641913-.641913 0.766777 150 108.757858)" fill="none" stroke="#c10b0b" stroke-width="3"/><line x1="-71.759459" y1="-32.234195" x2="71.759459" y2="32.234196" transform="matrix(.714435 0.699702-.699702 0.714435 150 108.757858)" fill="none" stroke="#c10b0b" stroke-width="3"/><line x1="-71.759459" y1="-32.234195" x2="71.759459" y2="32.234196" transform="matrix(.657135 0.753773-.753773 0.657135 150 108.757858)" fill="none" stroke="#c10b0b" stroke-width="3"/><line x1="-71.759459" y1="-32.234195" x2="71.759459" y2="32.234196" transform="matrix(.540809 0.841145-.841145 0.540809 150 108.757858)" fill="none" stroke="#c10b0b" stroke-width="3"/><line x1="-71.759459" y1="-32.234195" x2="71.759459" y2="32.234196" transform="matrix(.477179 0.878806-.878806 0.477179 150 108.757858)" fill="none" stroke="#c10b0b" stroke-width="3"/><line x1="-71.759459" y1="-32.234195" x2="71.759459" y2="32.234196" transform="matrix(.410442 0.911887-.911887 0.410442 150 108.757858)" fill="none" stroke="#c10b0b" stroke-width="3"/><line x1="-71.759459" y1="-32.234195" x2="71.759459" y2="32.234196" transform="matrix(.340875 0.940108-.940108 0.340875 150 108.757858)" fill="none" stroke="#c10b0b" stroke-width="3"/><line x1="-71.759459" y1="-32.234195" x2="71.759459" y2="32.234196" transform="matrix(.271702 0.962381-.962381 0.271702 150 108.757858)" fill="none" stroke="#c10b0b" stroke-width="3"/><line x1="-71.759459" y1="-32.234195" x2="71.759459" y2="32.234196" transform="matrix(.199492 0.9799-.9799 0.199492 150 108.757858)" fill="none" stroke="#c10b0b" stroke-width="3"/><line x1="-71.759459" y1="-32.234195" x2="71.759459" y2="32.234196" transform="matrix(.125463 0.992098-.992098 0.125463 150 108.757858)" fill="none" stroke="#c10b0b" stroke-width="3"/><line x1="-71.759459" y1="-32.234195" x2="71.759459" y2="32.234196" transform="matrix(.055614 0.998452-.998452 0.055614 150 108.757858)" fill="none" stroke="#c10b0b" stroke-width="3"/><line x1="-71.759459" y1="-32.234195" x2="71.759459" y2="32.234196" transform="matrix(-.01588 0.999874-.999874-.01588 150 108.757858)" fill="none" stroke="#c10b0b" stroke-width="3"/><line x1="-71.759459" y1="-32.234195" x2="71.759459" y2="32.234196" transform="matrix(-.087692 0.996148-.996148-.087692 150 108.757858)" fill="none" stroke="#c10b0b" stroke-width="3"/><line x1="-71.759459" y1="-32.234195" x2="71.759459" y2="32.234196" transform="matrix(-.15841 0.987373-.987373-.15841 150 108.757858)" fill="none" stroke="#c10b0b" stroke-width="3"/><line x1="-71.759459" y1="-32.234195" x2="71.759459" y2="32.234196" transform="matrix(-.228466 0.973552-.973552-.228466 150 108.757858)" fill="none" stroke="#c10b0b" stroke-width="3"/><line x1="-71.759459" y1="-32.234195" x2="71.759459" y2="32.234196" transform="matrix(-.298032 0.954556-.954556-.298032 150 108.757858)" fill="none" stroke="#c10b0b" stroke-width="3"/><line x1="-71.759459" y1="-32.234195" x2="71.759459" y2="32.234196" transform="matrix(-.368876 0.929479-.929479-.368876 150 108.757858)" fill="none" stroke="#c10b0b" stroke-width="3"/><line x1="-71.759459" y1="-32.234195" x2="71.759459" y2="32.234196" transform="matrix(-.434345 0.900747-.900747-.434345 150 108.757858)" fill="none" stroke="#c10b0b" stroke-width="3"/><line x1="-71.759459" y1="-32.234195" x2="71.759459" y2="32.234196" transform="matrix(-.494883 0.868959-.868959-.494883 150 108.757858)" fill="none" stroke="#c10b0b" stroke-width="3"/><line x1="-71.759459" y1="-32.234195" x2="71.759459" y2="32.234196" transform="matrix(-.554835 0.831961-.831961-.554835 150 108.757858)" fill="none" stroke="#c10b0b" stroke-width="3"/><line x1="-71.759459" y1="-32.234195" x2="71.759459" y2="32.234196" transform="matrix(-.609809 0.792548-.792548-.609809 150 108.757858)" fill="none" stroke="#c10b0b" stroke-width="3"/><line x1="-71.759459" y1="-32.234195" x2="71.759459" y2="32.234196" transform="matrix(-.709149 0.705059-.705059-.709149 150 108.757858)" fill="none" stroke="#c10b0b" stroke-width="3"/><line x1="-71.759459" y1="-32.234195" x2="71.759459" y2="32.234196" transform="matrix(-.75021 0.6612-.6612-.75021 150 108.757858)" fill="none" stroke="#c10b0b" stroke-width="3"/><line x1="-71.759459" y1="-32.234195" x2="71.759459" y2="32.234196" transform="matrix(.995972-.089666 0.089666 0.995972 150 108.757858)" fill="none" stroke="#c10b0b" stroke-width="3"/><line x1="-71.759459" y1="-32.234195" x2="71.759459" y2="32.234196" transform="matrix(.988302-.15251 0.15251 0.988302 150 108.757858)" fill="none" stroke="#c10b0b" stroke-width="3"/><line x1="-71.759459" y1="-32.234195" x2="71.759459" y2="32.234196" transform="matrix(-.661313 0.75011-.75011-.661313 150 108.757858)" fill="none" stroke="#c10b0b" stroke-width="3"/><line x1="-71.759459" y1="-32.234195" x2="71.759459" y2="32.234196" transform="matrix(.602044 0.798463-.798463 0.602044 150 108.757858)" fill="none" stroke="#c10b0b" stroke-width="3"/><ellipse rx="54.421112" ry="50.164713" transform="translate(150 108.757858)" fill="#c10b0b" stroke="#000" stroke-width="4"/><line x1="-94.248854" y1="0" x2="94.248854" y2="0" transform="translate(146.361679 97)" fill="none" stroke="#000" stroke-width="5"/><rect width="300" height="100" rx="0" ry="0" transform="translate(0 100)" fill="#c10b0b" stroke-width="0"/></svg>
