<svg id="edhjTMau0mg1" xmlns="http://www.w3.org/2000/svg" xmlns:xlink="http://www.w3.org/1999/xlink" viewBox="0 0 300 300" shape-rendering="geometricPrecision" text-rendering="geometricPrecision" project-id="169a27414de84e7fac98fb26309ce006" export-id="05365cf919be436ca60834ebea34cca4" cached="false"><rect width="100.319376" height="300" rx="0" ry="0" transform="matrix(.926519 0 0 1 103.526096 0)" fill="#fff" stroke-width="0"/><rect width="103.526096" height="300" rx="0" ry="0" fill="#196e42" stroke-width="0"/><rect width="103.526096" height="300" rx="0" ry="0" transform="translate(196.473904 0)" fill="#ca1919" stroke-width="0"/><ellipse rx="44.160569" ry="39.642355" transform="matrix(.901298 0 0 1 150.672065 143.25778)" fill="none" stroke="#196e42" stroke-width="5"/><rect width="93.306538" height="57.911402" rx="0" ry="0" transform="matrix(.935696 0 0 1 106.526088 80.442912)" fill="#fff" stroke-width="0"/><polygon points="-24.652082,30.430765 -12.777449,18.223689 -30.095601,-0.080758 20.336133,25.045742 27.896325,13.860801 25.672635,34.537301 15.448523,33.258966 11.563895,48.325348 -20.002976,47.725878 -33.402648,35.350656 -24.652082,30.430765" transform="matrix(-.871674 -.490087 0.490087 -.871674 141.032804 150.4275)" fill="#9a6202" stroke-width="0"/><polygon points="-24.652082,30.430765 -12.777449,18.223689 -27.096159,11.136023 -30.0956,-0.080754 -9.57585,10.725993 -4.220914,-1.725284 9.338667,-5.623581 -0.130766,-0.299515 10.151488,23.837605 -33.402648,35.350656 -24.652082,30.430765" transform="matrix(-.871674 -.490087 0.490087 -.871674 141.032804 150.4275)" fill="#9a6202" stroke-width="0"/><path d="M144.580932,157.026973c-.000003 -20.222518 -16.379503 -20.222517 -22.797633 -35.716157q-6.41813 -15.493639,17.353192 -.637038" transform="translate(-9 4)" fill="none" stroke="#196e42" stroke-width="3"/><rect width="17.004577" height="10.672658" rx="0" ry="0" transform="matrix(1 0 0 1.037574 141.446365 168.826466)" fill="#f38700" stroke-width="0"/><ellipse rx="6.035809" ry="2.920563" transform="translate(129.545124 163.947536)" fill="#068391" stroke-width="0"/><ellipse rx="6.414769" ry="2.439465" transform="translate(139.995702 165.387001)" fill="#068391" stroke-width="0"/><ellipse rx="6.020235" ry="2.439465" transform="translate(150.430707 166.387001)" fill="#068391" stroke-width="0"/><ellipse rx="5.471011" ry="1.939465" transform="translate(159.921953 165.887001)" fill="#068391" stroke-width="0"/><ellipse rx="5.471011" ry="1.939465" transform="translate(169.921952 165.887001)" fill="#068391" stroke-width="0"/></svg>
