<svg id="e0EcHxFRofV1" xmlns="http://www.w3.org/2000/svg" xmlns:xlink="http://www.w3.org/1999/xlink" viewBox="0 0 300 300" shape-rendering="geometricPrecision" text-rendering="geometricPrecision" project-id="169a27414de84e7fac98fb26309ce006" export-id="77540a2ba42c4928b70a7682a5ea758c" cached="false"><rect width="300" height="300" rx="0" ry="0" fill="#fff" stroke-width="0"/><rect width="300" height="21.42" rx="0" ry="0" fill="#cf1010" stroke-width="0"/><rect width="300" height="21.42" rx="0" ry="0" transform="translate(0 21.42)" fill="#fff" stroke-width="0"/><rect width="300" height="21.42" rx="0" ry="0" transform="translate(0 42.84)" fill="#cf1010" stroke-width="0"/><rect width="300" height="21.42" rx="0" ry="0" transform="translate(0 64.26)" fill="#fff" stroke-width="0"/><rect width="300" height="21.42" rx="0" ry="0" transform="translate(0 85.68)" fill="#cf1010" stroke-width="0"/><rect width="300" height="21.42" rx="0" ry="0" transform="translate(0 107.1)" fill="#fff" stroke-width="0"/><rect width="300" height="21.42" rx="0" ry="0" transform="translate(0 128.52)" fill="#cf1010" stroke-width="0"/><rect width="300" height="21.42" rx="0" ry="0" transform="translate(0 150)" fill="#fff" stroke-width="0"/><rect width="300" height="21.42" rx="0" ry="0" transform="translate(0 171.42)" fill="#cf1010" stroke-width="0"/><rect width="300" height="21.42" rx="0" ry="0" transform="translate(0 192.84)" fill="#fff" stroke-width="0"/><rect width="300" height="21.42" rx="0" ry="0" transform="translate(0 214.26)" fill="#cf1010" stroke-width="0"/><rect width="300" height="21.42" rx="0" ry="0" transform="translate(0 235.68)" fill="#fff" stroke-width="0"/><rect width="300" height="21.42" rx="0" ry="0" transform="translate(0 257.1)" fill="#cf1010" stroke-width="0"/><rect width="300" height="21.42" rx="0" ry="0" transform="translate(0 278.52)" fill="#fff" stroke-width="0"/><rect width="160.494572" height="167.189385" rx="0" ry="0" transform="translate(0 0.000001)" fill="#002061" stroke-width="0"/><ellipse rx="51.930036" ry="58.905" transform="matrix(1.074914 0 0 1 80.247286 80.325)" fill="#ffb201" stroke-width="0"/><ellipse rx="51.930036" ry="58.905" transform="matrix(1 0 0 0.818182 90.247286 80.325)" fill="#002061" stroke-width="0"/><polygon points="0, -29.316943 4.474038, -6.493933 27.88207, -9.059434 8.193007,2.622142 17.232067,23.717905 0,7.742527 -16.949239,21.39245 -8.616032,1.587506 -27.88207, -9.059434 -4.848423, -6.493933 0, -29.316943" transform="matrix(1 0 0 1.141164 122.11793 82.687706)" fill="#ffb201" stroke-width="0"/><polygon points="0, -29.316943 4.474038, -6.493933 27.88207, -9.059434 8.193007,2.622142 17.232067,23.717905 0,7.742527 -16.949239,21.39245 -8.616032,1.587506 -27.88207, -9.059434 -4.848423, -6.493933 0, -29.316943" transform="matrix(.824841 0.565365 -.645174 0.941279 122.11793 82.687706)" fill="#ffb201" stroke-width="0"/></svg>
