<svg id="e8qJOWIVjst1" xmlns="http://www.w3.org/2000/svg" xmlns:xlink="http://www.w3.org/1999/xlink" viewBox="0 0 300 300" shape-rendering="geometricPrecision" text-rendering="geometricPrecision" project-id="169a27414de84e7fac98fb26309ce006" export-id="57b87d72d08340c8905f6e3e0ef8c696" cached="false"><rect width="300" height="99.715434" rx="0" ry="0" fill="#12752b" stroke-width="0"/><rect width="300" height="99.715434" rx="0" ry="0" transform="translate(0 100.142283)" fill="#fff" stroke-width="0"/><rect width="300" height="99.715434" rx="0" ry="0" transform="matrix(1 0 0 0.888683 0 105.692294)" stroke-width="0"/><rect width="300" height="99.715434" rx="0" ry="0" transform="translate(0 200.284566)" fill="#eccf01" stroke-width="0"/><polygon points="-58.908685, -111.669142 81.648077,38.330858 -58.908685,188.330858 -58.908685,188.330858 -58.908685, -111.669142 -58.908685, -111.669142" transform="translate(58.908685 111.669142)" fill="#d60000" stroke-width="0"/><polygon points="0, -59.811616 17.578193, -24.194307 56.884227, -18.482806 28.442114,9.241403 35.156386,48.388614 0,29.905808 -35.156386,48.388614 -28.442114,9.241403 -56.884227, -18.482806 -17.578193, -24.194307 0, -59.811616" transform="matrix(.798407 0 0 0.79763 50.389037 153.399833)" fill="#eccf01" stroke-width="0"/><polygon points="0, -2.920678 6.390295, -8.795486 28.069105, -2.920678 28.069105,10.871819 22.708383,17.590973 0,10.871819 -22.708383,17.590973 -28.069105,10.871821 -28.069105, -2.920678 -6.390295, -8.795486 0, -2.920678" transform="matrix(1 0 0 1.106649 50.389037 152.076333)" fill="#fff" stroke-width="0"/><polygon points="22.708383,24.909395 22.708383,24.909395 22.708383,24.909394 22.708383,24.909394 22.708383,24.909394 22.708383,30.069329 -25.668958, -8.923951 -33.429827,2.952183 -44.258941, -6.252881 -35.477492, -22.076076 22.708383,24.909395" transform="matrix(1 0 0 1.106649 55.749759 145.577137)" stroke-width="0"/><polygon points="4.926952,8.417744 14.37035,13.927098 23.886105,29.633425 10.900675,19.852177 -15.440797, -0.063774 -21.464034,12.623126 -24.93966,7.313413 -19.533208, -3.673092 -42.801913, -17.474539 -35.477492, -22.076076 4.926952,8.417744" transform="matrix(.173664 -.984805 1.089833 0.192185 46.749759 145.577137)" stroke-width="0"/></svg>
