<svg id="ekIhZdo68VE1" xmlns="http://www.w3.org/2000/svg" xmlns:xlink="http://www.w3.org/1999/xlink" viewBox="0 0 300 300" shape-rendering="geometricPrecision" text-rendering="geometricPrecision" project-id="169a27414de84e7fac98fb26309ce006" export-id="3b1a8795e655419b90cff292836151d1" cached="false"><rect width="300" height="300" rx="0" ry="0" fill="#fff" stroke-width="0"/><rect width="39.225479" height="306.640416" rx="0" ry="0" transform="matrix(.748745 0.754345-.762362 0.756702 252.315262 22.507681)" fill="#ca0303" stroke-width="0"/><polygon points="210.010022,-162.521015 210.010022,-162.521015 -0.121113,114.233242 -159.190698,-256.354058 -159.190693,-256.354055 210.010022,-162.521015" transform="matrix(-.600963 0.799277-.456293-.343079 52.051029 39.396194)" fill="#012f8c" stroke-width="0"/><polygon points="205.942952,-158.283207 205.942952,-158.283213 1.100115,110.48306 -153.386686,-250.797583 -153.386686,-250.797583 205.942952,-158.283207" transform="matrix(.599504-.800372 0.456918 0.342246 248.858797 263.06811)" fill="#007515" stroke-width="0"/><polygon points="-5.851968,-26.122331 22.248746,-22.925664 15.99314,18.29326 -15.994846,14.638515 -31.899206,-6.789366 -5.851968,-26.122331" transform="matrix(-.595998 0.802986-.802986-.595998 275.536374 21.568162)" fill="#ca0303" stroke-width="0"/><polygon points="-13.176371,-22.204808 15.195175,-19.523352 9.888387,21.82844 -13.056351,19.813214 -33.468822,-6.407274 -13.176371,-22.204808" transform="matrix(.614292-.789079 0.789079 0.614292 25.615482 277.526408)" fill="#ca0303" stroke-width="0"/><polygon points="0,-42.223552 12.40919,-17.079785 40.156984,-13.047795 20.078492,6.523898 24.818381,34.159571 0,21.111776 -24.818381,34.159571 -20.078492,6.523898 -40.156984,-13.047795 -12.40919,-17.079785 0,-42.223552" transform="matrix(-.768753 0.639545-.639545-.768753 69.916849 65.127156)" fill="#ffb230" stroke-width="0"/><polygon points="0,-42.223552 12.40919,-17.079785 40.156984,-13.047795 20.078492,6.523898 24.818381,34.159571 0,21.111776 -24.818381,34.159571 -20.078492,6.523898 -40.156984,-13.047795 -12.40919,-17.079785 0,-42.223552" transform="matrix(-.996089 0.088351-.088351-.996089 69.916849 65.127156)" fill="#ffb230" stroke-width="0"/><ellipse rx="23.428978" ry="23.50788" transform="translate(69.937326 65.052426)" fill="#ffb230" stroke="#012f8c" stroke-width="4"/></svg>
