<svg id="eEhVBtG4Lv81" xmlns="http://www.w3.org/2000/svg" xmlns:xlink="http://www.w3.org/1999/xlink" viewBox="0 0 300 300" shape-rendering="geometricPrecision" text-rendering="geometricPrecision" project-id="169a27414de84e7fac98fb26309ce006" export-id="5541341912194d56b05c171efe0de070" cached="false"><rect width="300" height="300" rx="0" ry="0" fill="#fff" stroke-width="0"/><polygon points="12.062517, -11.17108 -83.576007, -11.17108 87.884049,138.82892 -183.590095,138.82892 -183.590095, -148.196631 12.062517, -11.17108" transform="translate(197.375828 154.683856)" fill="#d30101" stroke="#003261" stroke-width="8"/><ellipse rx="42.218808" ry="35.325941" transform="translate(67.272971 106.028147)" fill="#fff" stroke-width="0"/><ellipse rx="42.218808" ry="35.325941" transform="translate(67.272971 96.550456)" fill="#d30101" stroke-width="0"/><polygon points="0, -44.471011 13.069702, -17.988902 42.294445, -13.742298 21.147222,6.871149 29.370321,16.128019 0,22.235505 -11.725339,22.235505 -21.147222,6.871149 -42.294445, -13.742298 -13.069702, -17.988902 0, -44.471011" transform="translate(67.197334 111.022197)" fill="#fff" stroke-width="0"/><polygon points="0, -44.471011 13.069702, -17.988902 37.264976, -8.724205 21.147222,6.871149 11.061208,17.679169 0.873764,26.192777 -19.527692,32.115142 -21.147222,6.871149 -42.294445, -13.742298 -13.069702, -17.988902 0, -44.471011" transform="matrix(.849664 0.527325 -.527325 0.849664 68.197334 111.160589)" fill="#fff" stroke-width="0"/><polygon points="0, -68.557054 20.148413, -27.731911 65.201633, -21.185295 32.600816,10.592647 40.296825,55.463822 0,34.278527 -40.296825,55.463822 -32.600816,10.592647 -65.201633, -21.185295 -20.148413, -27.731911 0, -68.557054" transform="matrix(.727835 0 0 0.791334 74.510194 219.37653)" fill="#fff" stroke-width="0"/><polygon points="0, -68.557054 20.148413, -27.731911 65.201633, -21.185295 32.600816,10.592647 40.296825,55.463822 0,34.278527 -40.296825,55.463822 -32.600816,10.592647 -65.201633, -21.185295 -20.148413, -27.731911 0, -68.557054" transform="matrix(.587791 0.429238 -.466686 0.639072 74.510194 219.37653)" fill="#fff" stroke-width="0"/></svg>
