<svg id="eoqT9tzZsmQ1" xmlns="http://www.w3.org/2000/svg" xmlns:xlink="http://www.w3.org/1999/xlink" viewBox="0 0 300 300" shape-rendering="geometricPrecision" text-rendering="geometricPrecision" project-id="169a27414de84e7fac98fb26309ce006" export-id="0a4d66ff6ad6478f8805e12dcb4632ab" cached="false"><g transform="matrix(1.085008 0 0 0.969044 0.141194 -8.748385)"><rect width="150" height="150" rx="0" ry="0" fill="#000c83" stroke-width="0"/><rect width="150" height="30.342454" rx="0" ry="0" transform="matrix(1 0.997048 -.706061 0.708151 10.711808 -11.928907)" fill="#fff" stroke-width="0"/><rect width="150" height="29.280648" rx="0" ry="0" transform="matrix(.424211 0.422959 -.192909 0.19348 94.238364 82.901749)" fill="#d10000" stroke-width="0"/><rect width="150" height="29.280648" rx="0" ry="0" transform="matrix(.370722 0.369628 -.192909 0.19348 4.241866 3.298785)" fill="#d10000" stroke-width="0"/><rect width="150" height="30.342454" rx="0" ry="0" transform="matrix(1 -1.016272 0.71279 0.701377 -10.813905 140.511877)" fill="#fff" stroke-width="0"/><rect width="150" height="26.054134" rx="0" ry="0" transform="matrix(.47444 -.48216 0.218864 0.21536 -1.846876 152.010765)" fill="#d10000" stroke-width="0"/><rect width="150" height="14.298149" rx="0" ry="0" transform="matrix(.39495 -.401376 0.398815 0.39243 85.711809 54.149994)" fill="#d10000" stroke-width="0"/><rect width="150" height="30.342454" rx="0" ry="0" transform="translate(0 59.761013)" fill="#fff" stroke-width="0"/><rect width="30.342454" height="150" rx="0" ry="0" transform="translate(59.850177 0)" fill="#fff" stroke-width="0"/><rect width="30.342454" height="150" rx="0" ry="0" transform="matrix(.70465 0 0 1 64.330999 0)" fill="#d10000" stroke-width="0"/><rect width="150" height="30.342454" rx="0" ry="0" transform="matrix(1 0 0 0.701378 0 64.291475)" fill="#d10000" stroke-width="0"/></g><rect width="262.171723" height="150.000001" rx="0" ry="0" transform="matrix(1.149789 0 0 1.11313 -1.442152 132.712738)" fill="#000c83" stroke-width="0"/><rect width="149.999996" height="301.288153" rx="0" ry="0" transform="matrix(.912058 0 0 0.991449 162.892379 -9.18004)" fill="#000c83" stroke-width="0"/><g transform="matrix(.339942 0 0 0.332457 198.807691 -20.881781)"><polygon points="0, -34.874515 10.249363, -14.107038 33.167635, -10.776818 16.583818, 5.388409 20.498726, 28.214076 0, 17.437258 -20.498726, 28.214076 -16.583818, 5.388409 -33.167635, -10.776818 -10.249363, -14.107038 0, -34.874515" transform="translate(87.964284 218.404514)" fill="#d10000" stroke="#fff" stroke-width="5"/></g><g transform="matrix(.339942 0 0 0.332457 152.812094 31.394759)"><polygon points="0, -34.874515 10.249363, -14.107038 33.167635, -10.776818 16.583818, 5.388409 20.498726, 28.214076 0, 17.437258 -20.498726, 28.214076 -16.583818, 5.388409 -33.167635, -10.776818 -10.249363, -14.107038 0, -34.874515" transform="translate(84.728561 215.095948)" fill="#d10000" stroke="#fff" stroke-width="5"/></g><g transform="matrix(.284971 0 0 0.33246 258.043886 16.287943)"><polygon points="0, -34.874515 10.249363, -14.107038 33.167635, -10.776818 16.583818, 5.388409 20.498726, 28.214076 0, 17.437258 -20.498726, 28.214076 -16.583818, 5.388409 -33.167635, -10.776818 -10.249363, -14.107038 0, -34.874515" transform="matrix(.872696 0 0 0.701455 36.192765 211.787379)" fill="#d10000" stroke="#fff" stroke-width="5"/></g><g transform="matrix(.339942 0 0 0.332457 205.337659 110.602539)"><polygon points="0, -34.874515 10.249363, -14.107038 33.167635, -10.776818 16.583818, 5.388409 20.498726, 28.214076 0, 17.437258 -20.498726, 28.214076 -16.583818, 5.388409 -33.167635, -10.776818 -10.249363, -14.107038 0, -34.874515" transform="matrix(1.188926 0 0 1.25415 49.409427 213.825144)" fill="#d10000" stroke="#fff" stroke-width="5"/></g></svg>
