<svg id="evl4SkgBU1W1" xmlns="http://www.w3.org/2000/svg" xmlns:xlink="http://www.w3.org/1999/xlink" viewBox="0 0 300 300" shape-rendering="geometricPrecision" text-rendering="geometricPrecision" project-id="169a27414de84e7fac98fb26309ce006" export-id="6b07f39981fc405990d15cef0a0e0f00" cached="false"><rect width="300" height="99.996889" rx="0" ry="0" transform="translate(0 0.000001)" fill="#fff" stroke-width="0"/><rect width="300" height="99.996889" rx="0" ry="0" transform="translate(0 99.99689)" fill="#d80000" stroke-width="0"/><rect width="300" height="99.996889" rx="0" ry="0" transform="translate(0 199.993779)" fill="#156017" stroke-width="0"/><rect width="100.014088" height="300" rx="0" ry="0" fill="#d80000" stroke-width="0"/><polygon points="-5.979444, -55.394776 6.057838, -55.394776 12.547385, -22.589877 20.885084, -22.589881 53.111988, -62.327329 31.981676, -22.604763 53.171347, -22.633184 53.030078, -9.592554 26.081728, -9.556408 20.885084,0.588961 53.111988,45.179755 0,8.628567 -53.111988,45.179755 -20.803407,0.588961 -53.017752,0.688082 -53.041336, -15.082535 -20.803407, -15.125774 -20.803407,0.58896 -53.111988, -62.327329 -20.803407, -22.589879 -8.296859, -22.589877 -5.979444, -55.394776" transform="matrix(.610546 0.000865 -.000913 0.644691 49.999215 48.953418)" fill="#fff" stroke-width="0"/></svg>
