<svg id="eLNqHdgVO4J1" xmlns="http://www.w3.org/2000/svg" xmlns:xlink="http://www.w3.org/1999/xlink" viewBox="0 0 300 300" shape-rendering="geometricPrecision" text-rendering="geometricPrecision" project-id="169a27414de84e7fac98fb26309ce006" export-id="704b2fa7fd6a4ee2ae6f1aa7b79f4691" cached="false"><rect width="150" height="150" rx="0" ry="0" transform="matrix(2 0 0 2 0 0)" fill="#fff" stroke-width="0"/><rect width="150" height="150" rx="0" ry="0" transform="translate(150 0)" fill="#df0008" stroke-width="0"/><rect width="150" height="150" rx="0" ry="0" transform="translate(0 150)" fill="#00246a" stroke-width="0"/><polygon points="0, -37.876021 9.660493, -11.704334 36.022237, -11.704334 15.265129, 5.852167 22.262967, 30.642345 0, 15.757523 -22.262967, 30.642345 -14.439442, 5.852167 -36.022237, -11.704334 -9.675501, -11.704334 0, -37.876021" transform="translate(75 78.616838)" fill="#00246a" stroke-width="0"/><polygon points="0, -37.876021 9.660493, -11.704334 36.022237, -11.704334 15.265129, 5.852167 22.262967, 30.642345 0, 15.757523 -22.262967, 30.642345 -14.439442, 5.852167 -36.022237, -11.704334 -9.675501, -11.704334 0, -37.876021" transform="translate(225 228.616838)" fill="#dd0008" stroke-width="0"/></svg>
