<svg id="eQwgL3Azo9s1" xmlns="http://www.w3.org/2000/svg" xmlns:xlink="http://www.w3.org/1999/xlink" viewBox="0 0 300 300" shape-rendering="geometricPrecision" text-rendering="geometricPrecision" project-id="169a27414de84e7fac98fb26309ce006" export-id="e90ee10494314dc297fd1ba78ac4e93a" cached="false"><polygon points="116.706943,-319.338982 216.38477,-36.382588 216.384766,-36.382588 -66.571634,63.295249 -66.571634,63.295244 116.706943,-319.338982" transform="matrix(-.332259 0.943188-.943188-.332259 37.580269 83.820014)" stroke-width="0"/><polygon points="118.472869,-181.789528 118.472872,-181.78952 -13.962552,221.274795 -13.962558,221.274797 -149.277006,-46.475068 118.472869,-181.789528" transform="matrix(-.451048 0.8925-.8925-.451048 191.189895 112.267172)" fill="#df1e25" stroke-width="0"/><polygon points="0,-20.87212 6.134162,-8.44295 19.850566,-6.44984 9.925283,3.22492 12.268325,16.8859 0,10.43606 -12.268325,16.8859 -9.925283,3.22492 -19.850566,-6.44984 -6.134162,-8.44295 0,-20.87212" transform="matrix(.7719 0 0 0.746316 91.130612 129.126942)" fill="#fff" stroke-width="0"/><polygon points="0,-20.87212 6.134162,-8.44295 19.850566,-6.44984 9.925283,3.22492 12.268325,16.8859 0,10.43606 -12.268325,16.8859 -9.925283,3.22492 -19.850566,-6.44984 -6.134162,-8.44295 0,-20.87212" transform="matrix(.7719 0 0 0.746316 30.478508 177.010186)" fill="#fff" stroke-width="0"/><polygon points="0,-20.87212 6.134162,-8.44295 19.850566,-6.44984 9.925283,3.22492 12.268325,16.8859 0,10.43606 -12.268325,16.8859 -9.925283,3.22492 -19.850566,-6.44984 -6.134162,-8.44295 0,-20.87212" transform="matrix(.7719 0 0 0.746316 135.45528 191.099893)" fill="#fff" stroke-width="0"/><polygon points="0,-20.87212 6.134162,-8.44295 19.850566,-6.44984 9.925283,3.22492 12.268325,16.8859 0,10.43606 -12.268325,16.8859 -9.925283,3.22492 -19.850566,-6.44984 -6.134162,-8.44295 0,-20.87212" transform="matrix(.7719 0 0 0.746316 86.433083 268.368587)" fill="#fff" stroke-width="0"/><polygon points="0,-20.87212 6.134162,-8.44295 19.850566,-6.44984 9.925283,3.22492 12.268325,16.8859 0,10.43606 -12.268325,16.8859 -9.925283,3.22492 -19.850566,-6.44984 -6.134162,-8.44295 0,-20.87212" transform="matrix(-.46178 0 0 0.460774 107.401037 215.030818)" fill="#fff" stroke-width="0"/><polygon points="-23.368515,-8.772037 -41.724633,-54.486003 -1.882767,-74.847093 14.527557,-44.912279 50.200335,-43.199685 44.876444,11.524143 1.597394,10.92964 33.723293,30.618088 48.255639,66.418189 -14.02141,28.563805 -31.06674,61.417064 -30.171884,16.12728 -80.780279,-29.319356 -54.61734,-33.599768 -23.368515,-8.772037" transform="matrix(-.161459 0.986879-.986879-.161459 206.373155 85.212495)" fill="#ffd717" stroke-width="0"/><path d="M253.084615,89.615954Q306.106162,113.549743,266.881097,150" fill="none" stroke="#ffd717" stroke-width="5"/><path d="M253.084615,89.615954c34.118039,23.364154,62.196317,36.023498,46.198283,69.817035" transform="translate(-22 2)" fill="none" stroke="#ffd717" stroke-width="5"/></svg>
