<svg id="ezegcKJAFOQ1" xmlns="http://www.w3.org/2000/svg" xmlns:xlink="http://www.w3.org/1999/xlink" viewBox="0 0 300 300" shape-rendering="geometricPrecision" text-rendering="geometricPrecision" project-id="169a27414de84e7fac98fb26309ce006" export-id="5ab7339942a1420b9c418e408564b59d" cached="false"><rect width="300" height="150" rx="0" ry="0" fill="#002d87" stroke-width="0"/><rect width="300" height="150" rx="0" ry="0" transform="translate(0 150)" fill="#c60006" stroke-width="0"/><polygon points="-43.442702,-79.148869 168.636977,-74.435985 168.636981,-74.435985 -48.155581,132.930809 -48.155579,132.930814 -43.442702,-79.148869" transform="matrix(-.691223 0.722642 -.722642 -.691223 62.77514 126.684023)" fill="#fff" stroke-width="0"/><polygon points="0,-12.878195 3.784806,-5.209339 12.247891,-3.979581 6.123946,1.989791 7.569613,10.418678 0,6.439097 -7.569613,10.418678 -6.123946,1.989791 -12.247891,-3.979581 -3.784806,-5.209339 0,-12.878195" transform="matrix(-.588445 0.808537 -.808537 -.588445 13.405725 33.037174)" fill="#ffd02a" stroke-width="0"/><polygon points="0,-12.878195 3.784806,-5.209339 12.247891,-3.979581 6.123946,1.989791 7.569613,10.418678 0,6.439097 -7.569613,10.418678 -6.123946,1.989791 -12.247891,-3.979581 -3.784806,-5.209339 0,-12.878195" transform="matrix(-.588445 0.808537 -.808537 -.588445 128.221473 150.90518)" fill="#ffd02a" stroke-width="0"/><polygon points="0,-12.878195 3.784806,-5.209339 12.247891,-3.979581 6.123946,1.989791 7.569613,10.418678 0,6.439097 -7.569613,10.418678 -6.123946,1.989791 -12.247891,-3.979581 -3.784806,-5.209339 0,-12.878195" transform="matrix(-.588445 0.808537 -.808537 -.588445 13.405725 266.873877)" fill="#ffd02a" stroke-width="0"/><ellipse rx="27.256733" ry="26.937917" transform="translate(48.863975 151.628826)" fill="#ffd02a" stroke-width="0"/><line x1="-18.100208" y1="-38.280197" x2="18.100208" y2="38.280197" transform="matrix(1.054995 0 0 1.073068 48.863975 151.628826)" fill="none" stroke="#ffd02a" stroke-width="4"/><line x1="-18.100208" y1="-38.280197" x2="18.100208" y2="38.280197" transform="matrix(.946842 0.4653 -.473271 0.963063 48.863975 151.628826)" fill="none" stroke="#ffd02a" stroke-width="4"/><line x1="-18.100208" y1="-38.280197" x2="18.100208" y2="38.280197" transform="matrix(.658007 0.824646 -.838773 0.669279 48.863975 151.628826)" fill="none" stroke="#ffd02a" stroke-width="4"/><line x1="-18.100208" y1="-38.280197" x2="18.100208" y2="38.280197" transform="matrix(.251026 1.024695 -1.042249 0.255326 48.863975 151.628826)" fill="none" stroke="#ffd02a" stroke-width="4"/><line x1="-18.100208" y1="-38.280197" x2="18.100208" y2="38.280197" transform="matrix(-.185906 1.038486 -1.056276 -.189091 48.863975 151.628826)" fill="none" stroke="#ffd02a" stroke-width="4"/><line x1="-18.100208" y1="-38.280197" x2="18.100208" y2="38.280197" transform="matrix(-.623551 0.850998 -.865577 -.634233 48.863975 151.628826)" fill="none" stroke="#ffd02a" stroke-width="4"/><line x1="-18.100208" y1="-38.280197" x2="18.100208" y2="38.280197" transform="matrix(-.926091 0.505342 -.513999 -.941955 48.863975 151.628826)" fill="none" stroke="#ffd02a" stroke-width="4"/></svg>
