<svg id="eDGiJts982u1" xmlns="http://www.w3.org/2000/svg" xmlns:xlink="http://www.w3.org/1999/xlink" viewBox="0 0 300 300" shape-rendering="geometricPrecision" text-rendering="geometricPrecision" project-id="169a27414de84e7fac98fb26309ce006" export-id="b27f6114699e45f29de4ce99cb115539" cached="false"><rect width="178.998882" height="300" rx="0" ry="0" fill="#fff" stroke-width="0"/><rect width="300" height="33.33" rx="0" ry="0" transform="matrix(.632651 0 0 1 110.63055 17)" fill="#600433" stroke-width="0"/><rect width="300" height="33.33" rx="0" ry="0" transform="matrix(.632651 0 0 1 110.63055 50.33)" fill="#600433" stroke-width="0"/><rect width="300" height="33.33" rx="0" ry="0" transform="matrix(.632651 0 0 1 110.63055 83.66)" fill="#600433" stroke-width="0"/><rect width="300" height="33.33" rx="0" ry="0" transform="matrix(.632651 0 0 1 110.63056 116.99)" fill="#600433" stroke-width="0"/><rect width="300" height="33.33" rx="0" ry="0" transform="matrix(.632651 0 0 1 110.63055 150.335)" fill="#600433" stroke-width="0"/><rect width="300" height="33.33" rx="0" ry="0" transform="matrix(.632651 0 0 1 110.63055 183.665)" fill="#600433" stroke-width="0"/><rect width="300" height="33.33" rx="0" ry="0" transform="matrix(.632651 0 0 1 110.63055 216.995)" fill="#600433" stroke-width="0"/><rect width="300" height="33.33" rx="0" ry="0" transform="matrix(.632651 0 0 1 110.63055 250.325)" fill="#600433" stroke-width="0"/><rect width="212.9436" height="17" rx="0" ry="0" transform="matrix(.89129 0 0 1 110.630949 0)" fill="#600433" stroke-width="0"/><rect width="212.9436" height="17" rx="0" ry="0" transform="matrix(.89129 0 0 1 110.630949 283.655)" fill="#600433" stroke-width="0"/><rect width="87.0564" height="300" rx="0" ry="0" transform="translate(24 0)" fill="#fff" stroke-width="0"/><polygon points="0,-12.373072 0,-12.373073 -17,9.685611 -17,-12.373073 -17,-12.373074 0,-12.373072" transform="matrix(0 1 -3.050767 0 73.309044 17)" fill="#600433" stroke-width="0"/><polygon points="0,-12.373072 0,-12.373073 -17,9.685611 -33.33,-12.373074 -33.33,-12.373074 0,-12.373072" transform="matrix(0 1 -3.050767 0 73.309044 50.33)" fill="#600433" stroke-width="0"/><polygon points="0,-12.373072 0,-12.373073 -17,9.685611 -33.33,-12.373074 -33.33,-12.373074 0,-12.373072" transform="matrix(0 1 -3.050767 0 73.309044 83.66)" fill="#600433" stroke-width="0"/><polygon points="0,-12.373072 0,-12.373073 -17,9.685611 -33.33,-12.373074 -33.33,-12.373074 0,-12.373072" transform="matrix(0 1 -3.050767 0 73.309044 116.99)" fill="#600433" stroke-width="0"/><polygon points="0,-12.373072 0,-12.373073 -17,9.685611 -33.33,-12.373074 -33.33,-12.373074 0,-12.373072" transform="matrix(0 1 -3.050767 0 73.309044 150.335)" fill="#600433" stroke-width="0"/><polygon points="0,-12.373072 0,-12.373073 -17,9.685611 -33.33,-12.373074 -33.33,-12.373074 0,-12.373072" transform="matrix(0 1 -3.050767 0 73.309044 183.665)" fill="#600433" stroke-width="0"/><polygon points="0,-12.373072 0,-12.373073 -17,9.685611 -33.33,-12.373074 -33.33,-12.373074 0,-12.373072" transform="matrix(0 1 -3.050767 0 73.309044 216.995)" fill="#600433" stroke-width="0"/><polygon points="0,-12.373072 0,-12.373073 -17,9.685611 -33.33,-12.373074 -33.33,-12.373074 0,-12.373072" transform="matrix(0 1 -3.050767 0 73.309044 250.325)" fill="#600433" stroke-width="0"/><polygon points="0,-12.373072 0,-12.373073 -17,9.685611 -33.33,-12.373074 -33.33,-12.373074 0,-12.373072" transform="matrix(0 1 -3.050767 0 73.309044 283.655)" fill="#600433" stroke-width="0"/><polygon points="-16.665,-12.373071 -16.665,-12.373071 -17,9.685611 -33.33,-12.373074 -33.33,-12.373074 -16.665,-12.373071" transform="matrix(0 1 -3.050767 0 73.309044 317.32)" fill="#600433" stroke-width="0"/><rect width="189.36945" height="300" rx="0" ry="0" transform="translate(110.63055 0)" fill="#600433" stroke-width="0"/></svg>
