<svg id="eaotf8NTrve1" xmlns="http://www.w3.org/2000/svg" xmlns:xlink="http://www.w3.org/1999/xlink" viewBox="0 0 300 300" shape-rendering="geometricPrecision" text-rendering="geometricPrecision" project-id="169a27414de84e7fac98fb26309ce006" export-id="937ef5ea5dd6430e9b81343f2034e19b" cached="false"><rect width="300" height="100.14589" rx="0" ry="0" fill="#c3323d" stroke-width="0"/><rect width="300" height="100.14589" rx="0" ry="0" transform="translate(0 99.927055)" fill="#1c4087" stroke-width="0"/><rect width="300" height="100.14589" rx="0" ry="0" transform="translate(0 199.85411)" fill="#fff" stroke-width="0"/><rect width="89.051753" height="106.194014" rx="0" ry="0" transform="translate(50.524295 100.14589)" fill="#c3323d" stroke-width="0"/><ellipse rx="44.525876" ry="25.408384" transform="translate(95.050172 205.688408)" fill="#c3323d" stroke-width="0"/><polygon points="-0.000001, -21.245621 9.190001, -34.737993 39.387932, -12.797915 24.343081,33.505376 -24.343081,33.505376 -39.387932, -12.797915 -11.546022, -33.026251 -0.000001, -21.245621" transform="matrix(1 0 0 0.779811 95.050172 74.018029)" fill="#ffb300" stroke-width="0"/><line x1="0" y1="13.029941" x2="0" y2="-13.02994" transform="translate(95.050171 42.814153)" fill="none" stroke="#ffb300" stroke-width="3"/><line x1="10.749701" y1="0" x2="-10.749701" y2="0" transform="translate(95.803338 42.814154)" fill="none" stroke="#ffb300" stroke-width="3"/><polygon points="-15.049604, -56.948043 -10.749701, -46.524091 -10.749701,49.897468 -23.048889,55.109444 -15.049604,15.368126 -29.317366,24.489084 -29.317366,7.912045 -50.890799,34.942212 -50.890799, -38.706127 -44.953295, -56.948043 -21.499402, -31.53966 -15.049604, -38.706127 -29.317366, -52.387564 -21.499402, -56.948043 -15.049604, -56.948043" transform="translate(106.553039 164.911898)" fill="#fff" stroke-width="0"/><polygon points="-15.049604, -56.948043 -10.749701, -46.524091 -10.749701,49.897468 -23.048889,55.109444 -15.049604,15.368126 -29.317366,24.489084 -29.317366,7.912045 -50.890799,34.942212 -50.890799, -38.706127 -44.953295, -56.948043 -21.499402, -31.53966 -15.049604, -38.706127 -29.317366, -52.387564 -21.499402, -56.948043 -15.049604, -56.948043" transform="matrix(-.962474 0 0 1 85.45703 164.911923)" fill="#fff" stroke-width="0"/><polygon points="0, -9.593001 2.819312, -3.88045 9.123486, -2.9644 4.561743,1.4822 5.638624,7.760901 0,4.7965 -5.638624,7.760901 -4.561743,1.4822 -9.123486, -2.9644 -2.819312, -3.88045 0, -9.593001" transform="matrix(-.676096 0.736813 -.736813 -.676096 120.12072 207.85411)" fill="#ffb300" stroke-width="0"/><polygon points="0, -9.593001 2.819312, -3.88045 9.123486, -2.9644 4.561743,1.4822 5.638624,7.760901 0,4.7965 -5.638624,7.760901 -4.561743,1.4822 -9.123486, -2.9644 -2.819312, -3.88045 0, -9.593001" transform="matrix(-.676096 0.736813 -.736813 -.676096 70.12072 207.85411)" fill="#ffb300" stroke-width="0"/><polygon points="0, -9.593001 2.819312, -3.88045 9.123486, -2.9644 4.561743,1.4822 5.638624,7.760901 -0.724855,2.305427 -7.454937,3.196997 -4.561743,1.4822 -7.720531,3.140013 -0.763204,0.339701 0, -9.593001" transform="matrix(-.977748 0.209782 -.209782 -.977748 73.796155 191.313512)" fill="#ffb300" stroke-width="0"/><polygon points="0, -9.593001 2.819312, -3.88045 9.123486, -2.9644 4.561743,1.4822 5.638624,7.760901 -0.724855,2.305427 -7.454937,3.196997 -4.561743,1.4822 -7.720531,3.140013 -0.763204,0.339701 0, -9.593001" transform="matrix(.734812 0.678271 -.678271 0.734812 117.490171 190.022631)" fill="#ffb300" stroke-width="0"/></svg>
