<svg id="eIA04qc2OQs1" xmlns="http://www.w3.org/2000/svg" xmlns:xlink="http://www.w3.org/1999/xlink" viewBox="0 0 300 300" shape-rendering="geometricPrecision" text-rendering="geometricPrecision" project-id="169a27414de84e7fac98fb26309ce006" export-id="8f4429fc6699402bb337a248bc0097fe" cached="false"><rect width="300" height="150" rx="0" ry="0" fill="#36a7ff" stroke-width="0"/><rect width="300" height="128.668776" rx="0" ry="0" transform="matrix(1 0 0 0.582892 0 150)" fill="#f6c500" stroke-width="0"/><rect width="300" height="128.668776" rx="0" ry="0" transform="matrix(1 0 0 0.582892 0 225)" fill="#00610f" stroke-width="0"/><line x1="0" y1="-39.834691" x2="0" y2="39.834692" transform="matrix(.999385 0.03508 -.043611 1.242426 224.07498 75.214509)" fill="#f6c500" stroke="#f6c500" stroke-width="3"/><line x1="0" y1="-39.834691" x2="0" y2="39.834692" transform="matrix(.982635 0.18555 -.232612 1.231868 224.07498 75.214509)" fill="#f6c500" stroke="#f6c500" stroke-width="3"/><line x1="0" y1="-39.834691" x2="0" y2="39.834692" transform="matrix(.945758 0.324873 -.403879 1.175757 224.07498 75.214509)" fill="#f6c500" stroke="#f6c500" stroke-width="3"/><line x1="0" y1="-39.834691" x2="0" y2="39.834692" transform="matrix(.886796 0.462161 -.574554 1.102457 224.07498 75.214509)" fill="#f6c500" stroke="#f6c500" stroke-width="3"/><line x1="0" y1="-39.834691" x2="0" y2="39.834692" transform="matrix(.806447 0.591307 -.735107 1.002567 224.07498 75.214509)" fill="#f6c500" stroke="#f6c500" stroke-width="3"/><line x1="0" y1="-39.834691" x2="0" y2="39.834692" transform="matrix(.714896 0.699231 -.869278 0.888752 224.07498 75.214509)" fill="#f6c500" stroke="#f6c500" stroke-width="3"/><line x1="0" y1="-39.834691" x2="0" y2="39.834692" transform="matrix(.603423 0.797421 -.991347 0.75017 224.07498 75.214509)" fill="#f6c500" stroke="#f6c500" stroke-width="3"/><line x1="0" y1="-39.834691" x2="0" y2="39.834692" transform="matrix(.476969 0.87892 -1.092666 0.592964 224.07498 75.214509)" fill="#f6c500" stroke="#f6c500" stroke-width="3"/><line x1="0" y1="-39.834691" x2="0" y2="39.834692" transform="matrix(.343271 0.939236 -1.16765 0.426751 224.07498 75.214509)" fill="#f6c500" stroke="#f6c500" stroke-width="3"/><line x1="0" y1="-39.834691" x2="0" y2="39.834692" transform="matrix(.201474 0.979494 -1.217698 0.250471 224.07498 75.214509)" fill="#f6c500" stroke="#f6c500" stroke-width="3"/><line x1="0" y1="-39.834691" x2="0" y2="39.834692" transform="matrix(.062922 0.998018 -1.240728 0.078224 224.07498 75.214509)" fill="#f6c500" stroke="#f6c500" stroke-width="3"/><line x1="0" y1="-39.834691" x2="0" y2="39.834692" transform="matrix(-.078605 0.996906 -1.239344 -.09772 224.07498 75.214509)" fill="#f6c500" stroke="#f6c500" stroke-width="3"/><line x1="0" y1="-39.834691" x2="0" y2="39.834692" transform="matrix(-.217002 0.976171 -1.213567 -.269774 224.07498 75.214509)" fill="#f6c500" stroke="#f6c500" stroke-width="3"/><line x1="0" y1="-39.834691" x2="0" y2="39.834692" transform="matrix(-.348825 0.937188 -1.165103 -.433656 224.07498 75.214509)" fill="#f6c500" stroke="#f6c500" stroke-width="3"/><line x1="0" y1="-39.834691" x2="0" y2="39.834692" transform="matrix(-.472005 0.881596 -1.095992 -.586792 224.07498 75.214509)" fill="#f6c500" stroke="#f6c500" stroke-width="3"/><line x1="0" y1="-39.834691" x2="0" y2="39.834692" transform="matrix(-.58994 0.807447 -1.003811 -.733408 224.07498 75.214509)" fill="#f6c500" stroke="#f6c500" stroke-width="3"/><line x1="0" y1="-39.834691" x2="0" y2="39.834692" transform="matrix(-.693246 0.720701 -.895969 -.861837 224.07498 75.214509)" fill="#f6c500" stroke="#f6c500" stroke-width="3"/><line x1="0" y1="-39.834691" x2="0" y2="39.834692" transform="matrix(-.787552 0.616248 -.766115 -.979077 224.07498 75.214509)" fill="#f6c500" stroke="#f6c500" stroke-width="3"/><line x1="0" y1="-39.834691" x2="0" y2="39.834692" transform="matrix(-.863893 0.503675 -.626164 -1.073985 224.07498 75.214509)" fill="#f6c500" stroke="#f6c500" stroke-width="3"/><line x1="0" y1="-39.834691" x2="0" y2="39.834692" transform="matrix(-.927866 0.372913 -.463602 -1.153515 224.07498 75.214509)" fill="#f6c500" stroke="#f6c500" stroke-width="3"/><line x1="0" y1="-39.834691" x2="0" y2="39.834692" transform="matrix(-.972025 0.234877 -.291998 -1.208413 224.07498 75.214509)" fill="#f6c500" stroke="#f6c500" stroke-width="3"/><line x1="0" y1="-39.834691" x2="0" y2="39.834692" transform="matrix(-.995155 0.098322 -.122233 -1.237167 224.07498 75.214509)" fill="#f6c500" stroke="#f6c500" stroke-width="3"/><ellipse rx="33.894431" ry="33.89443" transform="matrix(.752575 0 0 0.730825 224.07498 75)" fill="#f6c500" stroke="#36a7ff" stroke-width="3"/></svg>
