<svg id="eaXNcOMB1r21" xmlns="http://www.w3.org/2000/svg" xmlns:xlink="http://www.w3.org/1999/xlink" viewBox="0 0 300 300" shape-rendering="geometricPrecision" text-rendering="geometricPrecision" project-id="169a27414de84e7fac98fb26309ce006" export-id="224060744d094248910f7ef1f455b9fc" cached="false"><rect width="300" height="300" rx="0" ry="0" fill="#246a2a" stroke="#246a2a"/><polygon points="-64.388669,-133.721259 -51.151986,-140.094914 -11.006818,-56.722141 -42.81013,-122.770696 -30.699105,-123.934 -19.410154,-124.034553 -7.659881,-119.022008 -0.040032,-107.35228 0.802541,-91.75229 -0.300712,-77.433408 -3.3274,-67.088928 -11.006819,-56.722142 64.8519,100.819907 62.042524,128.848823 -24.243505,-50.34849 -35.955088,-48.048567 -42.565727,-54.862429 -41.450333,-64.070994 -32.846043,-68.214082 -64.388669,-133.721259" transform="matrix(-.306517 0.628511-.628346-.306437 145.841511 173.434087)" fill="#fff" stroke-width="0"/><g transform="translate(-9.613985 0)"><rect width="35.445004" height="35" rx="0" ry="0" transform="translate(44.556611 63.143556)" fill="#fff" stroke-width="0"/><path d="M80.001615,80.643556q9.019673-13.894756,35.45813-9.688638" transform="matrix(1.506305 0 0 1-59.481532-.999999)" fill="none" stroke="#fdfdff" stroke-width="10"/><path d="M62.279113,98.143556q-14.117258,6.554765-9.91114,35.952074" fill="none" stroke="#fbfbfb" stroke-width="10"/><path d="M62.279113,98.143556q9.316829,2.583777,8.715955,35" fill="none" stroke="#fbfbfb" stroke-width="10"/><path d="M80.001615,93.481084q35-11.408731,35,39.662472" transform="matrix(1.105758 0 0 1-17.660431-.999999)" fill="none" stroke="#f3f4f6" stroke-width="10"/></g><g transform="matrix(-.007521 0.999972-.999972-.007521 249.214723 19.867294)"><rect width="35.445004" height="35" rx="0" ry="0" transform="translate(44.556611 63.143556)" fill="#fff" stroke-width="0"/><path d="M80.001615,80.643556q9.019673-13.894756,35.45813-9.688638" transform="matrix(1.506305 0 0 1-59.481532-.999999)" fill="none" stroke="#fdfdff" stroke-width="10"/><path d="M62.279113,98.143556q-14.117258,6.554765-9.91114,35.952074" fill="none" stroke="#fbfbfb" stroke-width="10"/><path d="M62.279113,98.143556q9.316829,2.583777,8.715955,35" fill="none" stroke="#fbfbfb" stroke-width="10"/><path d="M80.001615,93.481084q35-11.408731,35,39.662472" transform="matrix(1.105758 0 0 1-17.660431-.999999)" fill="none" stroke="#f3f4f6" stroke-width="10"/></g><g transform="matrix(-.99996 0.008954-.008954-.99996 309.691577 197.163914)"><rect width="35.445004" height="35" rx="0" ry="0" transform="translate(44.556611 63.143556)" fill="#fff" stroke-width="0"/><path d="M80.001615,80.643556q9.019673-13.894756,35.45813-9.688638" transform="matrix(1.506305 0 0 1-59.481532-.999999)" fill="none" stroke="#fdfdff" stroke-width="10"/><path d="M62.279113,98.143556q-14.117258,6.554765-9.91114,35.952074" fill="none" stroke="#fbfbfb" stroke-width="10"/><path d="M62.279113,98.143556q9.316829,2.583777,8.715955,35" fill="none" stroke="#fbfbfb" stroke-width="10"/><path d="M80.001615,93.481084q35-11.408731,35,39.662472" transform="matrix(1.105758 0 0 1-17.660431-.999999)" fill="none" stroke="#f3f4f6" stroke-width="10"/></g><path d="" fill="none" stroke="#3f5787" stroke-width="0.6"/><ellipse rx="9.924428" ry="8.511981" transform="matrix(2.061694 0 0 1.055926 85.269969 124.631575)" fill="#fff" stroke-width="0"/><ellipse rx="9.924428" ry="8.511981" transform="matrix(-.02305 2.061565-1.05586-.011805 123.413777 113.861514)" fill="#fff" stroke-width="0"/><ellipse rx="9.924428" ry="8.511981" transform="matrix(-2.061455-.031414 0.016089-1.055803 215.237755 73.246466)" fill="#fff" stroke-width="0"/></svg>
