<svg id="eFgN7IjxUiJ1" xmlns="http://www.w3.org/2000/svg" xmlns:xlink="http://www.w3.org/1999/xlink" viewBox="0 0 300 300" shape-rendering="geometricPrecision" text-rendering="geometricPrecision" project-id="169a27414de84e7fac98fb26309ce006" export-id="8daa37412ba041718a1f952b711405af" cached="false"><rect width="300" height="300" rx="0" ry="0" fill="#ffc700" stroke-width="0"/><polygon points="190.472296, -61.016841 -22.726012, 105.381839 -22.726009, 105.381839 -22.726008, 105.381838 -190.513199, -109.595506 190.472296, -61.016841" transform="matrix(-.615271 0.788316 -.788316 -.615271 69.021288 82.683419)" fill="#0642bc" stroke-width="0"/><polygon points="59.038683, -116.920475 59.038683, -116.920475 155.29657, 137.695119 -193.223317, -21.552363 59.038683, -116.920472 59.038683, -116.920475" transform="matrix(-.353625 0.935387 -.935387 -.353625 211.360803 203.429976)" fill="#005008" stroke-width="0"/><polygon points="0, -40.232992 11.82418, -16.274587 38.263849, -12.432678 19.131925, 6.216339 23.648359, 32.549174 0, 20.116496 -23.648359, 32.549174 -19.131925, 6.216339 -38.263849, -12.432678 -11.82418, -16.274587 0, -40.232992" transform="matrix(.481859 0 0 0.503725 30.645803 30.163883)" fill="#fff" stroke-width="0"/><polygon points="0, -40.232992 11.82418, -16.274587 38.263849, -12.432678 19.131925, 6.216339 23.648359, 32.549174 0, 20.116496 -23.648359, 32.549174 -19.131925, 6.216339 -38.263849, -12.432678 -11.82418, -16.274587 0, -40.232992" transform="matrix(.481859 0 0 0.503725 30.645803 87.303688)" fill="#fff" stroke-width="0"/><polygon points="0, -40.232992 11.82418, -16.274587 38.263849, -12.432678 19.131925, 6.216339 23.648359, 32.549174 0, 20.116496 -23.648359, 32.549174 -19.131925, 6.216339 -38.263849, -12.432678 -11.82418, -16.274587 0, -40.232992" transform="matrix(.481859 0 0 0.503725 73.830675 59.356079)" fill="#fff" stroke-width="0"/><polygon points="0, -40.232992 11.82418, -16.274587 38.263849, -12.432678 19.131925, 6.216339 23.648359, 32.549174 0, 20.116496 -23.648359, 32.549174 -19.131925, 6.216339 -38.263849, -12.432678 -11.82418, -16.274587 0, -40.232992" transform="matrix(.481859 0 0 0.503725 117.326785 30.163883)" fill="#fff" stroke-width="0"/><polygon points="0, -40.232992 11.82418, -16.274587 38.263849, -12.432678 19.131925, 6.216339 23.648359, 32.549174 0, 20.116496 -23.648359, 32.549174 -19.131925, 6.216339 -38.263849, -12.432678 -11.82418, -16.274587 0, -40.232992" transform="matrix(.481859 0 0 0.503725 117.326785 87.303688)" fill="#fff" stroke-width="0"/></svg>
