<svg id="eq3Cg1ON7Rz1" xmlns="http://www.w3.org/2000/svg" xmlns:xlink="http://www.w3.org/1999/xlink" viewBox="0 0 300 300" shape-rendering="geometricPrecision" text-rendering="geometricPrecision" project-id="169a27414de84e7fac98fb26309ce006" export-id="c75930a7900545278cf5e6e8ab92639e" cached="false"><polygon points="190.472296,-61.016841 -22.726012,105.381839 -22.726009,105.381839 -47.307019,124.608516 -94.133994,64.611454 190.472296,-61.016841" transform="matrix(-.615271 0.788316 -.788316 -.615271 69.124228 113.960858)" fill="#0642bc" stroke-width="0"/><polygon points="190.472296,-61.016841 -22.726012,105.381839 -22.726009,105.381839 -47.307019,124.608516 -108.283726,46.482125 190.472296,-61.016841" transform="matrix(-.615271 0.788316 -.788316 -.615271 69.124228 113.960858)" fill="#0642bc" stroke-width="0"/><polygon points="190.472296,-61.016841 -108.283726,46.482126 -108.283713,46.482114 -108.283726,46.482126 -170.567678,-33.319176 190.472296,-61.016841" transform="matrix(-.615271 0.788316 -.788316 -.615271 69.124228 113.960858)" fill="#ffeb57" stroke-width="0"/><polygon points="190.472296,-61.016841 -170.567659,-33.319189 -171.62791,-34.677608 -231.888282,-111.886219 -153.242268,-173.268474 190.472296,-61.016841" transform="matrix(-.615271 0.788316 -.788316 -.615271 69.124228 113.960858)" fill="#d8272b" stroke-width="0"/><polygon points="190.472296,-61.016841 -153.242266,-173.268471 -153.242267,-173.268474 -70.87993,-237.551271 -70.879932,-237.55127 190.472296,-61.016841" transform="matrix(-.615271 0.788316 -.788316 -.615271 69.124228 113.960858)" fill="#fff" stroke-width="0"/><polygon points="190.472296,-61.016841 -70.879924,-237.551264 -70.879928,-237.551267 -70.87993,-237.551271 4.606458,-296.46748 190.472296,-61.016841" transform="matrix(-.615271 0.788316 -.788316 -.615271 69.124228 113.960858)" fill="#086825" stroke-width="0"/></svg>
