<svg id="eikbmvRYj3S1" xmlns="http://www.w3.org/2000/svg" xmlns:xlink="http://www.w3.org/1999/xlink" viewBox="0 0 300 300" shape-rendering="geometricPrecision" text-rendering="geometricPrecision" project-id="169a27414de84e7fac98fb26309ce006" export-id="ee3620394b8b4a049ac41fe9cc3eb631" cached="false"><rect width="300" height="150" rx="0" ry="0" fill="#c52121" stroke-width="0"/><rect width="300" height="150" rx="0" ry="0" transform="translate(0 150)" fill="#fff" stroke-width="0"/><ellipse rx="54.875272" ry="54.685084" transform="translate(75.449671 75)" fill="#fff" stroke-width="0"/><ellipse rx="54.875272" ry="54.685084" transform="translate(95.124728 75)" fill="#c52121" stroke-width="0"/><polygon points="0, -15.337834 4.507676, -6.204284 14.587147, -4.739651 7.293574,2.369826 9.015353,12.408569 0,7.668917 -9.015353,12.408569 -7.293574,2.369826 -14.587147, -4.739651 -4.507676, -6.204284 0, -15.337834" transform="matrix(.760536 0 0 0.699531 88.594468 48.98361)" fill="#fff" stroke-width="0"/><polygon points="0, -15.337834 4.507676, -6.204284 14.587147, -4.739651 7.293574,2.369826 9.015353,12.408569 0,7.668917 -9.015353,12.408569 -7.293574,2.369826 -14.587147, -4.739651 -4.507676, -6.204284 0, -15.337834" transform="matrix(.760536 0 0 0.699531 64.355621 70.319824)" fill="#fff" stroke-width="0"/><polygon points="0, -15.337834 4.507676, -6.204284 14.587147, -4.739651 7.293574,2.369826 9.015353,12.408569 0,7.668917 -9.015353,12.408569 -7.293574,2.369826 -14.587147, -4.739651 -4.507676, -6.204284 0, -15.337834" transform="matrix(.760536 0 0 0.699531 112.782568 69.319824)" fill="#fff" stroke-width="0"/><polygon points="0, -15.337834 4.507676, -6.204284 14.587147, -4.739651 7.293574,2.369826 9.015353,12.408569 0,7.668917 -9.015353,12.408569 -7.293574,2.369826 -14.587147, -4.739651 -4.507676, -6.204284 0, -15.337834" transform="matrix(.760536 0 0 0.699531 102.688518 101.434024)" fill="#fff" stroke-width="0"/><polygon points="0, -15.337834 4.507676, -6.204284 14.587147, -4.739651 7.293574,2.369826 9.015353,12.408569 0,7.668917 -9.015353,12.408569 -7.293574,2.369826 -14.587147, -4.739651 -4.507676, -6.204284 0, -15.337834" transform="matrix(.760536 0 0 0.699531 75.449671 101.434024)" fill="#fff" stroke-width="0"/></svg>
