<svg id="enXQ62oKR5W1" xmlns="http://www.w3.org/2000/svg" xmlns:xlink="http://www.w3.org/1999/xlink" viewBox="0 0 300 300" shape-rendering="geometricPrecision" text-rendering="geometricPrecision" project-id="169a27414de84e7fac98fb26309ce006" export-id="015812fdd86242cbbc258394c14f4b7c" cached="false"><g transform="matrix(1.085008 0 0 0.969044 0.141194 -8.748385)"><rect width="150" height="150" rx="0" ry="0" fill="#120877" stroke-width="0"/><rect width="150" height="30.342454" rx="0" ry="0" transform="matrix(1 0.997048 -.706061 0.708151 10.711808 -11.928907)" fill="#fff" stroke-width="0"/><rect width="150" height="29.280648" rx="0" ry="0" transform="matrix(.424211 0.422959 -.192909 0.19348 94.238364 82.901749)" fill="#d10000" stroke-width="0"/><rect width="150" height="29.280648" rx="0" ry="0" transform="matrix(.370722 0.369628 -.192909 0.19348 4.241866 3.298785)" fill="#d10000" stroke-width="0"/><rect width="150" height="30.342454" rx="0" ry="0" transform="matrix(1 -1.016272 0.71279 0.701377 -10.813905 140.511877)" fill="#fff" stroke-width="0"/><rect width="150" height="26.054134" rx="0" ry="0" transform="matrix(.47444 -.48216 0.218864 0.21536 -1.846876 152.010765)" fill="#d10000" stroke-width="0"/><rect width="150" height="14.298149" rx="0" ry="0" transform="matrix(.39495 -.401376 0.398815 0.39243 85.711809 54.149994)" fill="#d10000" stroke-width="0"/><rect width="150" height="30.342454" rx="0" ry="0" transform="translate(0 59.761013)" fill="#fff" stroke-width="0"/><rect width="30.342454" height="150" rx="0" ry="0" transform="translate(59.850177 0)" fill="#fff" stroke-width="0"/><rect width="30.342454" height="150" rx="0" ry="0" transform="matrix(.70465 0 0 1 64.330999 0)" fill="#d10000" stroke-width="0"/><rect width="150" height="30.342454" rx="0" ry="0" transform="matrix(1 0 0 0.701378 0 64.291475)" fill="#d10000" stroke-width="0"/></g><rect width="262.171723" height="150.000001" rx="0" ry="0" transform="matrix(1.149789 0 0 1.11313 -1.862681 132.712738)" fill="#120877" stroke-width="0"/><rect width="149.999996" height="301.288153" rx="0" ry="0" transform="matrix(.912058 0 0 0.991449 162.892379 -9.18004)" fill="#120877" stroke-width="0"/><g transform="translate(-6.513859 -31.721901)"><ellipse rx="37.997587" ry="29.963531" transform="translate(232.746683 198.309087)" fill="#4e93dd" stroke-width="0"/><rect width="75.995174" height="61.685434" rx="0" ry="0" transform="translate(194.749096 136.623653)" fill="#4e93dd" stroke-width="0"/></g><rect width="75.995174" height="18.425148" rx="0" ry="0" transform="matrix(1 0 0 1.700723 188.484771 104.408397)" fill="#fdd200" stroke-width="0"/><polygon points="30.916483,-26.410892 30.733385,-22.598772 35.857936,-18.840974 16.053184,-12.794357 15.701807,-5.478653 11.788732,-12.99918 9.290363,-17.650962 11.228407,-24.984861 20.657286,-30.569937 28.942141,-43.548876 31.381814,-36.099118 28.301124,-30.2028 36.385003,-29.814527 30.916483,-26.410892" transform="matrix(.047975 0.998849 -.998849 0.047975 201.922261 97.799991)" fill="#8a6b00" stroke-width="0"/><polygon points="-0.811451,-42.148608 -6.791475,-47.267994 -7.951161,-69.710034 0.460528,-68.631333 4.568236,-40.648789 3.535782,-19.152993 -3.185065,7.270293 -13.092632,7.16966 -8.372766,-14.345367 -2.015869,-17.07245 -0.811451,-42.148608" transform="matrix(.047975 0.998849 -.998849 0.047975 196.013952 204.146114)" fill="#f3bb00" stroke-width="0"/><polygon points="-18.86912,-16.051564 -12.398408,-19.601795 -6.937985,-9.290434 -4.669967,9.260225 0.307591,-4.878902 5.129719,-0.040596 12.158293,39.223756 -4.669967,32.243817 -16.800535,21.188501 -18.86912,9.260225 -18.86912,-16.051564" transform="translate(207.840313 157.326961)" fill="#d6690a" stroke-width="0"/><polygon points="-16.525819,-0.550756 -5.227698,-0.550756 -5.227698,-9.27051 0.310672,0 7.42725,0 7.42725,9.970792 -3.076388,11.37752 0.310673,20.586262 13.6399,14.742019 13.6399,9.970792 8.93943,9.970792 9.342275,0 15.195538,0 15.195538,-6.209116 17.586908,0.466791 25.05994,0.466791 24.063536,9.970792 18.384032,9.970792 18.384032,14.316809 24.063536,11.37752 20.616719,16.357282 13.6399,22.432836 1.550672,27.956825 -10.042067,29.406528 -21.209904,20.586262 -5.227698,20.586262 -6.738458,11.37752 -16.525819,11.37752 -16.525819,-0.550756" transform="translate(236.524425 167.137942)" fill="#471f01" stroke-width="0"/></svg>
