<svg id="ehfw8Rjc7u11" xmlns="http://www.w3.org/2000/svg" xmlns:xlink="http://www.w3.org/1999/xlink" viewBox="0 0 300 300" shape-rendering="geometricPrecision" text-rendering="geometricPrecision" project-id="169a27414de84e7fac98fb26309ce006" export-id="0a4d939d1d9d487ebaf08daf55c22452" cached="false"><rect width="300" height="99.587459" rx="0" ry="0" transform="matrix(1 0 0 0.76757 0 0)" fill="#206520" stroke-width="0"/><rect width="300" height="99.587459" rx="0" ry="0" transform="matrix(1 0 0 0.76757 0 223.559654)" fill="#206520" stroke-width="0"/><rect width="300" height="147.119308" rx="0" ry="0" transform="translate(0 76.440346)" fill="#fff" stroke-width="0"/><rect width="300" height="147.119308" rx="0" ry="0" transform="matrix(1 0 0 0.699223 0 98.565398)" fill="#9c0010" stroke-width="0"/><polygon points="0, -65.393191 17.874446, -20.207606 62.19262, -20.207607 25.338337,6.121944 38.437153,52.904203 0,21.776985 -38.437153,52.904203 -23.51622,6.121944 -62.19262, -20.207607 -18.087933, -20.207607 0, -65.393191" transform="matrix(.852834 0 0 0.860231 150 155.5037)" fill="#f1b500" stroke-width="0"/></svg>
