<svg id="e5O3UecnElv1" xmlns="http://www.w3.org/2000/svg" xmlns:xlink="http://www.w3.org/1999/xlink" viewBox="0 0 300 300" shape-rendering="geometricPrecision" text-rendering="geometricPrecision" project-id="169a27414de84e7fac98fb26309ce006" export-id="3359fe194dc84d34813122871609c2b3" cached="false"><rect width="300" height="100.166137" rx="0" ry="0" fill="#10601d" stroke-width="0"/><rect width="300" height="100.166137" rx="0" ry="0" transform="translate(0 99.916932)" fill="#fff" stroke-width="0"/><rect width="300" height="100.166137" rx="0" ry="0" transform="translate(0 200.083069)" fill="#01050c" stroke-width="0"/><polygon points="0, -48.377631 9.859239, -14.94951 46.009862, -14.94951 15.774784,5.178199 28.435658,39.138326 0,16.545753 -28.435658,39.138326 -16.610796,5.178199 -46.009862, -14.94951 -12.488371, -14.94951 0, -48.377631" transform="matrix(.742061 0 0 0.737799 66.868651 154.619653)" fill="#c80007" stroke-width="0"/><polygon points="0, -48.377631 9.859239, -14.94951 46.009862, -14.94951 15.774784,5.178199 28.435658,39.138326 0,16.545753 -28.435658,39.138326 -16.610796,5.178199 -46.009862, -14.94951 -12.488371, -14.94951 0, -48.377631" transform="matrix(.742061 0 0 0.737799 150 153.408375)" fill="#c80007" stroke-width="0"/><polygon points="0, -48.377631 9.859239, -14.94951 46.009862, -14.94951 15.774784,5.178199 28.435658,39.138326 0,16.545753 -28.435658,39.138326 -16.610796,5.178199 -46.009862, -14.94951 -12.488371, -14.94951 0, -48.377631" transform="matrix(.742061 0 0 0.737799 236.01494 153.408375)" fill="#c80007" stroke-width="0"/></svg>
