<svg id="eQJ5XhmTMNY1" xmlns="http://www.w3.org/2000/svg" xmlns:xlink="http://www.w3.org/1999/xlink" viewBox="0 0 300 300" shape-rendering="geometricPrecision" text-rendering="geometricPrecision" project-id="169a27414de84e7fac98fb26309ce006" export-id="ef68589c5a33499eb2990c7247bf58b6" cached="false"><rect width="300" height="100.14589" rx="0" ry="0" fill="#304aa5" stroke-width="0"/><rect width="300" height="100.14589" rx="0" ry="0" transform="translate(0 199.85411)" fill="#304aa5" stroke-width="0"/><rect width="300" height="100.14589" rx="0" ry="0" transform="matrix(1 0 0 1.781577 0 60.791193)" fill="#dda600" stroke-width="0"/><rect width="300" height="100.14589" rx="0" ry="0" transform="matrix(1 0 0 1.439352 0 77.927406)" fill="#ac170b" stroke-width="0"/><rect width="220.006263" height="7" rx="0" ry="0" transform="matrix(.879474 0 0 1 41.255106 126.877923)" fill="#dda600" stroke-width="0"/><rect width="220.006263" height="7" rx="0" ry="0" transform="matrix(.861216 0 0 1 55.263544 112.446072)" fill="#dda600" stroke-width="0"/><rect width="220.006263" height="10" rx="0" ry="0" transform="matrix(1.123171 0 0 1 26.447673 145)" fill="#dda600" stroke-width="0"/><ellipse rx="65.117562" ry="52.395242" transform="translate(150 150)" fill="#fff" stroke-width="0"/><polygon points="-30.495215,-45.330461 -23.654482,-54.686547 -27.612928,-62.037946 -14.301978,-59.722509 -1.563876,-60.908871 4.778124,-63.188039 2.96074,-81.367948 16.610741,-66.122863 23.829131,-89.737515 27.686285,-87.934141 30.606167,-82.511503 33.43502,-77.257916 36.106477,-69.634837 38.130137,-61.039059 39.227394,-52.761997 39.376515,-43.984364 38.743729,-38.150467 37.813278,-32.751652 33.290616,-16.603994 23.625186,14.379481 -8.856469,6.090591 -25.156594,0.398094 -33.841944,-3.878945 -42.767228,-10.212312 -49.671091,-16.432334 -56.298863,-24.592334 -62.240023,-33.909724 -54.66825,-32.314209 -46.568521,-32.10326 -40.338956,-40.029985 -30.495215,-45.330461" transform="matrix(-.4741 0.880471 -.880471 -.4741 90.635491 136.32871)" stroke-width="0"/><polygon points="-30.495215,-45.330461 -23.654482,-54.686547 -17.046064,-43.397057 -6.009451,-40.364792 -1.563876,-60.908871 4.778124,-63.188039 11.02193,-60.628994 14.696604,-65.092174 18.159568,-60.835129 27.313991,-72.921697 30.606167,-82.511503 33.095609,-76.929944 35.872104,-69.60851 37.996844,-61.061773 39.109176,-52.771389 39.376515,-43.984364 37.813278,-32.751652 33.290616,-16.603994 23.625186,14.379481 -8.856469,6.090591 -23.844003,0.448423 -33.971086,-4.489502 -42.767228,-10.212312 -49.573078,-16.636816 -56.298863,-24.592334 -62.240023,-33.909724 -54.66825,-32.314209 -46.568521,-32.10326 -40.338956,-40.029985 -30.495215,-45.330461" transform="matrix(.459745 -.853812 0.928177 0.499788 215.295052 165.355569)" fill="#fff" stroke-width="0"/><g transform="matrix(1.337059 0 0 1.222706 -31.025809 -29.815423)"><rect width="4.264195" height="10.249074" rx="0" ry="0" transform="translate(91.05935 133.877923)" fill="#fff" stroke-width="0"/><rect width="4.264195" height="10.249074" rx="0" ry="0" transform="translate(91.05935 150)" fill="#fff" stroke-width="0"/><rect width="4.264195" height="10.249074" rx="0" ry="0" transform="translate(97.323545 150)" fill="#fff" stroke-width="0"/><rect width="4.264195" height="10.249074" rx="0" ry="0" transform="translate(103.58774 150)" fill="#fff" stroke-width="0"/><rect width="4.264195" height="10.249074" rx="0" ry="0" transform="translate(109.963152 150)" fill="#fff" stroke-width="0"/><rect width="4.264195" height="10.249074" rx="0" ry="0" transform="translate(116.227347 150)" fill="#fff" stroke-width="0"/><rect width="4.264195" height="10.249074" rx="0" ry="0" transform="translate(122.491542 150)" fill="#fff" stroke-width="0"/><rect width="4.264195" height="10.249074" rx="0" ry="0" transform="translate(97.323545 133.877923)" fill="#fff" stroke-width="0"/><rect width="4.264195" height="10.249074" rx="0" ry="0" transform="translate(103.58774 133.877923)" fill="#fff" stroke-width="0"/><rect width="4.264195" height="10.249074" rx="0" ry="0" transform="translate(109.963152 133.877923)" fill="#fff" stroke-width="0"/><rect width="4.264195" height="10.249074" rx="0" ry="0" transform="translate(116.227347 133.877923)" fill="#fff" stroke-width="0"/><rect width="4.264195" height="10.249074" rx="0" ry="0" transform="translate(122.491542 133.877923)" fill="#fff" stroke-width="0"/></g><g transform="matrix(1.337059 0 0 1.222706 45.637663 -29.815423)"><rect width="4.264195" height="10.249074" rx="0" ry="0" transform="translate(91.05935 133.877923)" stroke-width="0"/><rect width="4.264195" height="10.249074" rx="0" ry="0" transform="translate(91.05935 150)" stroke-width="0"/><rect width="4.264195" height="10.249074" rx="0" ry="0" transform="translate(97.323545 150)" stroke-width="0"/><rect width="4.264195" height="10.249074" rx="0" ry="0" transform="translate(103.58774 150)" stroke-width="0"/><rect width="4.264195" height="10.249074" rx="0" ry="0" transform="translate(109.963152 150)" stroke-width="0"/><rect width="4.264195" height="10.249074" rx="0" ry="0" transform="translate(116.227347 150)" stroke-width="0"/><rect width="4.264195" height="10.249074" rx="0" ry="0" transform="translate(122.491542 150)" stroke-width="0"/><rect width="4.264195" height="10.249074" rx="0" ry="0" transform="translate(97.323545 133.877923)" stroke-width="0"/><rect width="4.264195" height="10.249074" rx="0" ry="0" transform="translate(103.58774 133.877923)" stroke-width="0"/><rect width="4.264195" height="10.249074" rx="0" ry="0" transform="translate(109.963152 133.877923)" stroke-width="0"/><rect width="4.264195" height="10.249074" rx="0" ry="0" transform="translate(116.227347 133.877923)" stroke-width="0"/><rect width="4.264195" height="10.249074" rx="0" ry="0" transform="translate(122.491542 133.877923)" stroke-width="0"/></g><rect width="19.957866" height="21.165537" rx="0" ry="0" transform="matrix(.268524 0.318479 -.313066 0.263959 248.357364 109.391803)" fill="#fff" stroke-width="0"/><rect width="19.957866" height="21.165537" rx="0" ry="0" transform="matrix(.268524 0.318479 -.313066 0.263959 238.357364 124.391803)" fill="#fff" stroke-width="0"/><ellipse rx="11.328681" ry="12.098824" transform="translate(121.42393 128.044896)" fill="#485161" stroke-width="0"/><ellipse rx="11.328681" ry="12.098824" transform="translate(52.583787 165.689301)" fill="#485161" stroke-width="0"/><ellipse rx="11.328681" ry="12.098824" transform="translate(273.552328 165.159818)" fill="#485161" stroke-width="0"/></svg>
