<svg id="ehf26bNS3RX1" xmlns="http://www.w3.org/2000/svg" xmlns:xlink="http://www.w3.org/1999/xlink" viewBox="0 0 300 300" shape-rendering="geometricPrecision" text-rendering="geometricPrecision" project-id="169a27414de84e7fac98fb26309ce006" export-id="3ef0e0acf8884c89abdfd9eedbbc1554" cached="false"><rect width="300" height="300" rx="0" ry="0" fill="#246a2a" stroke="#246a2a"/><ellipse rx="44.570322" ry="45.771275" transform="matrix(1.234005 0 0 1.201627 174.086407 95.000001)" fill="#fff" stroke-width="0"/><ellipse rx="44.570322" ry="45.771275" transform="matrix(1.234005 0 0 1.201627 160.062981 83.236583)" fill="#246a2a" stroke-width="0"/><rect width="54.18142" height="300" rx="0" ry="0" transform="translate(23.469043 0)" fill="#b6161b" stroke-width="0"/><polygon points="-4.013159, -14.734307 -0.922989, -8.150715 5.986841, -7.094987 0.986841, -1.970375 2.16718,5.265693 -4.013159,1.849285 -10.193498,5.265693 -9.013159, -1.970375 -14.013159, -7.094987 -7.103329, -8.150715 -4.013159, -14.734307" transform="translate(140.755881 39.652296)" fill="#fff" stroke-width="0"/><polygon points="-4.013159, -14.734307 -0.922989, -8.150715 5.986841, -7.094987 0.986841, -1.970375 2.16718,5.265693 -4.013159,1.849285 -10.193498,5.265693 -9.013159, -1.970375 -14.013159, -7.094987 -7.103329, -8.150715 -4.013159, -14.734307" transform="translate(140.755881 71.316278)" fill="#fff" stroke-width="0"/><polygon points="-4.013159, -14.734307 -0.922989, -8.150715 5.986841, -7.094987 0.986841, -1.970375 2.16718,5.265693 -4.013159,1.849285 -10.193498,5.265693 -9.013159, -1.970375 -14.013159, -7.094987 -7.103329, -8.150715 -4.013159, -14.734307" transform="translate(140.755881 101.734308)" fill="#fff" stroke-width="0"/><polygon points="-4.013159, -14.734307 -0.922989, -8.150715 5.986841, -7.094987 0.986841, -1.970375 2.16718,5.265693 -4.013159,1.849285 -10.193498,5.265693 -9.013159, -1.970375 -14.013159, -7.094987 -7.103329, -8.150715 -4.013159, -14.734307" transform="translate(113.099566 89.734308)" fill="#fff" stroke-width="0"/><polygon points="-4.013159, -14.734307 -0.922989, -8.150715 5.986841, -7.094987 0.986841, -1.970375 2.16718,5.265693 -4.013159,1.849285 -10.193498,5.265693 -9.013159, -1.970375 -14.013159, -7.094987 -7.103329, -8.150715 -4.013159, -14.734307" transform="translate(168.099566 54.734308)" fill="#fff" stroke-width="0"/><polygon points="-13.625025,32.73233 11.179196,30.279119 11.179193,30.279117 -1.440457,43.966446 -13.625024,32.732333 -13.625025,32.732331 -13.625025,32.73233" transform="matrix(-.7352 0.677851 -.677851 -.7352 52.212704 33.300529)" fill="#e8bc09" stroke-width="0"/><polygon points="-13.625025,32.73233 11.179196,30.279119 11.179193,30.279117 -1.440457,43.966446 -13.625024,32.732333 -13.625025,32.732331 -13.625025,32.73233" transform="matrix(-.677815 -.735233 0.735233 -.677815 44.299434 28.674703)" fill="#e8bc09" stroke-width="0"/><polygon points="-13.625025,32.73233 11.179196,30.279119 11.179193,30.279117 -1.440457,43.966446 -13.625024,32.732333 -13.625025,32.732331 -13.625025,32.73233" transform="matrix(.675421 0.737432 -.737432 0.675421 56.547975 271.389429)" fill="#e8bc09" stroke-width="0"/><polygon points="-13.625025,32.73233 11.179196,30.279119 11.179193,30.279117 -1.440457,43.966446 -13.625024,32.732333 -13.625025,32.732331 -13.625025,32.73233" transform="matrix(.734087 -.679055 0.679055 0.734087 48.896995 267.17949)" fill="#e8bc09" stroke-width="0"/><polygon points="2.566581,5.468529 21.632283, -0.827188 21.632282, -0.827186 7.280396,23.618189 7.280395,23.618185 2.566581,5.468529" transform="matrix(-.862362 0.506293 -.506293 -.862362 41.705098 69.067979)" fill="#e8bc09" stroke-width="0"/><polygon points="2.566581,5.468529 21.632283, -0.827188 21.632282, -0.827186 7.280396,23.618189 7.280395,23.618185 2.566581,5.468529" transform="matrix(.862435 -.506167 0.506167 0.862435 59.347591 62.878421)" fill="#e8bc09" stroke-width="0"/><polygon points="2.566581,5.468529 21.632283, -0.827188 21.632282, -0.827186 7.280396,23.618189 7.280395,23.618185 2.566581,5.468529" transform="matrix(.862435 -.506167 0.506167 0.862435 59.347591 123.806315)" fill="#e8bc09" stroke-width="0"/><polygon points="2.566581,5.468529 21.632283, -0.827188 21.632282, -0.827186 7.280396,23.618189 7.280395,23.618185 2.566581,5.468529" transform="matrix(.862435 -.506167 0.506167 0.862435 59.347591 188.279439)" fill="#e8bc09" stroke-width="0"/><polygon points="2.566581,5.468529 21.632283, -0.827188 21.632282, -0.827186 7.280396,23.618189 7.280395,23.618185 2.566581,5.468529" transform="matrix(.862435 -.506167 0.506167 0.862435 59.593871 246.033752)" fill="#e8bc09" stroke-width="0"/><polygon points="2.566581,5.468529 21.632283, -0.827188 21.632282, -0.827186 7.280396,23.618189 7.280395,23.618185 2.566581,5.468529" transform="matrix(-.862362 0.506293 -.506293 -.862362 41.705098 131.210755)" fill="#e8bc09" stroke-width="0"/><polygon points="2.566581,5.468529 21.632283, -0.827188 21.632282, -0.827186 7.280396,23.618189 7.280395,23.618185 2.566581,5.468529" transform="matrix(-.862362 0.506293 -.506293 -.862362 41.705098 195.683879)" fill="#e8bc09" stroke-width="0"/><polygon points="2.566581,5.468529 21.632283, -0.827188 21.632282, -0.827186 7.280396,23.618189 7.280395,23.618185 2.566581,5.468529" transform="matrix(-.862362 0.506293 -.506293 -.862362 41.705098 251.612371)" fill="#e8bc09" stroke-width="0"/><polygon points="-4.375023, -29.570605 18.583956, -20.233068 27.753304,2.580377 11.899468,19.749728 -13.564155,14.58262 -21.059746, -10.684152 -4.375023, -29.570605" transform="matrix(-.734692 0.6784 -.6784 -.734692 50.487125 215.953193)" fill="#246a2a" stroke="#e8bc09" stroke-width="3"/><polygon points="-8.907138, -22.923219 6.767274, -21.032882 21.250545, -7.659318 23.475004,6.977805 11.899468,19.749728 -4.776289,19.390142 -18.692851,6.539865 -20.600238, -10.259852 -8.907138, -22.923219" transform="matrix(-.734692 0.6784 -.6784 -.734692 50.327107 271.233735)" fill="#e8bc09" stroke="#fff" stroke-width="3"/><polygon points="-8.907138, -22.923219 6.767274, -21.032882 21.250545, -7.659318 23.475004,6.977805 11.899468,19.749728 -4.776289,19.390142 -18.692851,6.539865 -20.600238, -10.259852 -8.907138, -22.923219" transform="matrix(-.734692 0.6784 -.6784 -.734692 49.475192 33.815005)" fill="#e8bc09" stroke="#fff" stroke-width="3"/><rect width="7.902118" height="12.370629" rx="0" ry="0" transform="translate(60.536768 22.859853)" fill="#fff" stroke-width="0"/><rect width="8.827347" height="12.31536" rx="0" ry="0" transform="translate(51.709421 36.681316)" fill="#fff" stroke-width="0"/><rect width="9.277965" height="7.715664" rx="0" ry="0" transform="translate(31.575214 36.681317)" fill="#fff" stroke-width="0"/><rect width="8.387852" height="14.224914" rx="0" ry="0" transform="translate(40.917921 21.005568)" fill="#fff" stroke-width="0"/><rect width="8.387852" height="14.224914" rx="0" ry="0" transform="translate(41.769839 258.424296)" fill="#fff" stroke-width="0"/><rect width="8.827347" height="12.31536" rx="0" ry="0" transform="translate(52.561339 274.100042)" fill="#fff" stroke-width="0"/><rect width="9.277965" height="7.715664" rx="0" ry="0" transform="translate(32.427132 274.100042)" fill="#fff" stroke-width="0"/><rect width="7.902118" height="12.370629" rx="0" ry="0" transform="translate(61.388686 260.278582)" fill="#fff" stroke-width="0"/><rect width="37.920343" height="33.739541" rx="0" ry="0" transform="translate(31.689812 142.876361)" fill="#b6161b" stroke="#e8bc09" stroke-width="3"/><ellipse rx="8.607188" ry="8.139478" transform="translate(50.377027 36.257503)" fill="#246a2a" stroke-width="0"/><ellipse rx="3.745888" ry="2.541006" transform="translate(50.377207 36.458995)" fill="#b6161b" stroke-width="0"/><rect width="8.376646" height="20" rx="0" ry="0" transform="translate(28.346454 87.000001)" fill="#246a2a" stroke-width="0"/><rect width="8.376646" height="20" rx="0" ry="0" transform="translate(60.18382 87.000001)" fill="#246a2a" stroke-width="0"/><rect width="8.376646" height="20" rx="0" ry="0" transform="matrix(1 0 0 1.514277 36.214197 81.857231)" fill="#e8bc09" stroke-width="0"/><rect width="8.376646" height="20" rx="0" ry="0" transform="matrix(1 0 0 1.514277 52.160122 81.948466)" fill="#e8bc09" stroke-width="0"/><rect width="8.376646" height="20" rx="0" ry="0" transform="matrix(1 0 0 1.987735 44.184693 77.213886)" fill="#246a2a" stroke-width="0"/><rect width="29.340228" height="6.295917" rx="0" ry="0" transform="translate(34.63005 95.000001)" fill="#b6161b" stroke-width="0"/></svg>
