<svg id="eZYzjOB2VSy1" xmlns="http://www.w3.org/2000/svg" xmlns:xlink="http://www.w3.org/1999/xlink" viewBox="0 0 300 300" shape-rendering="geometricPrecision" text-rendering="geometricPrecision" project-id="169a27414de84e7fac98fb26309ce006" export-id="cb53f695163c44bbacd32527e1c805fc" cached="false"><rect width="300" height="300" rx="0" ry="0" fill="#e40009" stroke-width="0"/><rect width="150" height="150" rx="0" ry="0" fill="#070080" stroke-width="0"/><polygon points="0,-45.694849 13.429379,-18.483955 43.458384,-14.120485 21.729192,7.060242 26.858758,36.967909 0,22.847425 -26.858758,36.967909 -21.729192,7.060242 -43.458384,-14.120485 -13.429379,-18.483955 0,-45.694849" transform="translate(75 79.36347)" fill="#fff" stroke-width="0"/><polygon points="0,-45.694849 13.429379,-18.483955 43.458384,-14.120485 21.729192,7.060242 26.858758,36.967909 0,22.847425 -26.858758,36.967909 -21.729192,7.060242 -43.458384,-14.120485 -13.429379,-18.483955 0,-45.694849" transform="matrix(.821952 0.569556-.569556 0.821952 75 79.36347)" fill="#fff" stroke-width="0"/><ellipse rx="23.325329" ry="23.389849" transform="matrix(1.212796 0 0 1.150256 75 78.936724)" fill="none" stroke="#070080" stroke-width="3"/></svg>
