<svg id="eyXx8aRf1qW1" xmlns="http://www.w3.org/2000/svg" xmlns:xlink="http://www.w3.org/1999/xlink" viewBox="0 0 300 300" shape-rendering="geometricPrecision" text-rendering="geometricPrecision" project-id="169a27414de84e7fac98fb26309ce006" export-id="24e4b49c3cbd45f28f04579155747847" cached="false"><rect width="300" height="50" rx="0" ry="0" stroke-width="0"/><rect width="300" height="50" rx="0" ry="0" transform="translate(0 150)" stroke-width="0"/><rect width="300" height="50" rx="0" ry="0" transform="translate(0 200)" fill="#ffda00" stroke-width="0"/><rect width="300" height="50" rx="0" ry="0" transform="translate(0 250)" fill="#d10f0f" stroke-width="0"/><rect width="300" height="50" rx="0" ry="0" transform="translate(0 50)" fill="#ffda00" stroke-width="0"/><rect width="300" height="50" rx="0" ry="0" transform="translate(0 100)" fill="#d10f0f" stroke-width="0"/><ellipse rx="48.03437" ry="48.706179" transform="translate(150 150)" fill="#fff" stroke-width="0"/><polygon points="-1.875629,29.298455 7.442172,34.991539 7.442168,23.304047 -7.442172,9.635818 -6.442172,1.664241 -1.875629, -5.563553 3.275256, -10.243271 3.275256, -10.243271 -1.875629, -14.619621 -6.442172, -14.619621 -1.875629, -19.228309 1.275256, -24.192492 8.069914, -25.192492 12.041687, -19.228309 9.187468, -14.619621 7.150633, -12.325958 9.817455, -5.563553 13.479806,1.664241 22.51689,4.664241 28.572035,17.554457 32.553974,23.304047 32.553974,44.751111 28.572035,34.991539 12.041687,23.304047 12.041687,56.65974 -7.442172,56.65974 7.442172,48.797862 7.442172,39.465892 -1.875629,34.991539 -7.442172,39.465892 -1.875629,29.298455" transform="translate(141.679399 135.243271)" fill="#010204" stroke-width="0"/><path d="M150,155.595451L150,150" transform="translate(0 0.000002)" fill="none" stroke="#3f5787" stroke-width="0.6"/><rect width="2.982092" height="6.235283" rx="0" ry="0" transform="translate(142.514762 105.05078)" fill="#d10f0f" stroke-width="0"/><rect width="2.982092" height="6.235283" rx="0" ry="0" transform="translate(145.514762 105.05078)" fill="#ffda00" stroke-width="0"/><rect width="2.982092" height="6.235283" rx="0" ry="0" transform="translate(148.514762 105.05078)" fill="#d10f0f" stroke-width="0"/><polygon points="14.220284, -18.309112 11.149513, -3.622696 9.870557,2.259074 -5.133283,1.278189 4.494487, -9.633093 14.220284, -18.309112" transform="matrix(-.477294 0.878744 -.878744 -.477294 163.931602 150.000002)" fill="#d10f0f" stroke-width="0"/></svg>
