<svg id="eR8jqcblDZH1" xmlns="http://www.w3.org/2000/svg" xmlns:xlink="http://www.w3.org/1999/xlink" viewBox="0 0 300 300" shape-rendering="geometricPrecision" text-rendering="geometricPrecision" project-id="169a27414de84e7fac98fb26309ce006" export-id="ed57619171ca42a992f32ccc1bae0a6b" cached="false"><rect width="300" height="23.08" rx="0" ry="0" transform="translate(0 0.000001)" fill="#bc0c0c" stroke-width="0"/><rect width="300" height="23.08" rx="0" ry="0" transform="translate(0 23.080001)" fill="#fff" stroke-width="0"/><rect width="300" height="23.08" rx="0" ry="0" transform="translate(0 46.160001)" fill="#bc0c0c" stroke-width="0"/><rect width="300" height="23.08" rx="0" ry="0" transform="translate(0 69.240001)" fill="#fff" stroke-width="0"/><rect width="300" height="23.08" rx="0" ry="0" transform="translate(0 92.320001)" fill="#bc0c0c" stroke-width="0"/><rect width="300" height="23.08" rx="0" ry="0" transform="translate(0 115.400001)" fill="#fff" stroke-width="0"/><rect width="300" height="23.08" rx="0" ry="0" transform="translate(0 138.480001)" fill="#bc0c0c" stroke-width="0"/><rect width="300" height="23.08" rx="0" ry="0" transform="translate(0 161.560001)" fill="#fff" stroke-width="0"/><rect width="300" height="23.08" rx="0" ry="0" transform="translate(0 184.640001)" fill="#bc0c0c" stroke-width="0"/><rect width="300" height="23.08" rx="0" ry="0" transform="translate(0 207.720001)" fill="#fff" stroke-width="0"/><rect width="300" height="23.08" rx="0" ry="0" transform="translate(0 230.800001)" fill="#bc0c0c" stroke-width="0"/><rect width="300" height="23.08" rx="0" ry="0" transform="translate(0 253.880001)" fill="#fff" stroke-width="0"/><rect width="300" height="23.08" rx="0" ry="0" transform="translate(0 276.960001)" fill="#bc0c0c" stroke-width="0"/><rect width="150" height="150.020001" rx="0" ry="0" fill="#001f60" stroke-width="0"/><g transform="translate(-3 0)"><polygon points="-0.076536, -13.49513 3.865932, -3.612093 12.68156, -2.027274 6.302512,5.665598 7.808401,16.528108 -0.076536,11.399526 -7.961473,16.528108 -6.455584,5.665598 -12.834632, -2.027274 -4.019004, -3.612093 -0.076536, -13.49513" transform="matrix(.58785 -.003802 0.003231 0.499603 17.588442 14.790418)" fill="#fff" stroke-width="0"/><polygon points="-0.076536, -13.49513 3.865932, -3.612093 12.68156, -2.027274 6.302512,5.665598 7.808401,16.528108 -0.076536,11.399526 -7.961473,16.528108 -6.455584,5.665598 -12.834632, -2.027274 -4.019004, -3.612093 -0.076536, -13.49513" transform="matrix(.58785 -.003802 0.003231 0.499603 17.588442 44.790418)" fill="#fff" stroke-width="0"/><polygon points="-0.076536, -13.49513 3.865932, -3.612093 12.68156, -2.027274 6.302512,5.665598 7.808401,16.528108 -0.076536,11.399526 -7.961473,16.528108 -6.455584,5.665598 -12.834632, -2.027274 -4.019004, -3.612093 -0.076536, -13.49513" transform="matrix(.58785 -.003802 0.003231 0.499603 17.588442 74.790418)" fill="#fff" stroke-width="0"/><polygon points="-0.076536, -13.49513 3.865932, -3.612093 12.68156, -2.027274 6.302512,5.665598 7.808401,16.528108 -0.076536,11.399526 -7.961473,16.528108 -6.455584,5.665598 -12.834632, -2.027274 -4.019004, -3.612093 -0.076536, -13.49513" transform="matrix(.58785 -.003802 0.003231 0.499603 17.588442 104.790418)" fill="#fff" stroke-width="0"/><polygon points="-0.076536, -13.49513 3.865932, -3.612093 12.68156, -2.027274 6.302512,5.665598 7.808401,16.528108 -0.076536,11.399526 -7.961473,16.528108 -6.455584,5.665598 -12.834632, -2.027274 -4.019004, -3.612093 -0.076536, -13.49513" transform="matrix(.58785 -.003802 0.003231 0.499603 17.588442 134.790418)" fill="#fff" stroke-width="0"/></g><g transform="translate(37 0)"><polygon points="-0.076536, -13.49513 3.865932, -3.612093 12.68156, -2.027274 6.302512,5.665598 7.808401,16.528108 -0.076536,11.399526 -7.961473,16.528108 -6.455584,5.665598 -12.834632, -2.027274 -4.019004, -3.612093 -0.076536, -13.49513" transform="matrix(.58785 -.003802 0.003231 0.499603 17.588442 14.790418)" fill="#fff" stroke-width="0"/><polygon points="-0.076536, -13.49513 3.865932, -3.612093 12.68156, -2.027274 6.302512,5.665598 7.808401,16.528108 -0.076536,11.399526 -7.961473,16.528108 -6.455584,5.665598 -12.834632, -2.027274 -4.019004, -3.612093 -0.076536, -13.49513" transform="matrix(.58785 -.003802 0.003231 0.499603 17.588442 44.790418)" fill="#fff" stroke-width="0"/><polygon points="-0.076536, -13.49513 3.865932, -3.612093 12.68156, -2.027274 6.302512,5.665598 7.808401,16.528108 -0.076536,11.399526 -7.961473,16.528108 -6.455584,5.665598 -12.834632, -2.027274 -4.019004, -3.612093 -0.076536, -13.49513" transform="matrix(.58785 -.003802 0.003231 0.499603 17.588442 74.790418)" fill="#fff" stroke-width="0"/><polygon points="-0.076536, -13.49513 3.865932, -3.612093 12.68156, -2.027274 6.302512,5.665598 7.808401,16.528108 -0.076536,11.399526 -7.961473,16.528108 -6.455584,5.665598 -12.834632, -2.027274 -4.019004, -3.612093 -0.076536, -13.49513" transform="matrix(.58785 -.003802 0.003231 0.499603 17.588442 104.790418)" fill="#fff" stroke-width="0"/><polygon points="-0.076536, -13.49513 3.865932, -3.612093 12.68156, -2.027274 6.302512,5.665598 7.808401,16.528108 -0.076536,11.399526 -7.961473,16.528108 -6.455584,5.665598 -12.834632, -2.027274 -4.019004, -3.612093 -0.076536, -13.49513" transform="matrix(.58785 -.003802 0.003231 0.499603 17.588442 134.790418)" fill="#fff" stroke-width="0"/></g><g transform="translate(77 0)"><polygon points="-0.076536, -13.49513 3.865932, -3.612093 12.68156, -2.027274 6.302512,5.665598 7.808401,16.528108 -0.076536,11.399526 -7.961473,16.528108 -6.455584,5.665598 -12.834632, -2.027274 -4.019004, -3.612093 -0.076536, -13.49513" transform="matrix(.58785 -.003802 0.003231 0.499603 17.588442 14.790418)" fill="#fff" stroke-width="0"/><polygon points="-0.076536, -13.49513 3.865932, -3.612093 12.68156, -2.027274 6.302512,5.665598 7.808401,16.528108 -0.076536,11.399526 -7.961473,16.528108 -6.455584,5.665598 -12.834632, -2.027274 -4.019004, -3.612093 -0.076536, -13.49513" transform="matrix(.58785 -.003802 0.003231 0.499603 17.588442 44.790418)" fill="#fff" stroke-width="0"/><polygon points="-0.076536, -13.49513 3.865932, -3.612093 12.68156, -2.027274 6.302512,5.665598 7.808401,16.528108 -0.076536,11.399526 -7.961473,16.528108 -6.455584,5.665598 -12.834632, -2.027274 -4.019004, -3.612093 -0.076536, -13.49513" transform="matrix(.58785 -.003802 0.003231 0.499603 17.588442 74.790418)" fill="#fff" stroke-width="0"/><polygon points="-0.076536, -13.49513 3.865932, -3.612093 12.68156, -2.027274 6.302512,5.665598 7.808401,16.528108 -0.076536,11.399526 -7.961473,16.528108 -6.455584,5.665598 -12.834632, -2.027274 -4.019004, -3.612093 -0.076536, -13.49513" transform="matrix(.58785 -.003802 0.003231 0.499603 17.588442 104.790418)" fill="#fff" stroke-width="0"/><polygon points="-0.076536, -13.49513 3.865932, -3.612093 12.68156, -2.027274 6.302512,5.665598 7.808401,16.528108 -0.076536,11.399526 -7.961473,16.528108 -6.455584,5.665598 -12.834632, -2.027274 -4.019004, -3.612093 -0.076536, -13.49513" transform="matrix(.58785 -.003802 0.003231 0.499603 17.588442 134.790418)" fill="#fff" stroke-width="0"/></g><g transform="translate(117 0)"><polygon points="-0.076536, -13.49513 3.865932, -3.612093 12.68156, -2.027274 6.302512,5.665598 7.808401,16.528108 -0.076536,11.399526 -7.961473,16.528108 -6.455584,5.665598 -12.834632, -2.027274 -4.019004, -3.612093 -0.076536, -13.49513" transform="matrix(.58785 -.003802 0.003231 0.499603 17.588442 14.790418)" fill="#fff" stroke-width="0"/><polygon points="-0.076536, -13.49513 3.865932, -3.612093 12.68156, -2.027274 6.302512,5.665598 7.808401,16.528108 -0.076536,11.399526 -7.961473,16.528108 -6.455584,5.665598 -12.834632, -2.027274 -4.019004, -3.612093 -0.076536, -13.49513" transform="matrix(.58785 -.003802 0.003231 0.499603 17.588442 44.790418)" fill="#fff" stroke-width="0"/><polygon points="-0.076536, -13.49513 3.865932, -3.612093 12.68156, -2.027274 6.302512,5.665598 7.808401,16.528108 -0.076536,11.399526 -7.961473,16.528108 -6.455584,5.665598 -12.834632, -2.027274 -4.019004, -3.612093 -0.076536, -13.49513" transform="matrix(.58785 -.003802 0.003231 0.499603 17.588442 74.790418)" fill="#fff" stroke-width="0"/><polygon points="-0.076536, -13.49513 3.865932, -3.612093 12.68156, -2.027274 6.302512,5.665598 7.808401,16.528108 -0.076536,11.399526 -7.961473,16.528108 -6.455584,5.665598 -12.834632, -2.027274 -4.019004, -3.612093 -0.076536, -13.49513" transform="matrix(.58785 -.003802 0.003231 0.499603 17.588442 104.790418)" fill="#fff" stroke-width="0"/><polygon points="-0.076536, -13.49513 3.865932, -3.612093 12.68156, -2.027274 6.302512,5.665598 7.808401,16.528108 -0.076536,11.399526 -7.961473,16.528108 -6.455584,5.665598 -12.834632, -2.027274 -4.019004, -3.612093 -0.076536, -13.49513" transform="matrix(.58785 -.003802 0.003231 0.499603 17.588442 134.790418)" fill="#fff" stroke-width="0"/></g><g transform="translate(17 17.080006)"><polygon points="-0.076536, -13.49513 3.865932, -3.612093 12.68156, -2.027274 6.302512,5.665598 7.808401,16.528108 -0.076536,11.399526 -7.961473,16.528108 -6.455584,5.665598 -12.834632, -2.027274 -4.019004, -3.612093 -0.076536, -13.49513" transform="matrix(.58785 -.003802 0.003231 0.499603 17.588442 14.790418)" fill="#fff" stroke-width="0"/><polygon points="-0.076536, -13.49513 3.865932, -3.612093 12.68156, -2.027274 6.302512,5.665598 7.808401,16.528108 -0.076536,11.399526 -7.961473,16.528108 -6.455584,5.665598 -12.834632, -2.027274 -4.019004, -3.612093 -0.076536, -13.49513" transform="matrix(.58785 -.003802 0.003231 0.499603 17.588442 44.790418)" fill="#fff" stroke-width="0"/><polygon points="-0.076536, -13.49513 3.865932, -3.612093 12.68156, -2.027274 6.302512,5.665598 7.808401,16.528108 -0.076536,11.399526 -7.961473,16.528108 -6.455584,5.665598 -12.834632, -2.027274 -4.019004, -3.612093 -0.076536, -13.49513" transform="matrix(.58785 -.003802 0.003231 0.499603 17.588442 74.790418)" fill="#fff" stroke-width="0"/><polygon points="-0.076536, -13.49513 3.865932, -3.612093 12.68156, -2.027274 6.302512,5.665598 7.808401,16.528108 -0.076536,11.399526 -7.961473,16.528108 -6.455584,5.665598 -12.834632, -2.027274 -4.019004, -3.612093 -0.076536, -13.49513" transform="matrix(.58785 -.003802 0.003231 0.499603 17.588442 104.790418)" fill="#fff" stroke-width="0"/></g><g transform="translate(57 17.080006)"><polygon points="-0.076536, -13.49513 3.865932, -3.612093 12.68156, -2.027274 6.302512,5.665598 7.808401,16.528108 -0.076536,11.399526 -7.961473,16.528108 -6.455584,5.665598 -12.834632, -2.027274 -4.019004, -3.612093 -0.076536, -13.49513" transform="matrix(.58785 -.003802 0.003231 0.499603 17.588442 14.790418)" fill="#fff" stroke-width="0"/><polygon points="-0.076536, -13.49513 3.865932, -3.612093 12.68156, -2.027274 6.302512,5.665598 7.808401,16.528108 -0.076536,11.399526 -7.961473,16.528108 -6.455584,5.665598 -12.834632, -2.027274 -4.019004, -3.612093 -0.076536, -13.49513" transform="matrix(.58785 -.003802 0.003231 0.499603 17.588442 44.790418)" fill="#fff" stroke-width="0"/><polygon points="-0.076536, -13.49513 3.865932, -3.612093 12.68156, -2.027274 6.302512,5.665598 7.808401,16.528108 -0.076536,11.399526 -7.961473,16.528108 -6.455584,5.665598 -12.834632, -2.027274 -4.019004, -3.612093 -0.076536, -13.49513" transform="matrix(.58785 -.003802 0.003231 0.499603 17.588442 74.790418)" fill="#fff" stroke-width="0"/><polygon points="-0.076536, -13.49513 3.865932, -3.612093 12.68156, -2.027274 6.302512,5.665598 7.808401,16.528108 -0.076536,11.399526 -7.961473,16.528108 -6.455584,5.665598 -12.834632, -2.027274 -4.019004, -3.612093 -0.076536, -13.49513" transform="matrix(.58785 -.003802 0.003231 0.499603 17.588442 104.790418)" fill="#fff" stroke-width="0"/></g><g transform="translate(97 17.080006)"><polygon points="-0.076536, -13.49513 3.865932, -3.612093 12.68156, -2.027274 6.302512,5.665598 7.808401,16.528108 -0.076536,11.399526 -7.961473,16.528108 -6.455584,5.665598 -12.834632, -2.027274 -4.019004, -3.612093 -0.076536, -13.49513" transform="matrix(.58785 -.003802 0.003231 0.499603 17.588442 14.790418)" fill="#fff" stroke-width="0"/><polygon points="-0.076536, -13.49513 3.865932, -3.612093 12.68156, -2.027274 6.302512,5.665598 7.808401,16.528108 -0.076536,11.399526 -7.961473,16.528108 -6.455584,5.665598 -12.834632, -2.027274 -4.019004, -3.612093 -0.076536, -13.49513" transform="matrix(.58785 -.003802 0.003231 0.499603 17.588442 44.790418)" fill="#fff" stroke-width="0"/><polygon points="-0.076536, -13.49513 3.865932, -3.612093 12.68156, -2.027274 6.302512,5.665598 7.808401,16.528108 -0.076536,11.399526 -7.961473,16.528108 -6.455584,5.665598 -12.834632, -2.027274 -4.019004, -3.612093 -0.076536, -13.49513" transform="matrix(.58785 -.003802 0.003231 0.499603 17.588442 74.790418)" fill="#fff" stroke-width="0"/><polygon points="-0.076536, -13.49513 3.865932, -3.612093 12.68156, -2.027274 6.302512,5.665598 7.808401,16.528108 -0.076536,11.399526 -7.961473,16.528108 -6.455584,5.665598 -12.834632, -2.027274 -4.019004, -3.612093 -0.076536, -13.49513" transform="matrix(.58785 -.003802 0.003231 0.499603 17.588442 104.790418)" fill="#fff" stroke-width="0"/></g></svg>
