<svg id="e8pRecHTMq41" xmlns="http://www.w3.org/2000/svg" xmlns:xlink="http://www.w3.org/1999/xlink" viewBox="0 0 300 300" shape-rendering="geometricPrecision" text-rendering="geometricPrecision" project-id="169a27414de84e7fac98fb26309ce006" export-id="745454330b334e2ca5f35bb7a01daadc" cached="false"><rect width="300" height="33.33" rx="0" ry="0" transform="translate(0 0.000001)" fill="#fff" stroke-width="0"/><rect width="300" height="33.33" rx="0" ry="0" transform="translate(0 33.330001)" fill="#043ba6" stroke-width="0"/><rect width="300" height="33.33" rx="0" ry="0" transform="translate(0 66.660001)" fill="#fff" stroke-width="0"/><rect width="300" height="33.33" rx="0" ry="0" transform="translate(0 99.990001)" fill="#043ba6" stroke-width="0"/><rect width="300" height="33.33" rx="0" ry="0" transform="translate(0 133.320001)" fill="#fff" stroke-width="0"/><rect width="300" height="33.33" rx="0" ry="0" transform="translate(0 166.650001)" fill="#043ba6" stroke-width="0"/><rect width="300" height="33.33" rx="0" ry="0" transform="translate(0 199.980001)" fill="#fff" stroke-width="0"/><rect width="300" height="33.33" rx="0" ry="0" transform="translate(0 233.310001)" fill="#043ba6" stroke-width="0"/><rect width="300" height="33.33" rx="0" ry="0" transform="translate(0 266.640001)" fill="#fff" stroke-width="0"/><rect width="150" height="149.985" rx="0" ry="0" fill="#fff" stroke-width="0"/><polygon points="0, -84.593778 20.195509, -26.140914 80.453463, -26.140915 31.196262,8.924426 49.722975,68.437804 0,32.222963 -49.722975,68.437804 -31.14319,7.802095 -80.453463, -26.140915 -19.537751, -26.140915 0, -84.593778" transform="matrix(.881516 0 0 0.891003 74.999995 75.373311)" fill="#f6b700" stroke-width="0"/><polygon points="0, -84.593778 20.195509, -26.140914 80.453463, -26.140915 31.196262,8.924426 49.722975,68.437804 0,32.222963 -49.722975,68.437804 -31.14319,7.802095 -80.453463, -26.140915 -19.537751, -26.140915 0, -84.593778" transform="matrix(.711129 0.520927 -.526534 0.718783 74.999995 75.373311)" fill="#f6b700" stroke-width="0"/><ellipse rx="27.5" ry="27.5" transform="matrix(1.109798 0 0 1.089581 74.999995 74.9925)" fill="#f8d01e" stroke-width="0"/><polygon points="16.773625,3.000864 23.713402, -10.464941 20.302144,2.647943 14.959725,23.184224 14.959725,23.184224 15.135824,9.296597 17.19213,6.658957 16.773628,3.000867 16.773625,3.000864" transform="matrix(.251766 0.967788 -.967788 0.251766 76.704592 71.114284)" fill="#8c5510" stroke-width="0"/><path d="M57.495317,66.660001q8.416692 -2.906993,12.409691,0" transform="translate(.000001 0)" fill="none" stroke="#3f5787" stroke-width="0.6"/><path d="M57.495317,66.660001q8.416692 -2.906993,12.409691,0" transform="translate(.000001 0)" fill="none" stroke="#8c5510" stroke-width="0.6"/><path d="M57.495317,66.660001q8.416692 -2.906993,12.409691,0" transform="translate(23.000001 0)" fill="none" stroke="#8c5510" stroke-width="0.6"/><ellipse rx="0.685759" ry="1.465094" transform="matrix(2.192517 0 0 1 63.832183 66.710707)" fill="#8c5510" stroke-width="0"/><ellipse rx="0.685759" ry="1.465094" transform="matrix(2.192517 0 0 1 87.413253 66.660001)" fill="#8c5510" stroke-width="0"/><path d="M69.905007,80.325001q5.375912,5.788196,9.474016,0" transform="translate(.000001 0)" fill="none" stroke="#8c5510" stroke-width="0.6"/></svg>
