<svg id="eY63X0Q2uSE1" xmlns="http://www.w3.org/2000/svg" xmlns:xlink="http://www.w3.org/1999/xlink" viewBox="0 0 300 300" shape-rendering="geometricPrecision" text-rendering="geometricPrecision" project-id="169a27414de84e7fac98fb26309ce006" export-id="56c5b7a404e847bda4d2ae24e35c1e00" cached="false"><rect width="300" height="120.562802" rx="0" ry="0" transform="translate(0 90.308274)" fill="#c10000" stroke-width="0"/><rect width="300" height="120.562802" rx="0" ry="0" transform="matrix(1 0 0 0.842426 0 99.807055)" fill="#fff" stroke-width="0"/><rect width="300" height="90.308274" rx="0" ry="0" fill="#4d7cdc" stroke-width="0"/><rect width="300" height="89.128924" rx="0" ry="0" transform="translate(0 210.871076)" fill="#2b7825" stroke-width="0"/><ellipse rx="31.784738" ry="35.072815" transform="translate(59.290804 45.154137)" fill="#fff" stroke-width="0"/><ellipse rx="31.784738" ry="35.072815" transform="translate(69.520375 45.154137)" fill="#4d7cdc" stroke-width="0"/><polygon points="-14, -8.331076 -11.551558, -3.369991 -6.076676, -2.574444 -10.038338,1.287222 -9.103117,6.739982 -14,4.165538 -18.896883,6.739982 -17.961662,1.287222 -21.923324, -2.574444 -16.448442, -3.369991 -14, -8.331076" transform="translate(185.645444 22.9093)" fill="#fff" stroke-width="0"/><polygon points="-14, -8.331076 -11.551558, -3.369991 -6.076676, -2.574444 -10.038338,1.287222 -9.103117,6.739982 -14,4.165538 -18.896883,6.739982 -17.961662,1.287222 -21.923324, -2.574444 -16.448442, -3.369991 -14, -8.331076" transform="translate(161.930973 23.235213)" fill="#fff" stroke-width="0"/><polygon points="-14, -8.331076 -11.551558, -3.369991 -6.076676, -2.574444 -10.038338,1.287222 -9.103117,6.739982 -14,4.165538 -18.896883,6.739982 -17.961662,1.287222 -21.923324, -2.574444 -16.448442, -3.369991 -14, -8.331076" transform="translate(136.652911 23.561126)" fill="#fff" stroke-width="0"/><polygon points="-14, -8.331076 -11.551558, -3.369991 -6.076676, -2.574444 -10.038338,1.287222 -9.103117,6.739982 -14,4.165538 -18.896883,6.739982 -17.961662,1.287222 -21.923324, -2.574444 -16.448442, -3.369991 -14, -8.331076" transform="translate(136.91351 46.927423)" fill="#fff" stroke-width="0"/><polygon points="-14, -8.331076 -11.551558, -3.369991 -6.076676, -2.574444 -10.038338,1.287222 -9.103117,6.739982 -14,4.165538 -18.896883,6.739982 -17.961662,1.287222 -21.923324, -2.574444 -16.448442, -3.369991 -14, -8.331076" transform="translate(136.91351 69.641894)" fill="#fff" stroke-width="0"/><polygon points="-14, -8.331076 -11.551558, -3.369991 -6.076676, -2.574444 -10.038338,1.287222 -9.103117,6.739982 -14,4.165538 -18.896883,6.739982 -17.961662,1.287222 -21.923324, -2.574444 -16.448442, -3.369991 -14, -8.331076" transform="translate(113.199039 69.967807)" fill="#fff" stroke-width="0"/><polygon points="-14, -8.331076 -11.551558, -3.369991 -6.076676, -2.574444 -10.038338,1.287222 -9.103117,6.739982 -14,4.165538 -18.896883,6.739982 -17.961662,1.287222 -21.923324, -2.574444 -16.448442, -3.369991 -14, -8.331076" transform="translate(91.075542 69.641894)" fill="#fff" stroke-width="0"/><polygon points="-14, -8.331076 -11.551558, -3.369991 -6.076676, -2.574444 -10.038338,1.287222 -9.103117,6.739982 -14,4.165538 -18.896883,6.739982 -17.961662,1.287222 -21.923324, -2.574444 -16.448442, -3.369991 -14, -8.331076" transform="translate(113.199039 47.253336)" fill="#fff" stroke-width="0"/><polygon points="-14, -8.331076 -11.551558, -3.369991 -6.076676, -2.574444 -10.038338,1.287222 -9.103117,6.739982 -14,4.165538 -18.896883,6.739982 -17.961662,1.287222 -21.923324, -2.574444 -16.448442, -3.369991 -14, -8.331076" transform="translate(161.930973 46.60151)" fill="#fff" stroke-width="0"/><polygon points="-14, -8.331076 -11.551558, -3.369991 -6.076676, -2.574444 -10.038338,1.287222 -9.103117,6.739982 -14,4.165538 -18.896883,6.739982 -17.961662,1.287222 -21.923324, -2.574444 -16.448442, -3.369991 -14, -8.331076" transform="translate(161.930973 69.315981)" fill="#fff" stroke-width="0"/><polygon points="-14, -8.331076 -11.551558, -3.369991 -6.076676, -2.574444 -10.038338,1.287222 -9.103117,6.739982 -14,4.165538 -18.896883,6.739982 -17.961662,1.287222 -21.923324, -2.574444 -16.448442, -3.369991 -14, -8.331076" transform="translate(185.645444 46.275597)" fill="#fff" stroke-width="0"/><polygon points="-14, -8.331076 -11.551558, -3.369991 -6.076676, -2.574444 -10.038338,1.287222 -9.103117,6.739982 -14,4.165538 -18.896883,6.739982 -17.961662,1.287222 -21.923324, -2.574444 -16.448442, -3.369991 -14, -8.331076" transform="translate(185.645444 68.990068)" fill="#fff" stroke-width="0"/></svg>
