<svg id="ehuikXH3F9M1" xmlns="http://www.w3.org/2000/svg" xmlns:xlink="http://www.w3.org/1999/xlink" viewBox="0 0 300 300" shape-rendering="geometricPrecision" text-rendering="geometricPrecision" project-id="169a27414de84e7fac98fb26309ce006" export-id="d1bb69a8909e4ff5bb47109d6e9584ee" cached="false"><rect width="300" height="100" rx="0" ry="0" transform="matrix(1 0 0 1.508077 0 150)" fill="#26611d" stroke-width="0"/><rect width="300" height="100" rx="0" ry="0" transform="matrix(1 0 0 1.442881 0-.000011)" fill="#d22323" stroke-width="0"/><polygon points="-27.598916,-122.2304 -27.598914,-122.2304 122.401085,24.892462 -27.598916,172.01532 -27.598917,172.01532 -27.598916,-122.2304" transform="matrix(1 0 0 1.019556 27.598915 124.620741)" fill="#010103" stroke-width="0"/><line x1="-71.569802" y1="-71.595361" x2="44.279426" y2="45.571996" transform="translate(76.985927 105.063469)" fill="none" stroke="#ecb100" stroke-width="15"/><line x1="-67.214392" y1="67.158713" x2="53.787896" y2="-51.424909" transform="translate(72.224679 196.442242)" fill="none" stroke="#ecb100" stroke-width="15"/><polygon points="-26.257008,15.025877 -12.291614,8.071407 -12.398058,30.153369 -20.321601,22.199091 -27.175406,15.071944 -26.257008,15.025877" transform="matrix(.714271 0.699869-.699869 0.714271 30.069819 266.438307)" fill="#ecb100" stroke-width="0"/><polygon points="57.103952,11.913916 57.513193,13.672121 43.646436,27.221862 42.336416,28.501935 42.51262,10.55368 57.103952,11.913916" transform="matrix(-.698884 0.715235-.715235-.698884 49.973819 7.133584)" fill="#ecb100" stroke-width="0"/><rect width="300" height="68.610321" rx="0" ry="0" transform="matrix(.611146 0 0 0.218626 117.26531 143.017333)" fill="#ecb100" stroke-width="0"/><line x1="-90.334277" y1="0" x2="83.514992" y2="0" transform="translate(216.346852 136.490015)" fill="none" stroke="#000" stroke-width="13"/><line x1="-90.472433" y1="0" x2="83.514992" y2="0" transform="translate(216.485008 164.499998)" fill="none" stroke="#000" stroke-width="13"/><ellipse rx="29.598142" ry="28.188706" transform="matrix(1 0.158384 0 1 42.435363 154.999998)" fill="#060b14" stroke="#ecb100" stroke-width="15"/><rect width="39.94762" height="89.640086" rx="0" ry="0" transform="translate(2.487743 105.231495)" stroke-width="0"/><ellipse rx="24.785976" ry="28.188706" transform="matrix(1.197512 0.125864 0 1 42.518725 150.635465)" fill="none" stroke="#ecb100" stroke-width="6"/><path d="M27.714001,139.490015q24.806062,2.386798,26.497384,28.884182" fill="none" stroke="#ecb100" stroke-width="2"/><path d="" fill="none" stroke="#3f5787" stroke-width="0.6"/><path d="M54.211385,144.288089q-19.779077-4.476797-20.7187,17.211909" fill="none" stroke="#ecb100" stroke-width="2"/></svg>
