<svg id="eXyIb5liexQ1" xmlns="http://www.w3.org/2000/svg" xmlns:xlink="http://www.w3.org/1999/xlink" viewBox="0 0 300 300" shape-rendering="geometricPrecision" text-rendering="geometricPrecision" project-id="169a27414de84e7fac98fb26309ce006" export-id="c0989100ba3145f7a3bd2287c9a595ee" cached="false"><rect width="300" height="300" rx="0" ry="0" fill="#d8131b" stroke-width="0"/><rect width="150" height="150" rx="0" ry="0" fill="#00246e" stroke-width="0"/><polygon points="0, -24.037266 7.064375, -9.723278 22.860798, -7.427924 11.430399,3.713962 14.12875,19.446557 0,12.018633 -14.12875,19.446557 -11.430399,3.713962 -22.860798, -7.427924 -7.064375, -9.723278 0, -24.037266" transform="matrix(.492058 0 0 0.455621 75 16.582503)" fill="#fff" stroke-width="0"/><polygon points="0, -24.037266 7.064375, -9.723278 22.860798, -7.427924 11.430399,3.713962 14.12875,19.446557 0,12.018633 -14.12875,19.446557 -11.430399,3.713962 -22.860798, -7.427924 -7.064375, -9.723278 0, -24.037266" transform="matrix(.492058 0 0 0.455621 25.46348 56.575292)" fill="#fff" stroke-width="0"/><polygon points="0, -24.037266 7.064375, -9.723278 22.860798, -7.427924 11.430399,3.713962 14.12875,19.446557 0,12.018633 -14.12875,19.446557 -11.430399,3.713962 -22.860798, -7.427924 -7.064375, -9.723278 0, -24.037266" transform="matrix(.492058 0 0 0.455621 113.630297 48.669221)" fill="#fff" stroke-width="0"/><polygon points="0, -24.037266 7.064375, -9.723278 22.860798, -7.427924 11.430399,3.713962 14.12875,19.446557 0,12.018633 -14.12875,19.446557 -11.430399,3.713962 -22.860798, -7.427924 -7.064375, -9.723278 0, -24.037266" transform="matrix(.343339 0 0 0.314337 94.097843 78.157067)" fill="#fff" stroke-width="0"/><polygon points="0, -24.037266 7.064375, -9.723278 22.860798, -7.427924 11.430399,3.713962 14.12875,19.446557 0,12.018633 -14.12875,19.446557 -11.430399,3.713962 -22.860798, -7.427924 -7.064375, -9.723278 0, -24.037266" transform="matrix(.681131 0 0 0.671824 75 124.597808)" fill="#fff" stroke-width="0"/></svg>
