<svg id="ege4aTKUGtO1" xmlns="http://www.w3.org/2000/svg" xmlns:xlink="http://www.w3.org/1999/xlink" viewBox="0 0 300 300" shape-rendering="geometricPrecision" text-rendering="geometricPrecision" project-id="169a27414de84e7fac98fb26309ce006" export-id="d6c3500436034ade9e21c6fb95a5d97a" cached="false"><rect width="300" height="100" rx="0" ry="0" transform="translate(0 100.242706)" fill="#fff" stroke-width="0"/><rect width="300" height="100" rx="0" ry="0" transform="matrix(1 0 0 0.719623 0 114.170368)" fill="#2f6b3d" stroke-width="0"/><rect width="300" height="100" rx="0" ry="0" fill="#d53333" stroke-width="0"/><rect width="300" height="100" rx="0" ry="0" transform="translate(0 200)" fill="#002878" stroke-width="0"/><polygon points="-27.598915, -71.956458 -27.598915, -71.956456 71.849481, 24.892462 -27.598915, 121.72374 -27.598915, 121.72374 -27.598915, -71.956458" transform="matrix(1 0 0 1.019556 27.598915 124.620741)" fill="#010103" stroke-width="0"/><rect width="300" height="100" rx="0" ry="0" transform="matrix(.426685 0.425087 -.507895 0.509804 50.789518 0.276738)" fill="#2f6b3d" stroke-width="0"/><rect width="300" height="100" rx="0" ry="0" transform="matrix(.402668 -.403685 0.509492 0.508208 0 249.179173)" fill="#2f6b3d" stroke-width="0"/><line x1="-44.615658" y1="-44.661173" x2="49.724198" y2="49.366953" transform="translate(49.724198 100.624054)" fill="none" stroke="#ecb100" stroke-width="15"/><line x1="-49.724198" y1="-49.366953" x2="63.960848" y2="61.856441" transform="translate(103.675994 44.194661)" fill="none" stroke="#fff" stroke-width="15"/><line x1="-44.96464" y1="44.8959" x2="53.787896" y2="-55.641896" transform="translate(50.07318 199.357958)" fill="none" stroke="#ecb100" stroke-width="15"/><line x1="-57.003753" y1="55.003049" x2="53.891763" y2="-55.951506" transform="translate(112.678432 250.633048)" fill="none" stroke="#fff" stroke-width="15"/><polygon points="0, -8.319614 50.076547, 20.589744 13.415663, 56.412503 -20.577605, 21.623906 -20.536928, 18.354764 0, -8.319614" transform="matrix(-.698884 0.715235 -.715235 -.698884 49.724198 29.830428)" fill="#2f6b3d" stroke-width="0"/><polygon points="3.816567, 17.289885 51.841736, 23.277375 15.564259, 58.8234 -20.321601, 22.199091 -20.108533, 15.730714 3.816567, 17.289885" transform="matrix(.714271 0.699869 -.699869 0.714271 30.051592 247.091208)" fill="#2f6b3d" stroke-width="0"/><polygon points="-26.257008, 15.025877 -12.291614, 8.071407 -12.419356, 30.26395 -20.321601, 22.199091 -27.139544, 15.240854 -26.257008, 15.025877" transform="matrix(.714271 0.699869 -.699869 0.714271 30.051592 247.091208)" fill="#ecb100" stroke-width="0"/><polygon points="42.354729, 13.28179 57.205803, 13.623479 43.471978, 27.043324 43.471978, 27.043325 43.471976, 27.043324 42.354729, 13.28179" transform="matrix(-.698884 0.715235 -.715235 -.698884 49.724198 29.783016)" fill="#ecb100" stroke-width="0"/></svg>
