<svg id="eF38o9PmLn71" xmlns="http://www.w3.org/2000/svg" xmlns:xlink="http://www.w3.org/1999/xlink" viewBox="0 0 300 300" shape-rendering="geometricPrecision" text-rendering="geometricPrecision" project-id="169a27414de84e7fac98fb26309ce006" export-id="ce8abf3c41e9434db3eca8b1c7293d57" cached="false"><rect width="300" height="295.905202" rx="0" ry="0" transform="matrix(1 0 0 1.013838 0 0.000031)" fill="#008b00" stroke-width="0"/><rect width="50.303428" height="149.999969" rx="0" ry="0" transform="translate(150 150)" fill="#c70007" stroke-width="0"/><rect width="50.303428" height="149.999969" rx="0" ry="0" transform="translate(200.303428 150.000031)" stroke-width="0"/><rect width="50.303428" height="149.999969" rx="0" ry="0" transform="translate(249.696572 150)" fill="#c46000" stroke-width="0"/><polygon points="-34.306312, -28.459274 -20.971315, -21.992254 -2.767402, -18.408165 8.561965, -39.294125 18.2395, -42.363405 18.670021, -30.430142 8.503978, -8.278137 8.503979, -8.278136 31.776859, -18.936452 43.30897, -20.379407 40.272701, -11.486244 22.302069,3.575833 25.578021,17.404503 39.380291,30.931463 43.921797,45.460903 54.975387,57.814122 55.367796,71.025624 42.477795,69.032347 26.104751,57.334515 -7.179131,25.487041 -36.047638,19.542977 -45.994291,6.542712 -26.444874,8.59246 -57.422679, -18.572688 -70.246954, -33.808703 -69.450833, -49.07099 -59.070848, -47.972683 -49.946598, -36.85446 -34.306312, -28.459274" transform="matrix(-.646725 0.567128 -.578892 -.66014 222.303148 77.243496)" fill="#e0a706" stroke-width="0"/></svg>
