<svg id="eTmDMPSXZGf1" xmlns="http://www.w3.org/2000/svg" xmlns:xlink="http://www.w3.org/1999/xlink" viewBox="0 0 300 300" shape-rendering="geometricPrecision" text-rendering="geometricPrecision" project-id="169a27414de84e7fac98fb26309ce006" export-id="4ea881c5780c4524b3510efeccc17874" cached="false"><rect width="300" height="42.85" rx="0" ry="0" fill="#00972d" stroke-width="0"/><rect width="300" height="42.85" rx="0" ry="0" transform="translate(0 42.85)" fill="#ffd100" stroke-width="0"/><rect width="300" height="42.85" rx="0" ry="0" transform="translate(0 85.7)" fill="#eb1f1f" stroke-width="0"/><rect width="300" height="42.85" rx="0" ry="0" transform="translate(0 128.575)" stroke-width="0"/><rect width="300" height="42.85" rx="0" ry="0" transform="translate(0 171.425)" fill="#eb1f1f" stroke-width="0"/><rect width="300" height="42.85" rx="0" ry="0" transform="translate(0 214.275)" fill="#ffd100" stroke-width="0"/><rect width="300" height="42.85" rx="0" ry="0" transform="translate(0 257.125)" fill="#00972d" stroke-width="0"/><polygon points="-91.673726, -113.203396 -91.673726, -113.203396 58.326274,36.796604 -91.673726,186.796604 -91.673726,186.771604 -91.673726, -113.203396" transform="translate(91.673726 113.203396)" fill="#f7f7f7" stroke-width="0"/><polygon points="0, -60.608929 17.812517, -24.516827 57.642517, -18.729189 28.821258,9.364595 35.625035,49.033654 0,30.304465 -35.625035,49.033654 -28.821258,9.364595 -57.642517, -18.729189 -17.812517, -24.516827 0, -60.608929" transform="translate(63.267046 146.308929)" fill="#eb1f1f" stroke-width="0"/><polygon points="-28.821258, -54.625195 -13.704916, -42.841074 43.862105,5.345602 35.625035,35.016245 -25.440791,35.016245 -35.625035,11.019126 -28.490019, -31.067858 -44.416926, -40.841074 -28.821258, -54.625195" transform="translate(63.267046 144.654398)" fill="#ffd100" stroke-width="0"/><line x1="-75" y1="-75" x2="75" y2="75" transform="translate(75 75)" fill="none" stroke="#000" stroke-width="5"/><line x1="-75" y1="74.9875" x2="75" y2="-74.9875" transform="translate(75 224.9875)" fill="none" stroke="#000" stroke-width="5"/></svg>
